<svg width="198" height="198" viewBox="0 0 198 198" fill="none" xmlns="http://www.w3.org/2000/svg">
<path d="M176.404 35.0991H12.8364C11.1081 35.0991 9.70703 36.5002 9.70703 38.2285V149.614C9.70703 151.342 11.1081 152.743 12.8364 152.743H176.404C178.132 152.743 179.533 151.342 179.533 149.614V38.2285C179.533 36.5002 178.132 35.0991 176.404 35.0991Z" fill="#8A87B2"/>
<path opacity="0.2" d="M47.5878 138.146C34.4619 138.146 23.8278 127.502 23.8278 114.376V35.0991H12.8364C12.0064 35.0991 11.2105 35.4288 10.6236 36.0157C10.0367 36.6026 9.70703 37.3985 9.70703 38.2285V149.611C9.70703 150.441 10.0367 151.237 10.6236 151.824C11.2105 152.41 12.0064 152.74 12.8364 152.74H176.404C177.235 152.74 178.032 152.411 178.62 151.824C179.208 151.238 179.54 150.442 179.543 149.611V138.146H47.5878Z" fill="#231F20"/>
<path d="M19.3652 55.9714V131.858C22.3418 131.858 25.1965 133.041 27.3012 135.146C29.406 137.25 30.5885 140.105 30.5885 143.082H158.661C158.661 140.105 159.843 137.25 161.948 135.146C164.053 133.041 166.907 131.858 169.884 131.858V55.9714C168.41 55.9726 166.951 55.6835 165.59 55.1206C164.228 54.5576 162.991 53.7318 161.948 52.6904C160.906 51.649 160.079 50.4124 159.515 49.0513C158.951 47.6902 158.661 46.2312 158.661 44.7578H30.5885C30.5885 46.2312 30.2981 47.6902 29.7339 49.0513C29.1698 50.4124 28.343 51.649 27.3007 52.6904C26.2584 53.7318 25.0211 54.5576 23.6594 55.1206C22.2978 55.6835 20.8386 55.9726 19.3652 55.9714Z" fill="#C8C2E9"/>
<path opacity="0.2" d="M24.8416 131.858V55.9714C26.315 55.9726 27.7742 55.6835 29.1358 55.1206C30.4974 54.5576 31.7348 53.7318 32.7771 52.6904C33.8194 51.649 34.6462 50.4124 35.2103 49.0513C35.7745 47.6902 36.0648 46.2312 36.0648 44.7578H30.5885C30.5885 46.2312 30.2981 47.6902 29.7339 49.0513C29.1698 50.4124 28.343 51.649 27.3007 52.6904C26.2584 53.7318 25.0211 54.5576 23.6594 55.1206C22.2978 55.6835 20.8386 55.9726 19.3652 55.9714V131.858C22.3418 131.858 25.1965 133.041 27.3012 135.146C29.406 137.25 30.5885 140.105 30.5885 143.082H36.0648C36.0648 140.105 34.8824 137.25 32.7776 135.146C30.6729 133.041 27.8182 131.858 24.8416 131.858Z" fill="#231F20"/>
<path d="M119.341 60.1437H69.9083C69.3959 60.1437 68.9046 59.9402 68.5423 59.5779C68.1801 59.2156 67.9766 58.7243 67.9766 58.212C67.9766 57.6997 68.1801 57.2083 68.5423 56.8461C68.9046 56.4838 69.3959 56.2803 69.9083 56.2803H119.341C119.853 56.2803 120.344 56.4838 120.707 56.8461C121.069 57.2083 121.272 57.6997 121.272 58.212C121.272 58.7243 121.069 59.2156 120.707 59.5779C120.344 59.9402 119.853 60.1437 119.341 60.1437Z" fill="#4D4C78"/>
<path d="M106.804 68.7399H82.4454C81.9331 68.7399 81.4417 68.5364 81.0795 68.1741C80.7172 67.8118 80.5137 67.3205 80.5137 66.8082C80.5137 66.2959 80.7172 65.8045 81.0795 65.4422C81.4417 65.08 81.9331 64.8765 82.4454 64.8765H106.804C107.317 64.8765 107.808 65.08 108.17 65.4422C108.532 65.8045 108.736 66.2959 108.736 66.8082C108.736 67.3205 108.532 67.8118 108.17 68.1741C107.808 68.5364 107.317 68.7399 106.804 68.7399Z" fill="#4D4C78"/>
<path d="M127.647 89.4093H41.6182C41.1059 89.4093 40.6146 89.2058 40.2523 88.8435C39.89 88.4813 39.6865 87.9899 39.6865 87.4776C39.6865 86.9653 39.89 86.4739 40.2523 86.1117C40.6146 85.7494 41.1059 85.5459 41.6182 85.5459H127.647C128.159 85.5459 128.65 85.7494 129.013 86.1117C129.375 86.4739 129.579 86.9653 129.579 87.4776C129.579 87.9899 129.375 88.4813 129.013 88.8435C128.65 89.2058 128.159 89.4093 127.647 89.4093Z" fill="#4D4C78"/>
<path d="M105.683 104.756H41.6182C41.1059 104.756 40.6146 104.553 40.2523 104.191C39.89 103.828 39.6865 103.337 39.6865 102.825C39.6865 102.312 39.89 101.821 40.2523 101.459C40.6146 101.097 41.1059 100.893 41.6182 100.893H105.683C106.196 100.893 106.687 101.097 107.049 101.459C107.411 101.821 107.615 102.312 107.615 102.825C107.615 103.337 107.411 103.828 107.049 104.191C106.687 104.553 106.196 104.756 105.683 104.756Z" fill="#4D4C78"/>
<path d="M96.9616 120.113H41.6182C41.1059 120.113 40.6146 119.91 40.2523 119.548C39.89 119.185 39.6865 118.694 39.6865 118.182C39.6865 117.669 39.89 117.178 40.2523 116.816C40.6146 116.454 41.1059 116.25 41.6182 116.25H96.9616C97.474 116.25 97.9653 116.454 98.3276 116.816C98.6898 117.178 98.8933 117.669 98.8933 118.182C98.8933 118.694 98.6898 119.185 98.3276 119.548C97.9653 119.91 97.474 120.113 96.9616 120.113Z" fill="#4D4C78"/>
<path d="M135.905 104.756H119.341C118.829 104.756 118.337 104.553 117.975 104.191C117.613 103.828 117.409 103.337 117.409 102.825C117.409 102.312 117.613 101.821 117.975 101.459C118.337 101.097 118.829 100.893 119.341 100.893H135.905C136.418 100.893 136.909 101.097 137.271 101.459C137.633 101.821 137.837 102.312 137.837 102.825C137.837 103.337 137.633 103.828 137.271 104.191C136.909 104.553 136.418 104.756 135.905 104.756Z" fill="#4D4C78"/>
<path opacity="0.2" d="M145.149 152.74H176.404C177.235 152.74 178.032 152.411 178.62 151.824C179.208 151.237 179.54 150.441 179.543 149.611V114.821C179.321 114.724 179.089 114.637 178.847 114.55C178.166 114.334 177.456 114.223 176.742 114.222C174.742 114.222 172.985 115.052 171.565 115.719C171.034 115.97 170.242 116.347 169.884 116.433C169.517 116.347 168.725 115.97 168.194 115.719C166.774 115.052 165.016 114.222 163.027 114.222C162.309 114.222 161.596 114.333 160.911 114.55C157.995 115.506 156.613 118.037 155.609 119.891C155.348 120.355 154.981 121.041 154.749 121.34C154.392 121.475 153.61 121.62 153.069 121.717C151.011 122.103 148.191 122.634 146.404 125.097C144.618 127.56 144.985 130.371 145.255 132.438C145.323 132.988 145.429 133.8 145.41 134.186C145.197 134.485 144.675 135.036 144.318 135.413C142.86 136.948 140.86 139.054 140.86 142.154C140.86 145.255 142.86 147.36 144.318 148.905C144.675 149.282 145.197 149.833 145.41 150.132C145.429 150.518 145.323 151.32 145.255 151.871C145.216 152.151 145.178 152.441 145.149 152.74Z" fill="#231F20"/>
<path d="M194.648 142.154C194.648 144.646 191.026 146.539 190.302 148.79C189.577 151.04 191.325 154.778 189.915 156.719C188.505 158.661 184.458 158.1 182.498 159.52C180.537 160.94 179.861 164.958 177.533 165.711C175.205 166.465 172.375 163.615 169.884 163.615C167.392 163.615 164.475 166.445 162.224 165.711C159.974 164.977 159.201 160.94 157.26 159.52C155.318 158.1 151.272 158.67 149.842 156.719C148.413 154.768 150.219 151.127 149.456 148.79C148.693 146.452 145.109 144.646 145.109 142.154C145.109 139.662 148.731 137.769 149.456 135.519C150.18 133.268 148.432 129.54 149.842 127.599C151.252 125.657 155.299 126.218 157.26 124.788C159.22 123.359 159.897 119.35 162.224 118.597C164.552 117.844 167.382 120.693 169.884 120.693C172.385 120.693 175.283 117.863 177.533 118.597C179.784 119.331 180.556 123.378 182.498 124.788C184.439 126.198 188.486 125.638 189.915 127.599C191.345 129.559 189.539 133.191 190.302 135.519C191.065 137.846 194.648 139.662 194.648 142.154Z" fill="#F4C23F"/>
<path d="M169.305 159.897C167.177 159.899 165.071 159.481 163.105 158.667C161.139 157.853 159.353 156.66 157.85 155.155C156.342 153.653 155.145 151.867 154.329 149.902C153.512 147.936 153.092 145.828 153.092 143.7C153.092 141.571 153.512 139.464 154.329 137.498C155.145 135.532 156.342 133.747 157.85 132.245C159.733 130.362 162.052 128.972 164.601 128.199C167.15 127.427 169.85 127.294 172.462 127.814C175.074 128.334 177.518 129.49 179.577 131.179C181.636 132.869 183.246 135.04 184.265 137.501C185.285 139.962 185.682 142.636 185.421 145.286C185.16 147.937 184.249 150.482 182.77 152.697C181.29 154.912 179.288 156.727 176.939 157.983C174.59 159.239 171.968 159.897 169.305 159.897Z" fill="#F4A93F"/>
<path d="M179.571 147.225C179.499 147.064 179.396 146.919 179.267 146.797C179.139 146.676 178.988 146.581 178.823 146.518C178.658 146.456 178.482 146.426 178.305 146.431C178.129 146.437 177.955 146.477 177.794 146.549L167.846 151.021C167.708 151.085 167.581 151.17 167.469 151.272C167.357 151.17 167.23 151.085 167.092 151.021L157.154 146.549C156.827 146.402 156.455 146.391 156.12 146.518C155.785 146.644 155.514 146.899 155.367 147.225L150.75 157.502C152.546 158.535 155.628 158.333 157.26 159.521C159.143 160.892 159.848 164.698 162.002 165.634L167.469 153.474L172.318 164.263C174.133 165.045 175.988 166.214 177.533 165.712C179.861 164.958 180.556 160.94 182.498 159.521C183.087 159.096 183.869 158.845 184.709 158.651L179.571 147.225Z" fill="#F4A93F"/>
<path d="M159.53 171.246L157.183 167.083C157.042 166.833 156.824 166.634 156.561 166.516C156.299 166.398 156.006 166.367 155.725 166.426L151.04 167.431C150.798 167.483 150.545 167.467 150.311 167.384C150.076 167.302 149.87 167.156 149.713 166.962C149.557 166.769 149.458 166.537 149.426 166.29C149.394 166.044 149.432 165.793 149.534 165.567L157.782 147.225C157.854 147.064 157.957 146.919 158.086 146.797C158.214 146.676 158.365 146.581 158.53 146.518C158.695 146.456 158.871 146.426 159.048 146.431C159.224 146.437 159.398 146.477 159.559 146.549L169.507 151.021C169.831 151.169 170.084 151.438 170.211 151.771C170.337 152.103 170.327 152.473 170.184 152.798L161.935 171.14C161.832 171.366 161.668 171.56 161.461 171.699C161.255 171.838 161.014 171.917 160.765 171.928C160.516 171.939 160.27 171.881 160.052 171.761C159.834 171.641 159.653 171.462 159.53 171.246Z" fill="#DE3226"/>
<path d="M160.66 150.586C160.814 150.255 160.901 149.896 160.916 149.531C160.931 149.166 160.874 148.801 160.747 148.458C160.62 148.115 160.427 147.801 160.179 147.533C159.93 147.265 159.631 147.049 159.298 146.897L158.506 146.53C158.184 146.659 157.924 146.908 157.782 147.225L149.534 165.567C149.432 165.793 149.394 166.044 149.426 166.29C149.458 166.536 149.557 166.769 149.713 166.962C149.87 167.156 150.076 167.302 150.311 167.384C150.545 167.467 150.798 167.483 151.04 167.431L153.069 166.996L160.66 150.586Z" fill="#B11A31"/>
<path d="M180.228 171.246L182.575 167.083C182.716 166.833 182.934 166.634 183.197 166.516C183.459 166.398 183.752 166.367 184.033 166.426L188.718 167.431C188.961 167.483 189.213 167.467 189.447 167.384C189.682 167.302 189.888 167.156 190.045 166.962C190.201 166.769 190.3 166.537 190.332 166.29C190.364 166.044 190.326 165.793 190.224 165.567L181.976 147.225C181.904 147.064 181.801 146.919 181.672 146.797C181.544 146.676 181.393 146.581 181.228 146.518C181.063 146.456 180.887 146.426 180.71 146.431C180.534 146.437 180.36 146.477 180.199 146.549L170.251 151.021C169.927 151.169 169.674 151.438 169.547 151.771C169.421 152.103 169.431 152.473 169.574 152.798L177.823 171.14C177.926 171.366 178.09 171.56 178.297 171.699C178.503 171.838 178.744 171.917 178.993 171.928C179.242 171.939 179.488 171.881 179.706 171.761C179.924 171.641 180.105 171.462 180.228 171.246Z" fill="#DE3226"/>
<path d="M172.84 151.997L169.816 153.339L177.823 171.14C177.927 171.366 178.091 171.56 178.297 171.699C178.504 171.838 178.745 171.917 178.993 171.928C179.242 171.939 179.489 171.881 179.707 171.761C179.925 171.641 180.105 171.462 180.228 171.246L180.895 170.068L172.84 151.997Z" fill="#B11A31"/>
<path d="M169.507 151.021L159.559 146.549C159.398 146.477 159.224 146.437 159.047 146.431C158.871 146.426 158.695 146.456 158.53 146.518C158.365 146.581 158.214 146.676 158.085 146.797C157.957 146.919 157.854 147.064 157.782 147.225L155.531 152.228C157.298 155.081 159.907 157.315 162.997 158.622C164.296 159.177 165.664 159.554 167.064 159.743L170.183 152.798C170.327 152.473 170.337 152.103 170.21 151.771C170.084 151.438 169.831 151.169 169.507 151.021Z" fill="#B11A31"/>
<path d="M183.724 151.098L181.976 147.225C181.904 147.064 181.801 146.919 181.672 146.797C181.544 146.676 181.393 146.581 181.228 146.518C181.063 146.456 180.887 146.426 180.71 146.431C180.534 146.437 180.36 146.477 180.199 146.549L170.251 151.021C169.927 151.169 169.674 151.438 169.547 151.771C169.421 152.103 169.431 152.473 169.574 152.798L172.617 159.559C173.644 159.347 174.646 159.033 175.611 158.622C177.535 157.811 179.284 156.633 180.759 155.155C181.949 153.962 182.949 152.594 183.724 151.098Z" fill="#B11A31"/>
<path d="M169.884 156.922C178.258 156.922 185.048 150.133 185.048 141.758C185.048 133.383 178.258 126.594 169.884 126.594C161.509 126.594 154.72 133.383 154.72 141.758C154.72 150.133 161.509 156.922 169.884 156.922Z" fill="#F8881B"/>
<path d="M169.884 155.155C177.282 155.155 183.28 149.157 183.28 141.758C183.28 134.36 177.282 128.362 169.884 128.362C162.485 128.362 156.487 134.36 156.487 141.758C156.487 149.157 162.485 155.155 169.884 155.155Z" fill="#F08000"/>
<path d="M169.884 153.648C176.45 153.648 181.773 148.325 181.773 141.758C181.773 135.192 176.45 129.869 169.884 129.869C163.317 129.869 157.994 135.192 157.994 141.758C157.994 148.325 163.317 153.648 169.884 153.648Z" fill="#F4C23F"/>
<path d="M180.47 124.238C180.803 124.041 181.092 123.778 181.32 123.465C180.151 121.688 179.33 119.177 177.533 118.597C176.915 118.394 176.249 118.462 175.553 118.665C175.346 119.072 175.243 119.524 175.253 119.981C175.263 120.438 175.386 120.885 175.611 121.282L176.751 123.233C177.111 123.859 177.705 124.317 178.402 124.506C179.1 124.694 179.843 124.598 180.47 124.238Z" fill="#FAD564"/>
<path d="M169.942 121.582C170.124 121.301 170.255 120.991 170.328 120.664L169.884 120.693C167.692 120.693 165.18 118.51 163.075 118.481C163.001 118.992 163.075 119.513 163.289 119.982C163.503 120.452 163.848 120.849 164.282 121.128L166.175 122.374C166.78 122.768 167.516 122.906 168.222 122.757C168.929 122.609 169.547 122.186 169.942 121.582Z" fill="#FAD564"/>
<path d="M190.303 135.519C189.54 133.191 191.326 129.54 189.916 127.599C189.028 126.372 187.115 126.141 185.328 125.783C184.851 126.593 184.641 127.533 184.73 128.468L185.077 132.119C185.192 133.284 185.764 134.355 186.667 135.1C187.571 135.844 188.732 136.199 189.897 136.089C190.098 136.067 190.298 136.035 190.496 135.992C190.417 135.841 190.353 135.682 190.303 135.519Z" fill="#FAD564"/>
<path d="M165.315 163.57C165.783 162.558 165.344 161.36 164.334 160.893C163.324 160.427 162.127 160.869 161.659 161.881L160.132 165.185C159.665 166.197 160.104 167.396 161.114 167.863C162.123 168.329 163.321 167.887 163.788 166.875L165.315 163.57Z" fill="#F44533"/>
<path d="M186.295 156.864C185.842 155.845 184.651 155.386 183.635 155.839C182.619 156.291 182.163 157.483 182.616 158.502L184.097 161.827C184.55 162.846 185.741 163.305 186.757 162.852C187.773 162.4 188.229 161.208 187.776 160.189L186.295 156.864Z" fill="#F44533"/>
<path d="M146.665 44.7578H82.5319C80.9583 44.7578 79.6826 46.033 79.6826 47.6061C79.6826 49.1792 80.9583 50.4544 82.5319 50.4544H146.665C148.238 50.4544 149.514 49.1792 149.514 47.6061C149.514 46.033 148.238 44.7578 146.665 44.7578Z" fill="#DFDAFD"/>
<path d="M169.874 67.9865C169.874 66.0982 168.346 64.5674 166.46 64.5674C164.575 64.5674 163.046 66.0982 163.046 67.9865V91.7224C163.046 93.6107 164.575 95.1415 166.46 95.1415C168.346 95.1415 169.874 93.6107 169.874 91.7224V67.9865Z" fill="#DFDAFD"/>
</svg>
