<svg width="1271" height="495" viewBox="0 0 1271 495" fill="none" xmlns="http://www.w3.org/2000/svg">
<rect width="1271" height="495" fill="white"/>
<path d="M113.153 202.391C112.298 240.004 108.718 277.991 98.5975 314.304C93.8409 331.372 91.9413 358.595 96.9803 376.083C99.1361 383.565 104.038 393.112 102.641 378.024C100.774 357.86 97.7537 337.287 102.155 317.215C107.818 291.392 125.746 248.639 150.996 237.161C176.238 225.688 192.236 221.155 211.481 247.35C229.421 271.768 235.417 293.532 235.417 323.522C235.417 344.062 230.448 404.985 235.74 385.139C245.904 347.024 261.213 311.771 278.112 276.137C296.945 236.425 326.822 233.718 364.149 254.789C387.443 267.939 393.69 279.143 404.095 304.115C409.121 316.178 410.888 327.58 417.195 339.048C421.311 346.531 427.545 352.305 427.545 361.042C427.545 370.445 438.179 387.152 445.012 393.226C474.87 419.767 499.849 326.762 505.497 310.423C513.972 285.903 528.217 266.894 553.044 258.994C580.501 250.258 613.113 253.956 639.566 264.978C652.079 270.192 612.691 260.611 599.135 260.611C581.851 260.611 564.472 259.247 548.515 267.08C513.925 284.061 494.725 316.275 531.049 342.121C556.161 359.989 589.755 376.903 616.763 351.824C637.35 332.708 643.292 315.898 650.402 290.045C652.634 281.928 657.048 274.94 659.782 267.08C661.802 261.273 654.244 278.071 651.857 283.738C645.068 299.863 643.986 316.632 638.758 333.064C634.217 347.334 641.547 349.472 652.99 356.676C661.689 362.153 680.581 372.877 691.48 367.997C710.143 359.64 727.814 343.886 744.364 332.094C760.735 320.43 776.585 308.42 787.221 291.016C793.677 280.452 795.783 268.151 802.1 257.539C808.681 246.482 818.266 236.58 822.8 224.385C827.907 210.649 827.804 195.254 829.431 180.881C831.308 164.301 837.133 148.406 840.914 132.202C846.286 109.176 855.469 84.3707 855.469 60.5581C855.469 37.8126 855.923 106.451 850.94 128.644C838.022 186.19 819.286 241.822 811.156 299.749C808.8 316.535 807.02 331.483 813.42 347.296C817.503 357.382 822.335 351.686 831.533 354.412C859.295 362.637 896.048 362.338 925.172 359.425C937.303 358.212 946.822 353.765 959.781 353.765C993.188 353.765 1017.59 346.37 1048.57 335.167C1082.02 323.067 1115.04 286.3 1094.17 248.967C1087.55 237.116 1075.9 246.146 1067.97 251.231C1050.69 262.326 1043.8 276.07 1038.86 295.544C1034.67 312.095 1017.89 360.522 1043.23 368.32C1076.93 378.689 1133.65 381.606 1165.66 364.762C1183.22 355.516 1179.15 310.317 1175.68 294.897C1158.27 217.485 1089.56 200.892 1021.24 180.396C956.87 161.086 894.313 147.457 827.167 141.582C784.349 137.836 741.448 139.867 698.758 135.598C679.572 133.68 661.729 138.348 642.963 138.348" stroke="black" stroke-width="21" stroke-linecap="round"/>
</svg>
