<svg width="1000" height="1000" viewBox="0 -50 1000 650" fill="none" xmlns="http://www.w3.org/2000/svg">
<path d="M24.6132 90.8312C12.2091 45.0558 46.6808 0 94.107 0H352.159C412.883 0 446.336 70.5488 407.906 117.566L244.776 317.146C239.266 323.886 244.062 334 252.767 334V334C255.772 334 258.628 332.691 260.588 330.414L523.597 25.0156C537.275 9.13349 557.194 0 578.154 0H904.163C965.806 0 998.945 72.4171 958.649 119.066L820.538 278.952C806.861 294.785 786.974 303.886 766.052 303.886H722.411C699.518 303.886 677.988 314.773 664.42 333.213L508.08 545.673C494.512 564.113 472.982 575 450.089 575H427.07C367.726 575 333.862 507.239 369.487 459.778L470.997 324.54C477.383 316.032 471.313 303.886 460.675 303.886V303.886C456.77 303.886 453.076 305.654 450.625 308.694L264.618 539.527C227.714 585.323 154.444 569.949 139.061 513.182L24.6132 90.8312Z" fill="#9A7AA8"/>
<path d="M576 55C576 38.9837 588.984 26 605 26H866.465C884.126 26 900.77 34.2647 911.444 48.3351V48.3351C927.292 69.2264 926.67 98.2801 909.941 118.474L793.899 258.551C787.629 266.119 778.312 270.5 768.483 270.5V270.5C745.205 270.5 729.241 247.051 737.776 225.394L756.75 177.25C774.395 132.478 741.393 84 693.27 84H605C588.984 84 576 71.0163 576 55V55Z" fill="#D9D9D9" fill-opacity="0.5"/>
</svg>
