<svg width="202" height="190" viewBox="0 0 202 190" fill="none" xmlns="http://www.w3.org/2000/svg">
<path d="M62.72 102.64V158H55.44V116.72L37.04 158H31.92L13.44 116.64V158H6.16V102.64H14L34.48 148.4L54.96 102.64H62.72ZM72.3463 135.92C72.3463 131.44 73.2529 127.52 75.0663 124.16C76.8796 120.747 79.3596 118.107 82.5063 116.24C85.7063 114.373 89.2529 113.44 93.1463 113.44C96.9863 113.44 100.32 114.267 103.146 115.92C105.973 117.573 108.08 119.653 109.466 122.16V114.16H116.826V158H109.466V149.84C108.026 152.4 105.866 154.533 102.986 156.24C100.16 157.893 96.8529 158.72 93.0663 158.72C89.1729 158.72 85.6529 157.76 82.5063 155.84C79.3596 153.92 76.8796 151.227 75.0663 147.76C73.2529 144.293 72.3463 140.347 72.3463 135.92ZM109.466 136C109.466 132.693 108.8 129.813 107.466 127.36C106.133 124.907 104.32 123.04 102.026 121.76C99.7863 120.427 97.3063 119.76 94.5863 119.76C91.8663 119.76 89.3863 120.4 87.1463 121.68C84.9063 122.96 83.1196 124.827 81.7863 127.28C80.4529 129.733 79.7863 132.613 79.7863 135.92C79.7863 139.28 80.4529 142.213 81.7863 144.72C83.1196 147.173 84.9063 149.067 87.1463 150.4C89.3863 151.68 91.8663 152.32 94.5863 152.32C97.3063 152.32 99.7863 151.68 102.026 150.4C104.32 149.067 106.133 147.173 107.466 144.72C108.8 142.213 109.466 139.307 109.466 136ZM103.786 101.76L86.7463 110.88V105.44L103.786 95.44V101.76ZM138.009 120.16V146C138.009 148.133 138.462 149.653 139.369 150.56C140.275 151.413 141.849 151.84 144.089 151.84H149.449V158H142.889C138.835 158 135.795 157.067 133.769 155.2C131.742 153.333 130.729 150.267 130.729 146V120.16H125.049V114.16H130.729V103.12H138.009V114.16H149.449V120.16H138.009ZM198.269 134.4C198.269 135.787 198.189 137.253 198.029 138.8H162.989C163.256 143.12 164.723 146.507 167.389 148.96C170.109 151.36 173.389 152.56 177.229 152.56C180.376 152.56 182.989 151.84 185.069 150.4C187.203 148.907 188.696 146.933 189.549 144.48H197.389C196.216 148.693 193.869 152.133 190.349 154.8C186.829 157.413 182.456 158.72 177.229 158.72C173.069 158.72 169.336 157.787 166.029 155.92C162.776 154.053 160.216 151.413 158.349 148C156.483 144.533 155.549 140.533 155.549 136C155.549 131.467 156.456 127.493 158.269 124.08C160.083 120.667 162.616 118.053 165.869 116.24C169.176 114.373 172.963 113.44 177.229 113.44C181.389 113.44 185.069 114.347 188.269 116.16C191.469 117.973 193.923 120.48 195.629 123.68C197.389 126.827 198.269 130.4 198.269 134.4ZM190.749 132.88C190.749 130.107 190.136 127.733 188.909 125.76C187.683 123.733 186.003 122.213 183.869 121.2C181.789 120.133 179.469 119.6 176.909 119.6C173.229 119.6 170.083 120.773 167.469 123.12C164.909 125.467 163.443 128.72 163.069 132.88H190.749ZM184.749 101.76L167.709 110.88V105.44L184.749 95.44V101.76Z" fill="#132438"/>
<path d="M24.549 62.999L15.87 86H12.405L3.726 62.999H6.927L14.154 82.832L21.381 62.999H24.549ZM26.7198 76.892C26.7198 75.044 27.0938 73.427 27.8418 72.041C28.5898 70.633 29.6128 69.544 30.9108 68.774C32.2308 68.004 33.6938 67.619 35.2998 67.619C36.8838 67.619 38.2588 67.96 39.4248 68.642C40.5908 69.324 41.4598 70.182 42.0318 71.216V67.916H45.0678V86H42.0318V82.634C41.4378 83.69 40.5468 84.57 39.3588 85.274C38.1928 85.956 36.8288 86.297 35.2668 86.297C33.6608 86.297 32.2088 85.901 30.9108 85.109C29.6128 84.317 28.5898 83.206 27.8418 81.776C27.0938 80.346 26.7198 78.718 26.7198 76.892ZM42.0318 76.925C42.0318 75.561 41.7568 74.373 41.2068 73.361C40.6568 72.349 39.9088 71.579 38.9628 71.051C38.0388 70.501 37.0158 70.226 35.8938 70.226C34.7718 70.226 33.7488 70.49 32.8248 71.018C31.9008 71.546 31.1638 72.316 30.6138 73.328C30.0638 74.34 29.7888 75.528 29.7888 76.892C29.7888 78.278 30.0638 79.488 30.6138 80.522C31.1638 81.534 31.9008 82.315 32.8248 82.865C33.7488 83.393 34.7718 83.657 35.8938 83.657C37.0158 83.657 38.0388 83.393 38.9628 82.865C39.9088 82.315 40.6568 81.534 41.2068 80.522C41.7568 79.488 42.0318 78.289 42.0318 76.925ZM53.1456 70.853C53.6736 69.819 54.4216 69.016 55.3896 68.444C56.3796 67.872 57.5786 67.586 58.9866 67.586V70.688H58.1946C54.8286 70.688 53.1456 72.514 53.1456 76.166V86H50.1426V67.916H53.1456V70.853ZM69.9111 67.619C71.4731 67.619 72.8371 67.96 74.0031 68.642C75.1911 69.324 76.0711 70.182 76.6431 71.216V67.916H79.6791V86.396C79.6791 88.046 79.3271 89.509 78.6231 90.785C77.9191 92.083 76.9071 93.095 75.5871 93.821C74.2891 94.547 72.7711 94.91 71.0331 94.91C68.6571 94.91 66.6771 94.349 65.0931 93.227C63.5091 92.105 62.5741 90.576 62.2881 88.64H65.2581C65.5881 89.74 66.2701 90.62 67.3041 91.28C68.3381 91.962 69.5811 92.303 71.0331 92.303C72.6831 92.303 74.0251 91.786 75.0591 90.752C76.1151 89.718 76.6431 88.266 76.6431 86.396V82.601C76.0491 83.657 75.1691 84.537 74.0031 85.241C72.8371 85.945 71.4731 86.297 69.9111 86.297C68.3051 86.297 66.8421 85.901 65.5221 85.109C64.2241 84.317 63.2011 83.206 62.4531 81.776C61.7051 80.346 61.3311 78.718 61.3311 76.892C61.3311 75.044 61.7051 73.427 62.4531 72.041C63.2011 70.633 64.2241 69.544 65.5221 68.774C66.8421 68.004 68.3051 67.619 69.9111 67.619ZM76.6431 76.925C76.6431 75.561 76.3681 74.373 75.8181 73.361C75.2681 72.349 74.5201 71.579 73.5741 71.051C72.6501 70.501 71.6271 70.226 70.5051 70.226C69.3831 70.226 68.3601 70.49 67.4361 71.018C66.5121 71.546 65.7751 72.316 65.2251 73.328C64.6751 74.34 64.4001 75.528 64.4001 76.892C64.4001 78.278 64.6751 79.488 65.2251 80.522C65.7751 81.534 66.5121 82.315 67.4361 82.865C68.3601 83.393 69.3831 83.657 70.5051 83.657C71.6271 83.657 72.6501 83.393 73.5741 82.865C74.5201 82.315 75.2681 81.534 75.8181 80.522C76.3681 79.488 76.6431 78.289 76.6431 76.925ZM83.6319 76.892C83.6319 75.044 84.0059 73.427 84.7539 72.041C85.5019 70.633 86.5249 69.544 87.8229 68.774C89.1429 68.004 90.6059 67.619 92.2119 67.619C93.7959 67.619 95.1709 67.96 96.3369 68.642C97.5029 69.324 98.3719 70.182 98.9439 71.216V67.916H101.98V86H98.9439V82.634C98.3499 83.69 97.4589 84.57 96.2709 85.274C95.1049 85.956 93.7409 86.297 92.1789 86.297C90.5729 86.297 89.1209 85.901 87.8229 85.109C86.5249 84.317 85.5019 83.206 84.7539 81.776C84.0059 80.346 83.6319 78.718 83.6319 76.892ZM98.9439 76.925C98.9439 75.561 98.6689 74.373 98.1189 73.361C97.5689 72.349 96.8209 71.579 95.8749 71.051C94.9509 70.501 93.9279 70.226 92.8059 70.226C91.6839 70.226 90.6609 70.49 89.7369 71.018C88.8129 71.546 88.0759 72.316 87.5259 73.328C86.9759 74.34 86.7009 75.528 86.7009 76.892C86.7009 78.278 86.9759 79.488 87.5259 80.522C88.0759 81.534 88.8129 82.315 89.7369 82.865C90.6609 83.393 91.6839 83.657 92.8059 83.657C93.9279 83.657 94.9509 83.393 95.8749 82.865C96.8209 82.315 97.5689 81.534 98.1189 80.522C98.6689 79.488 98.9439 78.289 98.9439 76.925ZM119.595 72.635V75.176H106.428V72.635H119.595ZM139.387 62.999V65.441H133.117V86H130.114V65.441H123.811V62.999H139.387ZM150.971 86.297C149.277 86.297 147.737 85.912 146.351 85.142C144.987 84.372 143.909 83.283 143.117 81.875C142.347 80.445 141.962 78.795 141.962 76.925C141.962 75.077 142.358 73.449 143.15 72.041C143.964 70.611 145.064 69.522 146.45 68.774C147.836 68.004 149.387 67.619 151.103 67.619C152.819 67.619 154.37 68.004 155.756 68.774C157.142 69.522 158.231 70.6 159.023 72.008C159.837 73.416 160.244 75.055 160.244 76.925C160.244 78.795 159.826 80.445 158.99 81.875C158.176 83.283 157.065 84.372 155.657 85.142C154.249 85.912 152.687 86.297 150.971 86.297ZM150.971 83.657C152.049 83.657 153.061 83.404 154.007 82.898C154.953 82.392 155.712 81.633 156.284 80.621C156.878 79.609 157.175 78.377 157.175 76.925C157.175 75.473 156.889 74.241 156.317 73.229C155.745 72.217 154.997 71.469 154.073 70.985C153.149 70.479 152.148 70.226 151.07 70.226C149.97 70.226 148.958 70.479 148.034 70.985C147.132 71.469 146.406 72.217 145.856 73.229C145.306 74.241 145.031 75.473 145.031 76.925C145.031 78.399 145.295 79.642 145.823 80.654C146.373 81.666 147.099 82.425 148.001 82.931C148.903 83.415 149.893 83.657 150.971 83.657ZM154.337 62.57L147.308 66.332V64.088L154.337 59.963V62.57ZM167.855 70.391V81.05C167.855 81.93 168.042 82.557 168.416 82.931C168.79 83.283 169.439 83.459 170.363 83.459H172.574V86H169.868C168.196 86 166.942 85.615 166.106 84.845C165.27 84.075 164.852 82.81 164.852 81.05V70.391H162.509V67.916H164.852V63.362H167.855V67.916H172.574V70.391H167.855ZM185.189 67.586C186.553 67.586 187.785 67.883 188.885 68.477C189.985 69.049 190.843 69.918 191.459 71.084C192.097 72.25 192.416 73.669 192.416 75.341V86H189.446V75.77C189.446 73.966 188.995 72.591 188.093 71.645C187.191 70.677 185.959 70.193 184.397 70.193C182.813 70.193 181.548 70.688 180.602 71.678C179.678 72.668 179.216 74.109 179.216 76.001V86H176.213V61.58H179.216V70.49C179.81 69.566 180.624 68.851 181.658 68.345C182.714 67.839 183.891 67.586 185.189 67.586Z" fill="#132438"/>
<path opacity="0.5" d="M8.32 8.06V16.88C8.32 18.12 8.62 19.04 9.22 19.64C9.83333 20.24 10.68 20.54 11.76 20.54C12.8267 20.54 13.66 20.24 14.26 19.64C14.8733 19.04 15.18 18.12 15.18 16.88V8.06H17V16.86C17 18.02 16.7667 19 16.3 19.8C15.8333 20.5867 15.2 21.1733 14.4 21.56C13.6133 21.9467 12.7267 22.14 11.74 22.14C10.7533 22.14 9.86 21.9467 9.06 21.56C8.27333 21.1733 7.64667 20.5867 7.18 19.8C6.72667 19 6.5 18.02 6.5 16.86V8.06H8.32ZM10.14 6.66C9.84667 6.66 9.59333 6.56 9.38 6.36C9.18 6.16 9.08 5.91333 9.08 5.62C9.08 5.32667 9.18 5.08 9.38 4.88C9.59333 4.66667 9.84667 4.56 10.14 4.56C10.42 4.56 10.66 4.66667 10.86 4.88C11.0733 5.08 11.18 5.32667 11.18 5.62C11.18 5.91333 11.0733 6.16 10.86 6.36C10.66 6.56 10.42 6.66 10.14 6.66ZM13.38 6.66C13.0867 6.66 12.84 6.56 12.64 6.36C12.44 6.16 12.34 5.91333 12.34 5.62C12.34 5.32667 12.44 5.08 12.64 4.88C12.84 4.66667 13.0867 4.56 13.38 4.56C13.6733 4.56 13.92 4.66667 14.12 4.88C14.3333 5.08 14.44 5.32667 14.44 5.62C14.44 5.91333 14.3333 6.16 14.12 6.36C13.92 6.56 13.6733 6.66 13.38 6.66ZM19.3561 16.48C19.3561 15.36 19.5828 14.38 20.0361 13.54C20.4894 12.6867 21.1094 12.0267 21.8961 11.56C22.6961 11.0933 23.5894 10.86 24.5761 10.86C25.4294 10.86 26.2228 11.06 26.9561 11.46C27.6894 11.8467 28.2494 12.36 28.6361 13V7.2H30.4761V22H28.6361V19.94C28.2761 20.5933 27.7428 21.1333 27.0361 21.56C26.3294 21.9733 25.5028 22.18 24.5561 22.18C23.5828 22.18 22.6961 21.94 21.8961 21.46C21.1094 20.98 20.4894 20.3067 20.0361 19.44C19.5828 18.5733 19.3561 17.5867 19.3561 16.48ZM28.6361 16.5C28.6361 15.6733 28.4694 14.9533 28.1361 14.34C27.8028 13.7267 27.3494 13.26 26.7761 12.94C26.2161 12.6067 25.5961 12.44 24.9161 12.44C24.2361 12.44 23.6161 12.6 23.0561 12.92C22.4961 13.24 22.0494 13.7067 21.7161 14.32C21.3828 14.9333 21.2161 15.6533 21.2161 16.48C21.2161 17.32 21.3828 18.0533 21.7161 18.68C22.0494 19.2933 22.4961 19.7667 23.0561 20.1C23.6161 20.42 24.2361 20.58 24.9161 20.58C25.5961 20.58 26.2161 20.42 26.7761 20.1C27.3494 19.7667 27.8028 19.2933 28.1361 18.68C28.4694 18.0533 28.6361 17.3267 28.6361 16.5ZM37.6317 20.32L41.0317 11.04H42.9717L38.6717 22H36.5517L32.2517 11.04H34.2117L37.6317 20.32ZM47.1227 8.06L46.9027 18.06H45.3827L45.1627 8.06H47.1227ZM46.2227 22.12C45.876 22.12 45.5827 22 45.3427 21.76C45.1027 21.52 44.9827 21.2267 44.9827 20.88C44.9827 20.5333 45.1027 20.24 45.3427 20C45.5827 19.76 45.876 19.64 46.2227 19.64C46.556 19.64 46.836 19.76 47.0627 20C47.3027 20.24 47.4227 20.5333 47.4227 20.88C47.4227 21.2267 47.3027 21.52 47.0627 21.76C46.836 22 46.556 22.12 46.2227 22.12ZM67.0117 22H65.1917L57.8717 10.9V22H56.0517V8.04H57.8717L65.1917 19.12V8.04H67.0117V22ZM80.1142 16.1C80.1142 16.4467 80.0942 16.8133 80.0542 17.2H71.2942C71.3609 18.28 71.7276 19.1267 72.3942 19.74C73.0742 20.34 73.8942 20.64 74.8542 20.64C75.6409 20.64 76.2942 20.46 76.8142 20.1C77.3476 19.7267 77.7209 19.2333 77.9342 18.62H79.8942C79.6009 19.6733 79.0142 20.5333 78.1342 21.2C77.2542 21.8533 76.1609 22.18 74.8542 22.18C73.8142 22.18 72.8809 21.9467 72.0542 21.48C71.2409 21.0133 70.6009 20.3533 70.1342 19.5C69.6676 18.6333 69.4342 17.6333 69.4342 16.5C69.4342 15.3667 69.6609 14.3733 70.1142 13.52C70.5676 12.6667 71.2009 12.0133 72.0142 11.56C72.8409 11.0933 73.7876 10.86 74.8542 10.86C75.8942 10.86 76.8142 11.0867 77.6142 11.54C78.4142 11.9933 79.0276 12.62 79.4542 13.42C79.8942 14.2067 80.1142 15.1 80.1142 16.1ZM78.2342 15.72C78.2342 15.0267 78.0809 14.4333 77.7742 13.94C77.4676 13.4333 77.0476 13.0533 76.5142 12.8C75.9942 12.5333 75.4142 12.4 74.7742 12.4C73.8542 12.4 73.0676 12.6933 72.4142 13.28C71.7742 13.8667 71.4076 14.68 71.3142 15.72H78.2342ZM86.5966 20.32L89.9966 11.04H91.9366L87.6366 22H85.5166L81.2166 11.04H83.1766L86.5966 20.32ZM103.728 16.1C103.728 16.4467 103.708 16.8133 103.668 17.2H94.9075C94.9742 18.28 95.3408 19.1267 96.0075 19.74C96.6875 20.34 97.5075 20.64 98.4675 20.64C99.2542 20.64 99.9075 20.46 100.428 20.1C100.961 19.7267 101.334 19.2333 101.548 18.62H103.508C103.214 19.6733 102.628 20.5333 101.748 21.2C100.868 21.8533 99.7742 22.18 98.4675 22.18C97.4275 22.18 96.4942 21.9467 95.6675 21.48C94.8542 21.0133 94.2142 20.3533 93.7475 19.5C93.2808 18.6333 93.0475 17.6333 93.0475 16.5C93.0475 15.3667 93.2742 14.3733 93.7275 13.52C94.1808 12.6667 94.8142 12.0133 95.6275 11.56C96.4542 11.0933 97.4008 10.86 98.4675 10.86C99.5075 10.86 100.428 11.0867 101.228 11.54C102.028 11.9933 102.641 12.62 103.068 13.42C103.508 14.2067 103.728 15.1 103.728 16.1ZM101.848 15.72C101.848 15.0267 101.694 14.4333 101.388 13.94C101.081 13.4333 100.661 13.0533 100.128 12.8C99.6075 12.5333 99.0275 12.4 98.3875 12.4C97.4675 12.4 96.6808 12.6933 96.0275 13.28C95.3875 13.8667 95.0208 14.68 94.9275 15.72H101.848ZM119.31 10.84C120.163 10.84 120.923 11.02 121.59 11.38C122.257 11.7267 122.783 12.2533 123.17 12.96C123.557 13.6667 123.75 14.5267 123.75 15.54V22H121.95V15.8C121.95 14.7067 121.677 13.8733 121.13 13.3C120.597 12.7133 119.87 12.42 118.95 12.42C118.003 12.42 117.25 12.7267 116.69 13.34C116.13 13.94 115.85 14.8133 115.85 15.96V22H114.05V15.8C114.05 14.7067 113.777 13.8733 113.23 13.3C112.697 12.7133 111.97 12.42 111.05 12.42C110.103 12.42 109.35 12.7267 108.79 13.34C108.23 13.94 107.95 14.8133 107.95 15.96V22H106.13V11.04H107.95V12.62C108.31 12.0467 108.79 11.6067 109.39 11.3C110.003 10.9933 110.677 10.84 111.41 10.84C112.33 10.84 113.143 11.0467 113.85 11.46C114.557 11.8733 115.083 12.48 115.43 13.28C115.737 12.5067 116.243 11.9067 116.95 11.48C117.657 11.0533 118.443 10.84 119.31 10.84Z" fill="#132438"/>
<path d="M5.688 167.656C5.944 167.155 6.30667 166.765 6.776 166.488C7.256 166.211 7.83733 166.072 8.52 166.072V167.576H8.136C6.504 167.576 5.688 168.461 5.688 170.232V175H4.232V166.232H5.688V167.656ZM14.0248 175.144C13.2034 175.144 12.4568 174.957 11.7848 174.584C11.1234 174.211 10.6008 173.683 10.2168 173C9.84342 172.307 9.65675 171.507 9.65675 170.6C9.65675 169.704 9.84875 168.915 10.2328 168.232C10.6274 167.539 11.1608 167.011 11.8328 166.648C12.5048 166.275 13.2568 166.088 14.0888 166.088C14.9208 166.088 15.6728 166.275 16.3448 166.648C17.0168 167.011 17.5448 167.533 17.9288 168.216C18.3234 168.899 18.5208 169.693 18.5208 170.6C18.5208 171.507 18.3181 172.307 17.9128 173C17.5181 173.683 16.9794 174.211 16.2968 174.584C15.6141 174.957 14.8568 175.144 14.0248 175.144ZM14.0248 173.864C14.5474 173.864 15.0381 173.741 15.4968 173.496C15.9554 173.251 16.3234 172.883 16.6008 172.392C16.8888 171.901 17.0328 171.304 17.0328 170.6C17.0328 169.896 16.8941 169.299 16.6168 168.808C16.3394 168.317 15.9768 167.955 15.5288 167.72C15.0808 167.475 14.5954 167.352 14.0728 167.352C13.5394 167.352 13.0488 167.475 12.6008 167.72C12.1634 167.955 11.8114 168.317 11.5448 168.808C11.2781 169.299 11.1448 169.896 11.1448 170.6C11.1448 171.315 11.2728 171.917 11.5288 172.408C11.7954 172.899 12.1474 173.267 12.5848 173.512C13.0221 173.747 13.5021 173.864 14.0248 173.864ZM12.8088 164.936C12.5741 164.936 12.3714 164.856 12.2008 164.696C12.0408 164.536 11.9608 164.339 11.9608 164.104C11.9608 163.869 12.0408 163.672 12.2008 163.512C12.3714 163.341 12.5741 163.256 12.8088 163.256C13.0328 163.256 13.2248 163.341 13.3848 163.512C13.5554 163.672 13.6408 163.869 13.6408 164.104C13.6408 164.339 13.5554 164.536 13.3848 164.696C13.2248 164.856 13.0328 164.936 12.8088 164.936ZM15.4008 164.936C15.1661 164.936 14.9688 164.856 14.8088 164.696C14.6488 164.536 14.5688 164.339 14.5688 164.104C14.5688 163.869 14.6488 163.672 14.8088 163.512C14.9688 163.341 15.1661 163.256 15.4008 163.256C15.6354 163.256 15.8328 163.341 15.9928 163.512C16.1634 163.672 16.2488 163.869 16.2488 164.104C16.2488 164.339 16.1634 164.536 15.9928 164.696C15.8328 164.856 15.6354 164.936 15.4008 164.936ZM23.6991 173.656L26.4191 166.232H27.9711L24.5311 175H22.8351L19.3951 166.232H20.9631L23.6991 173.656ZM30.1559 164.808C29.8785 164.808 29.6439 164.712 29.4519 164.52C29.2599 164.328 29.1639 164.093 29.1639 163.816C29.1639 163.539 29.2599 163.304 29.4519 163.112C29.6439 162.92 29.8785 162.824 30.1559 162.824C30.4225 162.824 30.6465 162.92 30.8279 163.112C31.0199 163.304 31.1159 163.539 31.1159 163.816C31.1159 164.093 31.0199 164.328 30.8279 164.52C30.6465 164.712 30.4225 164.808 30.1559 164.808ZM30.8599 166.232V175H29.4039V166.232H30.8599ZM32.7974 170.584C32.7974 169.688 32.9787 168.904 33.3414 168.232C33.704 167.549 34.2 167.021 34.8294 166.648C35.4694 166.275 36.184 166.088 36.9734 166.088C37.656 166.088 38.2907 166.248 38.8774 166.568C39.464 166.877 39.912 167.288 40.2214 167.8V163.16H41.6934V175H40.2214V173.352C39.9334 173.875 39.5067 174.307 38.9414 174.648C38.376 174.979 37.7147 175.144 36.9574 175.144C36.1787 175.144 35.4694 174.952 34.8294 174.568C34.2 174.184 33.704 173.645 33.3414 172.952C32.9787 172.259 32.7974 171.469 32.7974 170.584ZM40.2214 170.6C40.2214 169.939 40.088 169.363 39.8214 168.872C39.5547 168.381 39.192 168.008 38.7334 167.752C38.2854 167.485 37.7894 167.352 37.2454 167.352C36.7014 167.352 36.2054 167.48 35.7574 167.736C35.3094 167.992 34.952 168.365 34.6854 168.856C34.4187 169.347 34.2854 169.923 34.2854 170.584C34.2854 171.256 34.4187 171.843 34.6854 172.344C34.952 172.835 35.3094 173.213 35.7574 173.48C36.2054 173.736 36.7014 173.864 37.2454 173.864C37.7894 173.864 38.2854 173.736 38.7334 173.48C39.192 173.213 39.5547 172.835 39.8214 172.344C40.088 171.843 40.2214 171.261 40.2214 170.6ZM52.1539 170.28C52.1539 170.557 52.1379 170.851 52.1059 171.16H45.0979C45.1512 172.024 45.4445 172.701 45.9779 173.192C46.5219 173.672 47.1779 173.912 47.9459 173.912C48.5752 173.912 49.0979 173.768 49.5139 173.48C49.9405 173.181 50.2392 172.787 50.4099 172.296H51.9779C51.7432 173.139 51.2739 173.827 50.5699 174.36C49.8659 174.883 48.9912 175.144 47.9459 175.144C47.1139 175.144 46.3672 174.957 45.7059 174.584C45.0552 174.211 44.5432 173.683 44.1699 173C43.7965 172.307 43.6099 171.507 43.6099 170.6C43.6099 169.693 43.7912 168.899 44.1539 168.216C44.5165 167.533 45.0232 167.011 45.6739 166.648C46.3352 166.275 47.0925 166.088 47.9459 166.088C48.7779 166.088 49.5139 166.269 50.1539 166.632C50.7939 166.995 51.2845 167.496 51.6259 168.136C51.9779 168.765 52.1539 169.48 52.1539 170.28ZM50.6499 169.976C50.6499 169.421 50.5272 168.947 50.2819 168.552C50.0365 168.147 49.7005 167.843 49.2739 167.64C48.8579 167.427 48.3939 167.32 47.8819 167.32C47.1459 167.32 46.5165 167.555 45.9939 168.024C45.4819 168.493 45.1885 169.144 45.1139 169.976H50.6499ZM55.5318 167.864C55.8304 167.341 56.2678 166.915 56.8438 166.584C57.4198 166.253 58.0758 166.088 58.8118 166.088C59.6011 166.088 60.3104 166.275 60.9398 166.648C61.5691 167.021 62.0651 167.549 62.4278 168.232C62.7904 168.904 62.9718 169.688 62.9718 170.584C62.9718 171.469 62.7904 172.259 62.4278 172.952C62.0651 173.645 61.5637 174.184 60.9237 174.568C60.2944 174.952 59.5904 175.144 58.8118 175.144C58.0544 175.144 57.3878 174.979 56.8118 174.648C56.2464 174.317 55.8198 173.896 55.5318 173.384V175H54.0758V163.16H55.5318V167.864ZM61.4838 170.584C61.4838 169.923 61.3504 169.347 61.0838 168.856C60.8171 168.365 60.4544 167.992 59.9958 167.736C59.5478 167.48 59.0518 167.352 58.5078 167.352C57.9744 167.352 57.4784 167.485 57.0198 167.752C56.5718 168.008 56.2091 168.387 55.9318 168.888C55.6651 169.379 55.5318 169.949 55.5318 170.6C55.5318 171.261 55.6651 171.843 55.9318 172.344C56.2091 172.835 56.5718 173.213 57.0198 173.48C57.4784 173.736 57.9744 173.864 58.5078 173.864C59.0518 173.864 59.5478 173.736 59.9958 173.48C60.4544 173.213 60.8171 172.835 61.0838 172.344C61.3504 171.843 61.4838 171.256 61.4838 170.584ZM66.3443 167.864C66.6429 167.341 67.0803 166.915 67.6562 166.584C68.2323 166.253 68.8883 166.088 69.6243 166.088C70.4136 166.088 71.1229 166.275 71.7523 166.648C72.3816 167.021 72.8776 167.549 73.2403 168.232C73.6029 168.904 73.7843 169.688 73.7843 170.584C73.7843 171.469 73.6029 172.259 73.2403 172.952C72.8776 173.645 72.3762 174.184 71.7362 174.568C71.1069 174.952 70.4029 175.144 69.6243 175.144C68.8669 175.144 68.2003 174.979 67.6243 174.648C67.0589 174.317 66.6323 173.896 66.3443 173.384V175H64.8883V163.16H66.3443V167.864ZM72.2963 170.584C72.2963 169.923 72.1629 169.347 71.8963 168.856C71.6296 168.365 71.2669 167.992 70.8083 167.736C70.3603 167.48 69.8643 167.352 69.3203 167.352C68.7869 167.352 68.2909 167.485 67.8323 167.752C67.3843 168.008 67.0216 168.387 66.7443 168.888C66.4776 169.379 66.3443 169.949 66.3443 170.6C66.3443 171.261 66.4776 171.843 66.7443 172.344C67.0216 172.835 67.3843 173.213 67.8323 173.48C68.2909 173.736 68.7869 173.864 69.3203 173.864C69.8643 173.864 70.3603 173.736 70.8083 173.48C71.2669 173.213 71.6296 172.835 71.8963 172.344C72.1629 171.843 72.2963 171.256 72.2963 170.584ZM83.7008 170.28C83.7008 170.557 83.6848 170.851 83.6528 171.16H76.6448C76.6981 172.024 76.9914 172.701 77.5248 173.192C78.0688 173.672 78.7248 173.912 79.4928 173.912C80.1221 173.912 80.6448 173.768 81.0608 173.48C81.4874 173.181 81.7861 172.787 81.9568 172.296H83.5248C83.2901 173.139 82.8208 173.827 82.1168 174.36C81.4128 174.883 80.5381 175.144 79.4928 175.144C78.6608 175.144 77.9141 174.957 77.2528 174.584C76.6021 174.211 76.0901 173.683 75.7168 173C75.3434 172.307 75.1568 171.507 75.1568 170.6C75.1568 169.693 75.3381 168.899 75.7008 168.216C76.0634 167.533 76.5701 167.011 77.2208 166.648C77.8821 166.275 78.6394 166.088 79.4928 166.088C80.3248 166.088 81.0608 166.269 81.7008 166.632C82.3408 166.995 82.8314 167.496 83.1728 168.136C83.5248 168.765 83.7008 169.48 83.7008 170.28ZM82.1968 169.976C82.1968 169.421 82.0741 168.947 81.8288 168.552C81.5834 168.147 81.2474 167.843 80.8208 167.64C80.4048 167.427 79.9408 167.32 79.4288 167.32C78.6928 167.32 78.0634 167.555 77.5408 168.024C77.0288 168.493 76.7354 169.144 76.6608 169.976H82.1968ZM89.8946 166.072C90.9613 166.072 91.8253 166.397 92.4866 167.048C93.148 167.688 93.4786 168.616 93.4786 169.832V175H92.0386V170.04C92.0386 169.165 91.82 168.499 91.3826 168.04C90.9453 167.571 90.348 167.336 89.5906 167.336C88.8226 167.336 88.2093 167.576 87.7506 168.056C87.3026 168.536 87.0786 169.235 87.0786 170.152V175H85.6226V166.232H87.0786V167.48C87.3666 167.032 87.756 166.685 88.2466 166.44C88.748 166.195 89.2973 166.072 89.8946 166.072ZM99.5786 170.6C99.5786 169.693 99.76 168.904 100.123 168.232C100.485 167.549 100.987 167.021 101.627 166.648C102.277 166.275 103.019 166.088 103.851 166.088C104.928 166.088 105.813 166.349 106.507 166.872C107.211 167.395 107.675 168.12 107.899 169.048H106.331C106.181 168.515 105.888 168.093 105.451 167.784C105.024 167.475 104.491 167.32 103.851 167.32C103.019 167.32 102.347 167.608 101.835 168.184C101.323 168.749 101.067 169.555 101.067 170.6C101.067 171.656 101.323 172.472 101.835 173.048C102.347 173.624 103.019 173.912 103.851 173.912C104.491 173.912 105.024 173.763 105.451 173.464C105.877 173.165 106.171 172.739 106.331 172.184H107.899C107.664 173.08 107.195 173.8 106.491 174.344C105.787 174.877 104.907 175.144 103.851 175.144C103.019 175.144 102.277 174.957 101.627 174.584C100.987 174.211 100.485 173.683 100.123 173C99.76 172.317 99.5786 171.517 99.5786 170.6ZM112.945 175.144C112.273 175.144 111.671 175.032 111.137 174.808C110.604 174.573 110.183 174.253 109.873 173.848C109.564 173.432 109.393 172.957 109.361 172.424H110.865C110.908 172.861 111.111 173.219 111.473 173.496C111.847 173.773 112.332 173.912 112.929 173.912C113.484 173.912 113.921 173.789 114.241 173.544C114.561 173.299 114.721 172.989 114.721 172.616C114.721 172.232 114.551 171.949 114.209 171.768C113.868 171.576 113.34 171.389 112.625 171.208C111.975 171.037 111.441 170.867 111.025 170.696C110.62 170.515 110.268 170.253 109.969 169.912C109.681 169.56 109.537 169.101 109.537 168.536C109.537 168.088 109.671 167.677 109.937 167.304C110.204 166.931 110.583 166.637 111.073 166.424C111.564 166.2 112.124 166.088 112.753 166.088C113.724 166.088 114.508 166.333 115.105 166.824C115.703 167.315 116.023 167.987 116.065 168.84H114.609C114.577 168.381 114.391 168.013 114.049 167.736C113.719 167.459 113.271 167.32 112.705 167.32C112.183 167.32 111.767 167.432 111.457 167.656C111.148 167.88 110.993 168.173 110.993 168.536C110.993 168.824 111.084 169.064 111.265 169.256C111.457 169.437 111.692 169.587 111.969 169.704C112.257 169.811 112.652 169.933 113.153 170.072C113.783 170.243 114.295 170.413 114.689 170.584C115.084 170.744 115.42 170.989 115.697 171.32C115.985 171.651 116.135 172.083 116.145 172.616C116.145 173.096 116.012 173.528 115.745 173.912C115.479 174.296 115.1 174.6 114.609 174.824C114.129 175.037 113.575 175.144 112.945 175.144ZM117.657 170.584C117.657 169.688 117.838 168.904 118.201 168.232C118.563 167.549 119.059 167.021 119.689 166.648C120.329 166.275 121.038 166.088 121.817 166.088C122.585 166.088 123.251 166.253 123.817 166.584C124.382 166.915 124.803 167.331 125.081 167.832V166.232H126.553V175H125.081V173.368C124.793 173.88 124.361 174.307 123.785 174.648C123.219 174.979 122.558 175.144 121.801 175.144C121.022 175.144 120.318 174.952 119.689 174.568C119.059 174.184 118.563 173.645 118.201 172.952C117.838 172.259 117.657 171.469 117.657 170.584ZM125.081 170.6C125.081 169.939 124.947 169.363 124.681 168.872C124.414 168.381 124.051 168.008 123.593 167.752C123.145 167.485 122.649 167.352 122.105 167.352C121.561 167.352 121.065 167.48 120.617 167.736C120.169 167.992 119.811 168.365 119.545 168.856C119.278 169.347 119.145 169.923 119.145 170.584C119.145 171.256 119.278 171.843 119.545 172.344C119.811 172.835 120.169 173.213 120.617 173.48C121.065 173.736 121.561 173.864 122.105 173.864C122.649 173.864 123.145 173.736 123.593 173.48C124.051 173.213 124.414 172.835 124.681 172.344C124.947 171.843 125.081 171.261 125.081 170.6ZM133.909 175L130.469 171.128V175H129.013V163.16H130.469V170.12L133.845 166.232H135.877L131.749 170.6L135.893 175H133.909ZM144.777 173.656L147.497 166.232H149.049L145.609 175H143.913L140.473 166.232H142.041L144.777 173.656ZM152.258 167.432V172.6C152.258 173.027 152.349 173.331 152.53 173.512C152.711 173.683 153.026 173.768 153.474 173.768H154.546V175H153.234C152.423 175 151.815 174.813 151.41 174.44C151.005 174.067 150.802 173.453 150.802 172.6V167.432H149.666V166.232H150.802V164.024H152.258V166.232H154.546V167.432H152.258ZM166.854 166.072C167.537 166.072 168.145 166.216 168.678 166.504C169.211 166.781 169.633 167.203 169.942 167.768C170.251 168.333 170.406 169.021 170.406 169.832V175H168.966V170.04C168.966 169.165 168.747 168.499 168.31 168.04C167.883 167.571 167.302 167.336 166.566 167.336C165.809 167.336 165.206 167.581 164.758 168.072C164.31 168.552 164.086 169.251 164.086 170.168V175H162.646V170.04C162.646 169.165 162.427 168.499 161.99 168.04C161.563 167.571 160.982 167.336 160.246 167.336C159.489 167.336 158.886 167.581 158.438 168.072C157.99 168.552 157.766 169.251 157.766 170.168V175H156.31V166.232H157.766V167.496C158.054 167.037 158.438 166.685 158.918 166.44C159.409 166.195 159.947 166.072 160.534 166.072C161.27 166.072 161.921 166.237 162.486 166.568C163.051 166.899 163.473 167.384 163.75 168.024C163.995 167.405 164.401 166.925 164.966 166.584C165.531 166.243 166.161 166.072 166.854 166.072ZM172.251 170.584C172.251 169.688 172.432 168.904 172.795 168.232C173.157 167.549 173.653 167.021 174.283 166.648C174.923 166.275 175.632 166.088 176.411 166.088C177.179 166.088 177.845 166.253 178.411 166.584C178.976 166.915 179.397 167.331 179.675 167.832V166.232H181.147V175H179.675V173.368C179.387 173.88 178.955 174.307 178.379 174.648C177.813 174.979 177.152 175.144 176.395 175.144C175.616 175.144 174.912 174.952 174.283 174.568C173.653 174.184 173.157 173.645 172.795 172.952C172.432 172.259 172.251 171.469 172.251 170.584ZM179.675 170.6C179.675 169.939 179.541 169.363 179.275 168.872C179.008 168.381 178.645 168.008 178.187 167.752C177.739 167.485 177.243 167.352 176.699 167.352C176.155 167.352 175.659 167.48 175.211 167.736C174.763 167.992 174.405 168.365 174.139 168.856C173.872 169.347 173.739 169.923 173.739 170.584C173.739 171.256 173.872 171.843 174.139 172.344C174.405 172.835 174.763 173.213 175.211 173.48C175.659 173.736 176.155 173.864 176.699 173.864C177.243 173.864 177.739 173.736 178.187 173.48C178.645 173.213 179.008 172.835 179.275 172.344C179.541 171.843 179.675 171.261 179.675 170.6ZM185.383 167.432V172.6C185.383 173.027 185.474 173.331 185.655 173.512C185.836 173.683 186.151 173.768 186.599 173.768H187.671V175H186.359C185.548 175 184.94 174.813 184.535 174.44C184.13 174.067 183.927 173.453 183.927 172.6V167.432H182.791V166.232H183.927V164.024H185.383V166.232H187.671V167.432H185.383ZM197.435 170.28C197.435 170.557 197.419 170.851 197.387 171.16H190.379C190.432 172.024 190.726 172.701 191.259 173.192C191.803 173.672 192.459 173.912 193.227 173.912C193.856 173.912 194.379 173.768 194.795 173.48C195.222 173.181 195.52 172.787 195.691 172.296H197.259C197.024 173.139 196.555 173.827 195.851 174.36C195.147 174.883 194.272 175.144 193.227 175.144C192.395 175.144 191.648 174.957 190.987 174.584C190.336 174.211 189.824 173.683 189.451 173C189.078 172.307 188.891 171.507 188.891 170.6C188.891 169.693 189.072 168.899 189.435 168.216C189.798 167.533 190.304 167.011 190.955 166.648C191.616 166.275 192.374 166.088 193.227 166.088C194.059 166.088 194.795 166.269 195.435 166.632C196.075 166.995 196.566 167.496 196.907 168.136C197.259 168.765 197.435 169.48 197.435 170.28ZM195.931 169.976C195.931 169.421 195.808 168.947 195.563 168.552C195.318 168.147 194.982 167.843 194.555 167.64C194.139 167.427 193.675 167.32 193.163 167.32C192.427 167.32 191.798 167.555 191.275 168.024C190.763 168.493 190.47 169.144 190.395 169.976H195.931Z" fill="#132438" fill-opacity="0.454902"/>
</svg>
