<svg width="202" height="181" viewBox="0 0 202 181" fill="none" xmlns="http://www.w3.org/2000/svg">
<path d="M62.72 70.64V126H55.44V84.72L37.04 126H31.92L13.44 84.64V126H6.16V70.64H14L34.48 116.4L54.96 70.64H62.72ZM72.3463 103.92C72.3463 99.44 73.2529 95.52 75.0663 92.16C76.8796 88.7467 79.3596 86.1067 82.5063 84.24C85.7063 82.3733 89.2529 81.44 93.1463 81.44C96.9863 81.44 100.32 82.2667 103.146 83.92C105.973 85.5733 108.08 87.6533 109.466 90.16V82.16H116.826V126H109.466V117.84C108.026 120.4 105.866 122.533 102.986 124.24C100.16 125.893 96.8529 126.72 93.0663 126.72C89.1729 126.72 85.6529 125.76 82.5063 123.84C79.3596 121.92 76.8796 119.227 75.0663 115.76C73.2529 112.293 72.3463 108.347 72.3463 103.92ZM109.466 104C109.466 100.693 108.8 97.8133 107.466 95.36C106.133 92.9067 104.32 91.04 102.026 89.76C99.7863 88.4267 97.3063 87.76 94.5863 87.76C91.8663 87.76 89.3863 88.4 87.1463 89.68C84.9063 90.96 83.1196 92.8267 81.7863 95.28C80.4529 97.7333 79.7863 100.613 79.7863 103.92C79.7863 107.28 80.4529 110.213 81.7863 112.72C83.1196 115.173 84.9063 117.067 87.1463 118.4C89.3863 119.68 91.8663 120.32 94.5863 120.32C97.3063 120.32 99.7863 119.68 102.026 118.4C104.32 117.067 106.133 115.173 107.466 112.72C108.8 110.213 109.466 107.307 109.466 104ZM103.786 69.76L86.7463 78.88V73.44L103.786 63.44V69.76ZM138.009 88.16V114C138.009 116.133 138.462 117.653 139.369 118.56C140.275 119.413 141.849 119.84 144.089 119.84H149.449V126H142.889C138.835 126 135.795 125.067 133.769 123.2C131.742 121.333 130.729 118.267 130.729 114V88.16H125.049V82.16H130.729V71.12H138.009V82.16H149.449V88.16H138.009ZM198.269 102.4C198.269 103.787 198.189 105.253 198.029 106.8H162.989C163.256 111.12 164.723 114.507 167.389 116.96C170.109 119.36 173.389 120.56 177.229 120.56C180.376 120.56 182.989 119.84 185.069 118.4C187.203 116.907 188.696 114.933 189.549 112.48H197.389C196.216 116.693 193.869 120.133 190.349 122.8C186.829 125.413 182.456 126.72 177.229 126.72C173.069 126.72 169.336 125.787 166.029 123.92C162.776 122.053 160.216 119.413 158.349 116C156.483 112.533 155.549 108.533 155.549 104C155.549 99.4667 156.456 95.4933 158.269 92.08C160.083 88.6667 162.616 86.0533 165.869 84.24C169.176 82.3733 172.963 81.44 177.229 81.44C181.389 81.44 185.069 82.3467 188.269 84.16C191.469 85.9733 193.923 88.48 195.629 91.68C197.389 94.8267 198.269 98.4 198.269 102.4ZM190.749 100.88C190.749 98.1067 190.136 95.7333 188.909 93.76C187.683 91.7333 186.003 90.2133 183.869 89.2C181.789 88.1333 179.469 87.6 176.909 87.6C173.229 87.6 170.083 88.7733 167.469 91.12C164.909 93.4667 163.443 96.72 163.069 100.88H190.749ZM184.749 69.76L167.709 78.88V73.44L184.749 63.44V69.76Z" fill="#DBE4EC"/>
<path d="M26.549 134.999L17.87 158H14.405L5.726 134.999H8.927L16.154 154.832L23.381 134.999H26.549ZM28.7198 148.892C28.7198 147.044 29.0938 145.427 29.8418 144.041C30.5898 142.633 31.6128 141.544 32.9108 140.774C34.2308 140.004 35.6938 139.619 37.2998 139.619C38.8838 139.619 40.2588 139.96 41.4248 140.642C42.5908 141.324 43.4598 142.182 44.0318 143.216V139.916H47.0678V158H44.0318V154.634C43.4378 155.69 42.5468 156.57 41.3588 157.274C40.1928 157.956 38.8288 158.297 37.2668 158.297C35.6608 158.297 34.2088 157.901 32.9108 157.109C31.6128 156.317 30.5898 155.206 29.8418 153.776C29.0938 152.346 28.7198 150.718 28.7198 148.892ZM44.0318 148.925C44.0318 147.561 43.7568 146.373 43.2068 145.361C42.6568 144.349 41.9088 143.579 40.9628 143.051C40.0388 142.501 39.0158 142.226 37.8938 142.226C36.7718 142.226 35.7488 142.49 34.8248 143.018C33.9008 143.546 33.1638 144.316 32.6138 145.328C32.0638 146.34 31.7888 147.528 31.7888 148.892C31.7888 150.278 32.0638 151.488 32.6138 152.522C33.1638 153.534 33.9008 154.315 34.8248 154.865C35.7488 155.393 36.7718 155.657 37.8938 155.657C39.0158 155.657 40.0388 155.393 40.9628 154.865C41.9088 154.315 42.6568 153.534 43.2068 152.522C43.7568 151.488 44.0318 150.289 44.0318 148.925ZM55.1456 142.853C55.6736 141.819 56.4216 141.016 57.3896 140.444C58.3796 139.872 59.5786 139.586 60.9866 139.586V142.688H60.1946C56.8286 142.688 55.1456 144.514 55.1456 148.166V158H52.1426V139.916H55.1456V142.853ZM71.9111 139.619C73.4731 139.619 74.8371 139.96 76.0031 140.642C77.1911 141.324 78.0711 142.182 78.6431 143.216V139.916H81.6791V158.396C81.6791 160.046 81.3271 161.509 80.6231 162.785C79.9191 164.083 78.9071 165.095 77.5871 165.821C76.2891 166.547 74.7711 166.91 73.0331 166.91C70.6571 166.91 68.6771 166.349 67.0931 165.227C65.5091 164.105 64.5741 162.576 64.2881 160.64H67.2581C67.5881 161.74 68.2701 162.62 69.3041 163.28C70.3381 163.962 71.5811 164.303 73.0331 164.303C74.6831 164.303 76.0251 163.786 77.0591 162.752C78.1151 161.718 78.6431 160.266 78.6431 158.396V154.601C78.0491 155.657 77.1691 156.537 76.0031 157.241C74.8371 157.945 73.4731 158.297 71.9111 158.297C70.3051 158.297 68.8421 157.901 67.5221 157.109C66.2241 156.317 65.2011 155.206 64.4531 153.776C63.7051 152.346 63.3311 150.718 63.3311 148.892C63.3311 147.044 63.7051 145.427 64.4531 144.041C65.2011 142.633 66.2241 141.544 67.5221 140.774C68.8421 140.004 70.3051 139.619 71.9111 139.619ZM78.6431 148.925C78.6431 147.561 78.3681 146.373 77.8181 145.361C77.2681 144.349 76.5201 143.579 75.5741 143.051C74.6501 142.501 73.6271 142.226 72.5051 142.226C71.3831 142.226 70.3601 142.49 69.4361 143.018C68.5121 143.546 67.7751 144.316 67.2251 145.328C66.6751 146.34 66.4001 147.528 66.4001 148.892C66.4001 150.278 66.6751 151.488 67.2251 152.522C67.7751 153.534 68.5121 154.315 69.4361 154.865C70.3601 155.393 71.3831 155.657 72.5051 155.657C73.6271 155.657 74.6501 155.393 75.5741 154.865C76.5201 154.315 77.2681 153.534 77.8181 152.522C78.3681 151.488 78.6431 150.289 78.6431 148.925ZM85.6319 148.892C85.6319 147.044 86.0059 145.427 86.7539 144.041C87.5019 142.633 88.5249 141.544 89.8229 140.774C91.1429 140.004 92.6059 139.619 94.2119 139.619C95.7959 139.619 97.1709 139.96 98.3369 140.642C99.5029 141.324 100.372 142.182 100.944 143.216V139.916H103.98V158H100.944V154.634C100.35 155.69 99.4589 156.57 98.2709 157.274C97.1049 157.956 95.7409 158.297 94.1789 158.297C92.5729 158.297 91.1209 157.901 89.8229 157.109C88.5249 156.317 87.5019 155.206 86.7539 153.776C86.0059 152.346 85.6319 150.718 85.6319 148.892ZM100.944 148.925C100.944 147.561 100.669 146.373 100.119 145.361C99.5689 144.349 98.8209 143.579 97.8749 143.051C96.9509 142.501 95.9279 142.226 94.8059 142.226C93.6839 142.226 92.6609 142.49 91.7369 143.018C90.8129 143.546 90.0759 144.316 89.5259 145.328C88.9759 146.34 88.7009 147.528 88.7009 148.892C88.7009 150.278 88.9759 151.488 89.5259 152.522C90.0759 153.534 90.8129 154.315 91.7369 154.865C92.6609 155.393 93.6839 155.657 94.8059 155.657C95.9279 155.657 96.9509 155.393 97.8749 154.865C98.8209 154.315 99.5689 153.534 100.119 152.522C100.669 151.488 100.944 150.289 100.944 148.925ZM121.595 144.635V147.176H108.428V144.635H121.595ZM141.387 134.999V137.441H135.117V158H132.114V137.441H125.811V134.999H141.387ZM152.971 158.297C151.277 158.297 149.737 157.912 148.351 157.142C146.987 156.372 145.909 155.283 145.117 153.875C144.347 152.445 143.962 150.795 143.962 148.925C143.962 147.077 144.358 145.449 145.15 144.041C145.964 142.611 147.064 141.522 148.45 140.774C149.836 140.004 151.387 139.619 153.103 139.619C154.819 139.619 156.37 140.004 157.756 140.774C159.142 141.522 160.231 142.6 161.023 144.008C161.837 145.416 162.244 147.055 162.244 148.925C162.244 150.795 161.826 152.445 160.99 153.875C160.176 155.283 159.065 156.372 157.657 157.142C156.249 157.912 154.687 158.297 152.971 158.297ZM152.971 155.657C154.049 155.657 155.061 155.404 156.007 154.898C156.953 154.392 157.712 153.633 158.284 152.621C158.878 151.609 159.175 150.377 159.175 148.925C159.175 147.473 158.889 146.241 158.317 145.229C157.745 144.217 156.997 143.469 156.073 142.985C155.149 142.479 154.148 142.226 153.07 142.226C151.97 142.226 150.958 142.479 150.034 142.985C149.132 143.469 148.406 144.217 147.856 145.229C147.306 146.241 147.031 147.473 147.031 148.925C147.031 150.399 147.295 151.642 147.823 152.654C148.373 153.666 149.099 154.425 150.001 154.931C150.903 155.415 151.893 155.657 152.971 155.657ZM156.337 134.57L149.308 138.332V136.088L156.337 131.963V134.57ZM169.855 142.391V153.05C169.855 153.93 170.042 154.557 170.416 154.931C170.79 155.283 171.439 155.459 172.363 155.459H174.574V158H171.868C170.196 158 168.942 157.615 168.106 156.845C167.27 156.075 166.852 154.81 166.852 153.05V142.391H164.509V139.916H166.852V135.362H169.855V139.916H174.574V142.391H169.855ZM187.189 139.586C188.553 139.586 189.785 139.883 190.885 140.477C191.985 141.049 192.843 141.918 193.459 143.084C194.097 144.25 194.416 145.669 194.416 147.341V158H191.446V147.77C191.446 145.966 190.995 144.591 190.093 143.645C189.191 142.677 187.959 142.193 186.397 142.193C184.813 142.193 183.548 142.688 182.602 143.678C181.678 144.668 181.216 146.109 181.216 148.001V158H178.213V133.58H181.216V142.49C181.81 141.566 182.624 140.851 183.658 140.345C184.714 139.839 185.891 139.586 187.189 139.586Z" fill="#DBE4EC"/>
<path opacity="0.5" d="M17.28 8.06V22H15.46V15.68H8.36V22H6.54V8.06H8.36V14.18H15.46V8.06H17.28ZM21.3277 9.26C20.981 9.26 20.6877 9.14 20.4477 8.9C20.2077 8.66 20.0877 8.36667 20.0877 8.02C20.0877 7.67333 20.2077 7.38 20.4477 7.14C20.6877 6.9 20.981 6.78 21.3277 6.78C21.661 6.78 21.941 6.9 22.1677 7.14C22.4077 7.38 22.5277 7.67333 22.5277 8.02C22.5277 8.36667 22.4077 8.66 22.1677 8.9C21.941 9.14 21.661 9.26 21.3277 9.26ZM22.2077 11.04V22H20.3877V11.04H22.2077ZM27.6695 8.06L27.4495 18.06H25.9295L25.7095 8.06H27.6695ZM26.7695 22.12C26.4229 22.12 26.1295 22 25.8895 21.76C25.6495 21.52 25.5295 21.2267 25.5295 20.88C25.5295 20.5333 25.6495 20.24 25.8895 20C26.1295 19.76 26.4229 19.64 26.7695 19.64C27.1029 19.64 27.3829 19.76 27.6095 20C27.8495 20.24 27.9695 20.5333 27.9695 20.88C27.9695 21.2267 27.8495 21.52 27.6095 21.76C27.3829 22 27.1029 22.12 26.7695 22.12ZM38.4186 8.06V22H36.5986V8.06H38.4186ZM46.1725 16.48C46.1725 15.36 46.3992 14.38 46.8525 13.54C47.3058 12.6867 47.9258 12.0267 48.7125 11.56C49.5125 11.0933 50.3992 10.86 51.3725 10.86C52.3325 10.86 53.1658 11.0667 53.8725 11.48C54.5792 11.8933 55.1058 12.4133 55.4525 13.04V11.04H57.2925V22H55.4525V19.96C55.0925 20.6 54.5525 21.1333 53.8325 21.56C53.1258 21.9733 52.2992 22.18 51.3525 22.18C50.3792 22.18 49.4992 21.94 48.7125 21.46C47.9258 20.98 47.3058 20.3067 46.8525 19.44C46.3992 18.5733 46.1725 17.5867 46.1725 16.48ZM55.4525 16.5C55.4525 15.6733 55.2858 14.9533 54.9525 14.34C54.6192 13.7267 54.1658 13.26 53.5925 12.94C53.0325 12.6067 52.4125 12.44 51.7325 12.44C51.0525 12.44 50.4325 12.6 49.8725 12.92C49.3125 13.24 48.8658 13.7067 48.5325 14.32C48.1992 14.9333 48.0325 15.6533 48.0325 16.48C48.0325 17.32 48.1992 18.0533 48.5325 18.68C48.8658 19.2933 49.3125 19.7667 49.8725 20.1C50.4325 20.42 51.0525 20.58 51.7325 20.58C52.4125 20.58 53.0325 20.42 53.5925 20.1C54.1658 19.7667 54.6192 19.2933 54.9525 18.68C55.2858 18.0533 55.4525 17.3267 55.4525 16.5ZM73.5481 10.84C74.4015 10.84 75.1615 11.02 75.8281 11.38C76.4948 11.7267 77.0215 12.2533 77.4081 12.96C77.7948 13.6667 77.9881 14.5267 77.9881 15.54V22H76.1881V15.8C76.1881 14.7067 75.9148 13.8733 75.3681 13.3C74.8348 12.7133 74.1081 12.42 73.1881 12.42C72.2415 12.42 71.4881 12.7267 70.9281 13.34C70.3681 13.94 70.0881 14.8133 70.0881 15.96V22H68.2881V15.8C68.2881 14.7067 68.0148 13.8733 67.4681 13.3C66.9348 12.7133 66.2081 12.42 65.2881 12.42C64.3415 12.42 63.5881 12.7267 63.0281 13.34C62.4681 13.94 62.1881 14.8133 62.1881 15.96V22H60.3681V11.04H62.1881V12.62C62.5481 12.0467 63.0281 11.6067 63.6281 11.3C64.2415 10.9933 64.9148 10.84 65.6481 10.84C66.5681 10.84 67.3815 11.0467 68.0881 11.46C68.7948 11.8733 69.3215 12.48 69.6681 13.28C69.9748 12.5067 70.4815 11.9067 71.1881 11.48C71.8948 11.0533 72.6815 10.84 73.5481 10.84Z" fill="#DBE4EC"/>
<path d="M90.056 175.144C89.2347 175.144 88.488 174.957 87.816 174.584C87.1547 174.211 86.632 173.683 86.248 173C85.8747 172.307 85.688 171.507 85.688 170.6C85.688 169.704 85.88 168.915 86.264 168.232C86.6587 167.539 87.192 167.011 87.864 166.648C88.536 166.275 89.288 166.088 90.12 166.088C90.952 166.088 91.704 166.275 92.376 166.648C93.048 167.011 93.576 167.533 93.96 168.216C94.3547 168.899 94.552 169.693 94.552 170.6C94.552 171.507 94.3493 172.307 93.944 173C93.5493 173.683 93.0107 174.211 92.328 174.584C91.6453 174.957 90.888 175.144 90.056 175.144ZM90.056 173.864C90.5787 173.864 91.0693 173.741 91.528 173.496C91.9867 173.251 92.3547 172.883 92.632 172.392C92.92 171.901 93.064 171.304 93.064 170.6C93.064 169.896 92.9253 169.299 92.648 168.808C92.3707 168.317 92.008 167.955 91.56 167.72C91.112 167.475 90.6267 167.352 90.104 167.352C89.5707 167.352 89.08 167.475 88.632 167.72C88.1947 167.955 87.8427 168.317 87.576 168.808C87.3093 169.299 87.176 169.896 87.176 170.6C87.176 171.315 87.304 171.917 87.56 172.408C87.8267 172.899 88.1787 173.267 88.616 173.512C89.0533 173.747 89.5333 173.864 90.056 173.864ZM97.9224 167.656C98.1784 167.155 98.541 166.765 99.0104 166.488C99.4904 166.211 100.072 166.072 100.754 166.072V167.576H100.37C98.7384 167.576 97.9224 168.461 97.9224 170.232V175H96.4664V166.232H97.9224V167.656ZM107.485 164.808C107.207 164.808 106.973 164.712 106.781 164.52C106.599 164.328 106.509 164.093 106.509 163.816C106.509 163.539 106.599 163.304 106.781 163.112C106.973 162.92 107.207 162.824 107.485 162.824C107.762 162.824 107.991 162.92 108.173 163.112C108.365 163.304 108.461 163.539 108.461 163.816C108.461 164.093 108.365 164.328 108.173 164.52C107.991 164.712 107.762 164.808 107.485 164.808ZM108.205 176.904C108.205 177.683 108.007 178.253 107.613 178.616C107.218 178.979 106.642 179.16 105.885 179.16H105.037V177.928H105.645C106.05 177.928 106.333 177.848 106.493 177.688C106.663 177.528 106.749 177.256 106.749 176.872V166.232H108.205V176.904ZM118.446 166.232V175H116.99V173.704C116.712 174.152 116.323 174.504 115.822 174.76C115.331 175.005 114.787 175.128 114.19 175.128C113.507 175.128 112.894 174.989 112.35 174.712C111.806 174.424 111.374 173.997 111.054 173.432C110.744 172.867 110.59 172.179 110.59 171.368V166.232H112.03V171.176C112.03 172.04 112.248 172.707 112.686 173.176C113.123 173.635 113.72 173.864 114.478 173.864C115.256 173.864 115.87 173.624 116.318 173.144C116.766 172.664 116.99 171.965 116.99 171.048V166.232H118.446ZM124.008 175.144C123.336 175.144 122.733 175.032 122.2 174.808C121.667 174.573 121.245 174.253 120.936 173.848C120.627 173.432 120.456 172.957 120.424 172.424H121.928C121.971 172.861 122.173 173.219 122.536 173.496C122.909 173.773 123.395 173.912 123.992 173.912C124.547 173.912 124.984 173.789 125.304 173.544C125.624 173.299 125.784 172.989 125.784 172.616C125.784 172.232 125.613 171.949 125.272 171.768C124.931 171.576 124.403 171.389 123.688 171.208C123.037 171.037 122.504 170.867 122.088 170.696C121.683 170.515 121.331 170.253 121.032 169.912C120.744 169.56 120.6 169.101 120.6 168.536C120.6 168.088 120.733 167.677 121 167.304C121.267 166.931 121.645 166.637 122.136 166.424C122.627 166.2 123.187 166.088 123.816 166.088C124.787 166.088 125.571 166.333 126.168 166.824C126.765 167.315 127.085 167.987 127.128 168.84H125.672C125.64 168.381 125.453 168.013 125.112 167.736C124.781 167.459 124.333 167.32 123.768 167.32C123.245 167.32 122.829 167.432 122.52 167.656C122.211 167.88 122.056 168.173 122.056 168.536C122.056 168.824 122.147 169.064 122.328 169.256C122.52 169.437 122.755 169.587 123.032 169.704C123.32 169.811 123.715 169.933 124.216 170.072C124.845 170.243 125.357 170.413 125.752 170.584C126.147 170.744 126.483 170.989 126.76 171.32C127.048 171.651 127.197 172.083 127.208 172.616C127.208 173.096 127.075 173.528 126.808 173.912C126.541 174.296 126.163 174.6 125.672 174.824C125.192 175.037 124.637 175.144 124.008 175.144ZM131.039 167.432V172.6C131.039 173.027 131.13 173.331 131.311 173.512C131.493 173.683 131.807 173.768 132.255 173.768H133.327V175H132.015C131.205 175 130.597 174.813 130.191 174.44C129.786 174.067 129.583 173.453 129.583 172.6V167.432H128.447V166.232H129.583V164.024H131.039V166.232H133.327V167.432H131.039ZM142.621 173.656L145.341 166.232H146.893L143.453 175H141.757L138.317 166.232H139.885L142.621 173.656ZM150.102 167.432V172.6C150.102 173.027 150.192 173.331 150.374 173.512C150.555 173.683 150.87 173.768 151.318 173.768H152.39V175H151.078C150.267 175 149.659 174.813 149.254 174.44C148.848 174.067 148.646 173.453 148.646 172.6V167.432H147.51V166.232H148.646V164.024H150.102V166.232H152.39V167.432H150.102ZM164.698 166.072C165.381 166.072 165.989 166.216 166.522 166.504C167.055 166.781 167.477 167.203 167.786 167.768C168.095 168.333 168.25 169.021 168.25 169.832V175H166.81V170.04C166.81 169.165 166.591 168.499 166.154 168.04C165.727 167.571 165.146 167.336 164.41 167.336C163.653 167.336 163.05 167.581 162.602 168.072C162.154 168.552 161.93 169.251 161.93 170.168V175H160.49V170.04C160.49 169.165 160.271 168.499 159.834 168.04C159.407 167.571 158.826 167.336 158.09 167.336C157.333 167.336 156.73 167.581 156.282 168.072C155.834 168.552 155.61 169.251 155.61 170.168V175H154.154V166.232H155.61V167.496C155.898 167.037 156.282 166.685 156.762 166.44C157.253 166.195 157.791 166.072 158.378 166.072C159.114 166.072 159.765 166.237 160.33 166.568C160.895 166.899 161.317 167.384 161.594 168.024C161.839 167.405 162.245 166.925 162.81 166.584C163.375 166.243 164.005 166.072 164.698 166.072ZM170.094 170.584C170.094 169.688 170.276 168.904 170.638 168.232C171.001 167.549 171.497 167.021 172.126 166.648C172.766 166.275 173.476 166.088 174.254 166.088C175.022 166.088 175.689 166.253 176.254 166.584C176.82 166.915 177.241 167.331 177.518 167.832V166.232H178.99V175H177.518V173.368C177.23 173.88 176.798 174.307 176.222 174.648C175.657 174.979 174.996 175.144 174.238 175.144C173.46 175.144 172.756 174.952 172.126 174.568C171.497 174.184 171.001 173.645 170.638 172.952C170.276 172.259 170.094 171.469 170.094 170.584ZM177.518 170.6C177.518 169.939 177.385 169.363 177.118 168.872C176.852 168.381 176.489 168.008 176.03 167.752C175.582 167.485 175.086 167.352 174.542 167.352C173.998 167.352 173.502 167.48 173.054 167.736C172.606 167.992 172.249 168.365 171.982 168.856C171.716 169.347 171.582 169.923 171.582 170.584C171.582 171.256 171.716 171.843 171.982 172.344C172.249 172.835 172.606 173.213 173.054 173.48C173.502 173.736 173.998 173.864 174.542 173.864C175.086 173.864 175.582 173.736 176.03 173.48C176.489 173.213 176.852 172.835 177.118 172.344C177.385 171.843 177.518 171.261 177.518 170.6ZM183.227 167.432V172.6C183.227 173.027 183.317 173.331 183.499 173.512C183.68 173.683 183.995 173.768 184.443 173.768H185.515V175H184.203C183.392 175 182.784 174.813 182.379 174.44C181.973 174.067 181.771 173.453 181.771 172.6V167.432H180.635V166.232H181.771V164.024H183.227V166.232H185.515V167.432H183.227ZM195.279 170.28C195.279 170.557 195.263 170.851 195.231 171.16H188.223C188.276 172.024 188.57 172.701 189.103 173.192C189.647 173.672 190.303 173.912 191.071 173.912C191.7 173.912 192.223 173.768 192.639 173.48C193.066 173.181 193.364 172.787 193.535 172.296H195.103C194.868 173.139 194.399 173.827 193.695 174.36C192.991 174.883 192.116 175.144 191.071 175.144C190.239 175.144 189.492 174.957 188.831 174.584C188.18 174.211 187.668 173.683 187.295 173C186.922 172.307 186.735 171.507 186.735 170.6C186.735 169.693 186.916 168.899 187.279 168.216C187.642 167.533 188.148 167.011 188.799 166.648C189.46 166.275 190.218 166.088 191.071 166.088C191.903 166.088 192.639 166.269 193.279 166.632C193.919 166.995 194.41 167.496 194.751 168.136C195.103 168.765 195.279 169.48 195.279 170.28ZM193.775 169.976C193.775 169.421 193.652 168.947 193.407 168.552C193.162 168.147 192.826 167.843 192.399 167.64C191.983 167.427 191.519 167.32 191.007 167.32C190.271 167.32 189.642 167.555 189.119 168.024C188.607 168.493 188.314 169.144 188.239 169.976H193.775Z" fill="#DBE4EC" fill-opacity="0.454902"/>
</svg>
