<svg width="198" height="198" viewBox="0 0 198 198" fill="none" xmlns="http://www.w3.org/2000/svg">
<path d="M106.939 135.828H91.0703V153.186H106.939V135.828Z" fill="#4D4C78"/>
<path d="M75.5106 43.8208H18.9115C17.8228 43.8208 16.7788 44.2533 16.0089 45.0231C15.2391 45.7929 14.8067 46.837 14.8067 47.9257V149.07C14.8054 149.61 14.9106 150.145 15.1163 150.644C15.3221 151.143 15.6242 151.597 16.0055 151.979C16.3868 152.361 16.8398 152.664 17.3384 152.871C17.8371 153.078 18.3717 153.184 18.9115 153.184H91.0705V143.381C91.0704 143.216 91.0608 143.052 91.0415 142.888L79.5865 47.4428C79.4682 46.4448 78.988 45.5248 78.2368 44.8573C77.4855 44.1897 76.5155 43.8209 75.5106 43.8208Z" fill="#323150"/>
<path d="M127.386 47.0757L107.026 142.715C106.965 142.994 106.933 143.279 106.93 143.565V153.184H179.089C179.628 153.184 180.163 153.078 180.662 152.871C181.16 152.664 181.613 152.361 181.995 151.979C182.376 151.597 182.678 151.143 182.884 150.644C183.09 150.145 183.195 149.61 183.193 149.07V47.9257C183.193 46.837 182.761 45.7929 181.991 45.0231C181.221 44.2533 180.177 43.8208 179.089 43.8208H131.404C130.463 43.8185 129.549 44.141 128.817 44.7339C128.085 45.3268 127.58 46.1539 127.386 47.0757Z" fill="#323150"/>
<path d="M128.073 43.8208L106.93 143.13V135.828H91.0708V143.13L79.1522 43.8208H21.7998V150.47L25.9337 148.77C48.3337 139.553 73.4181 139.291 96.0063 148.036L99.0005 149.244L101.995 148.036C124.583 139.291 149.667 139.553 172.067 148.77L176.201 150.47V43.8208H128.073Z" fill="#29275F"/>
<path d="M99.0005 145.999C75.2306 136.224 48.5639 136.224 24.7939 145.999V35.3408C48.562 25.557 75.2324 25.557 99.0005 35.3408V145.999Z" fill="#C8C2E9"/>
<path d="M155.927 161.896L150.876 157.685L145.834 161.896C144.124 163.326 141.517 162.109 141.517 159.878V131.279H160.235V159.878C160.235 162.109 157.637 163.326 155.927 161.896Z" fill="#F4C23F"/>
<path d="M141.517 141.816C147.841 142.17 154.113 143.167 160.235 144.791V131.279H141.517V141.816Z" fill="#F4A93F"/>
<path d="M99 145.999C122.77 136.224 149.437 136.224 173.207 145.999V35.3408C149.438 25.557 122.768 25.557 99 35.3408V145.999Z" fill="#C8C2E9"/>
<path d="M30.9754 40.8751V33.042C28.8988 33.7374 26.8319 34.5004 24.7939 35.3407V145.999C48.7174 137.035 75.077 137.035 99.0005 145.999V134.283L98.334 134.061C58.0869 120.915 30.9754 83.2084 30.9754 40.8751Z" fill="#B9B1E0"/>
<path d="M105.181 40.8751V33.042C103.095 33.7374 101.035 34.5036 99 35.3407V145.999C122.923 137.035 149.283 137.035 173.207 145.999V134.283L172.54 134.061C132.283 120.915 105.181 83.2084 105.181 40.8751Z" fill="#B9B1E0"/>
<path d="M37.0212 57.8448C36.5662 57.8465 36.1253 57.6877 35.776 57.3961C35.4267 57.1046 35.1915 56.6992 35.1119 56.2513C35.0322 55.8034 35.1132 55.3417 35.3406 54.9477C35.5679 54.5536 35.9271 54.2525 36.3547 54.0973C52.4669 48.1603 70.1676 48.1603 86.2797 54.0973C86.5182 54.1848 86.737 54.3184 86.9239 54.4905C87.1107 54.6626 87.2618 54.8698 87.3685 55.1003C87.4752 55.3308 87.5355 55.5801 87.5459 55.8339C87.5563 56.0877 87.5166 56.3411 87.4291 56.5795C87.3416 56.818 87.2079 57.0368 87.0358 57.2237C86.8637 57.4105 86.6565 57.5616 86.426 57.6683C86.1955 57.775 85.9462 57.8353 85.6924 57.8457C85.4386 57.8561 85.1853 57.8164 84.9468 57.7289C69.6963 52.1014 52.9381 52.1014 37.6876 57.7289C37.4736 57.8047 37.2483 57.8439 37.0212 57.8448Z" fill="#B9B1E0"/>
<path d="M37.0212 78.3211C36.5662 78.3229 36.1253 78.164 35.776 77.8725C35.4267 77.581 35.1915 77.1756 35.1119 76.7276C35.0322 76.2797 35.1132 75.8181 35.3406 75.424C35.5679 75.03 35.9271 74.7288 36.3547 74.5736C52.4646 68.6239 70.1698 68.6239 86.2797 74.5736C86.5286 74.6525 86.7588 74.7811 86.9566 74.9515C87.1544 75.1219 87.3156 75.3306 87.4305 75.5651C87.5453 75.7995 87.6114 76.0548 87.6249 76.3156C87.6383 76.5763 87.5987 76.837 87.5086 77.0821C87.4184 77.3271 87.2795 77.5513 87.1003 77.7411C86.9211 77.9309 86.7052 78.0824 86.4658 78.1865C86.2263 78.2906 85.9683 78.345 85.7072 78.3466C85.4462 78.3482 85.1875 78.2968 84.9468 78.1956C69.6963 72.5681 52.9381 72.5681 37.6876 78.1956C37.4754 78.2791 37.2493 78.3217 37.0212 78.3211Z" fill="#B9B1E0"/>
<path d="M37.0207 98.7875C36.5704 98.7832 36.1357 98.6217 35.7918 98.3309C35.4479 98.0401 35.2165 97.6383 35.1374 97.195C35.0584 96.7516 35.1367 96.2946 35.3589 95.9028C35.5811 95.5111 35.9332 95.2093 36.3543 95.0497C52.4642 89.1 70.1694 89.1 86.2793 95.0497C86.5281 95.1286 86.7584 95.2572 86.9562 95.4276C87.154 95.598 87.3151 95.8067 87.43 96.0412C87.5449 96.2756 87.611 96.5309 87.6244 96.7916C87.6379 97.0524 87.5983 97.3131 87.5081 97.5581C87.418 97.8031 87.2791 98.0273 87.0998 98.2172C86.9206 98.407 86.7048 98.5585 86.4653 98.6626C86.2259 98.7667 85.9678 98.8211 85.7068 98.8227C85.4457 98.8242 85.187 98.7728 84.9464 98.6716C69.6959 93.0441 52.9377 93.0441 37.6872 98.6716C37.4731 98.7475 37.2478 98.7867 37.0207 98.7875Z" fill="#B9B1E0"/>
<path d="M37.0212 119.264C36.5662 119.265 36.1253 119.107 35.776 118.815C35.4267 118.524 35.1915 118.118 35.1119 117.67C35.0322 117.222 35.1132 116.761 35.3406 116.367C35.5679 115.973 35.9271 115.671 36.3547 115.516C52.4669 109.579 70.1676 109.579 86.2797 115.516C86.5182 115.604 86.737 115.737 86.9239 115.909C87.1107 116.082 87.2618 116.289 87.3685 116.519C87.4752 116.75 87.5355 116.999 87.5459 117.253C87.5563 117.507 87.5166 117.76 87.4291 117.998C87.3416 118.237 87.2079 118.456 87.0358 118.643C86.8637 118.829 86.6565 118.98 86.426 119.087C86.1955 119.194 85.9462 119.254 85.6924 119.265C85.4386 119.275 85.1853 119.235 84.9468 119.148C69.6963 113.52 52.9381 113.52 37.6876 119.148C37.4736 119.224 37.2483 119.263 37.0212 119.264Z" fill="#B9B1E0"/>
<path d="M159.82 57.8448C159.593 57.8439 159.368 57.8047 159.154 57.7289C143.903 52.1014 127.145 52.1014 111.895 57.7289C111.413 57.9056 110.881 57.8838 110.415 57.6683C109.95 57.4527 109.589 57.0611 109.412 56.5795C109.236 56.0979 109.257 55.5659 109.473 55.1003C109.689 54.6348 110.08 54.274 110.562 54.0973C126.674 48.1603 144.375 48.1603 160.487 54.0973C160.914 54.2525 161.274 54.5536 161.501 54.9477C161.728 55.3417 161.809 55.8034 161.73 56.2513C161.65 56.6992 161.415 57.1046 161.065 57.3961C160.716 57.6877 160.275 57.8465 159.82 57.8448Z" fill="#B9B1E0"/>
<path d="M159.82 78.3211C159.592 78.3217 159.366 78.2791 159.154 78.1956C143.903 72.5681 127.145 72.5681 111.894 78.1956C111.654 78.2968 111.395 78.3482 111.134 78.3466C110.873 78.345 110.615 78.2906 110.376 78.1865C110.136 78.0824 109.92 77.9309 109.741 77.7411C109.562 77.5513 109.423 77.3271 109.333 77.0821C109.243 76.837 109.203 76.5763 109.216 76.3156C109.23 76.0548 109.296 75.7995 109.411 75.5651C109.526 75.3306 109.687 75.1219 109.885 74.9515C110.082 74.7811 110.313 74.6525 110.562 74.5736C126.671 68.6239 144.377 68.6239 160.487 74.5736C160.914 74.7288 161.273 75.03 161.501 75.424C161.728 75.8181 161.809 76.2797 161.729 76.7276C161.65 77.1756 161.415 77.581 161.065 77.8725C160.716 78.164 160.275 78.3229 159.82 78.3211Z" fill="#B9B1E0"/>
<path d="M159.82 98.7875C159.593 98.7867 159.368 98.7475 159.154 98.6716C143.903 93.0441 127.145 93.0441 111.894 98.6716C111.654 98.7728 111.395 98.8242 111.134 98.8227C110.873 98.8211 110.615 98.7667 110.376 98.6626C110.136 98.5585 109.92 98.407 109.741 98.2172C109.562 98.0273 109.423 97.8031 109.333 97.5581C109.243 97.3131 109.203 97.0524 109.216 96.7916C109.23 96.5309 109.296 96.2756 109.411 96.0412C109.526 95.8067 109.687 95.598 109.885 95.4276C110.082 95.2572 110.313 95.1286 110.562 95.0497C126.671 89.1 144.377 89.1 160.487 95.0497C160.908 95.2093 161.26 95.5111 161.482 95.9028C161.704 96.2946 161.782 96.7516 161.703 97.195C161.624 97.6383 161.393 98.0401 161.049 98.3309C160.705 98.6217 160.27 98.7832 159.82 98.7875Z" fill="#B9B1E0"/>
<path d="M159.82 119.264C159.593 119.263 159.368 119.224 159.154 119.148C143.903 113.52 127.145 113.52 111.895 119.148C111.413 119.325 110.881 119.303 110.415 119.087C109.95 118.872 109.589 118.48 109.412 117.998C109.236 117.517 109.257 116.985 109.473 116.519C109.689 116.054 110.08 115.693 110.562 115.516C126.674 109.579 144.375 109.579 160.487 115.516C160.914 115.671 161.274 115.973 161.501 116.367C161.728 116.761 161.809 117.222 161.73 117.67C161.65 118.118 161.415 118.524 161.065 118.815C160.716 119.107 160.275 119.265 159.82 119.264Z" fill="#B9B1E0"/>
<path d="M160.882 56.2032C160.655 56.2023 160.429 56.1631 160.215 56.0873C144.965 50.4598 128.207 50.4598 112.956 56.0873C112.475 56.264 111.942 56.2422 111.477 56.0267C111.011 55.8111 110.651 55.4195 110.474 54.9379C110.297 54.4563 110.319 53.9243 110.534 53.4587C110.75 52.9932 111.142 52.6324 111.623 52.4557C127.735 46.5187 145.436 46.5187 161.548 52.4557C161.976 52.6109 162.335 52.912 162.562 53.3061C162.79 53.7001 162.871 54.1618 162.791 54.6097C162.711 55.0576 162.476 55.463 162.127 55.7545C161.778 56.0461 161.337 56.2049 160.882 56.2032Z" fill="#DFDAFD"/>
<path d="M160.883 76.679C160.655 76.6796 160.428 76.637 160.216 76.5535C144.966 70.926 128.207 70.926 112.957 76.5535C112.716 76.6547 112.458 76.7061 112.197 76.7045C111.935 76.703 111.677 76.6485 111.438 76.5444C111.199 76.4403 110.983 76.2888 110.804 76.099C110.624 75.9092 110.485 75.685 110.395 75.44C110.305 75.195 110.265 74.9342 110.279 74.6735C110.292 74.4128 110.358 74.1575 110.473 73.923C110.588 73.6886 110.749 73.4798 110.947 73.3094C111.145 73.139 111.375 73.0104 111.624 72.9315C127.734 66.9818 145.439 66.9818 161.549 72.9315C161.977 73.0867 162.336 73.3879 162.563 73.7819C162.791 74.176 162.872 74.6376 162.792 75.0856C162.712 75.5335 162.477 75.9389 162.128 76.2304C161.779 76.5219 161.338 76.6808 160.883 76.679Z" fill="#DFDAFD"/>
<path d="M160.883 97.1454C160.656 97.1446 160.43 97.1054 160.216 97.0295C144.966 91.4021 128.207 91.4021 112.957 97.0295C112.716 97.1308 112.458 97.1821 112.197 97.1806C111.935 97.179 111.677 97.1246 111.438 97.0205C111.199 96.9164 110.983 96.7649 110.804 96.5751C110.624 96.3852 110.485 96.161 110.395 95.916C110.305 95.671 110.265 95.4103 110.279 95.1496C110.292 94.8888 110.358 94.6335 110.473 94.3991C110.588 94.1646 110.749 93.9559 110.947 93.7855C111.145 93.6151 111.375 93.4865 111.624 93.4076C127.734 87.4579 145.439 87.4579 161.549 93.4076C161.97 93.5672 162.322 93.869 162.544 94.2608C162.767 94.6525 162.845 95.1095 162.766 95.5529C162.687 95.9963 162.455 96.3981 162.112 96.6889C161.768 96.9796 161.333 97.1412 160.883 97.1454Z" fill="#DFDAFD"/>
<path d="M160.882 117.622C160.655 117.621 160.429 117.582 160.215 117.506C144.965 111.878 128.207 111.878 112.956 117.506C112.718 117.593 112.464 117.633 112.211 117.623C111.957 117.612 111.707 117.552 111.477 117.445C111.246 117.338 111.039 117.187 110.867 117.001C110.695 116.814 110.561 116.595 110.474 116.356C110.386 116.118 110.347 115.865 110.357 115.611C110.367 115.357 110.428 115.108 110.534 114.877C110.641 114.647 110.792 114.439 110.979 114.267C111.166 114.095 111.385 113.962 111.623 113.874C127.735 107.937 145.436 107.937 161.548 113.874C161.976 114.029 162.335 114.33 162.562 114.725C162.79 115.119 162.871 115.58 162.791 116.028C162.711 116.476 162.476 116.882 162.127 117.173C161.778 117.465 161.337 117.623 160.882 117.622Z" fill="#DFDAFD"/>
<path d="M38.0837 56.2032C37.6287 56.2049 37.1878 56.0461 36.8385 55.7545C36.4892 55.463 36.254 55.0576 36.1744 54.6097C36.0947 54.1618 36.1757 53.7001 36.4031 53.3061C36.6304 52.912 36.9896 52.6109 37.4172 52.4557C53.5294 46.5187 71.2301 46.5187 87.3422 52.4557C87.5807 52.5432 87.7995 52.6768 87.9864 52.8489C88.1732 53.021 88.3243 53.2282 88.431 53.4587C88.5377 53.6892 88.598 53.9385 88.6084 54.1923C88.6188 54.4461 88.5791 54.6995 88.4916 54.9379C88.4041 55.1764 88.2704 55.3952 88.0983 55.5821C87.9262 55.7689 87.719 55.9199 87.4885 56.0267C87.258 56.1334 87.0087 56.1937 86.7549 56.2041C86.5011 56.2145 86.2478 56.1748 86.0093 56.0873C70.7588 50.4598 54.0006 50.4598 38.7501 56.0873C38.5361 56.1631 38.3108 56.2023 38.0837 56.2032Z" fill="#DFDAFD"/>
<path d="M38.0837 76.679C37.6287 76.6808 37.1878 76.5219 36.8385 76.2304C36.4892 75.9389 36.254 75.5335 36.1744 75.0856C36.0947 74.6376 36.1757 74.176 36.4031 73.7819C36.6304 73.3879 36.9896 73.0867 37.4172 72.9315C53.5271 66.9818 71.2323 66.9818 87.3422 72.9315C87.5911 73.0104 87.8213 73.139 88.0191 73.3094C88.2169 73.4798 88.3781 73.6886 88.493 73.923C88.6078 74.1575 88.6739 74.4128 88.6874 74.6735C88.7008 74.9342 88.6612 75.195 88.5711 75.44C88.4809 75.685 88.342 75.9092 88.1628 76.099C87.9836 76.2888 87.7677 76.4403 87.5283 76.5444C87.2888 76.6485 87.0308 76.703 86.7697 76.7045C86.5087 76.7061 86.25 76.6547 86.0093 76.5535C70.7588 70.926 54.0006 70.926 38.7501 76.5535C38.5379 76.637 38.3118 76.6796 38.0837 76.679Z" fill="#DFDAFD"/>
<path d="M38.0832 97.1454C37.6329 97.1412 37.1982 96.9796 36.8543 96.6889C36.5104 96.3981 36.279 95.9963 36.1999 95.5529C36.1209 95.1095 36.1992 94.6525 36.4214 94.2608C36.6436 93.869 36.9957 93.5672 37.4168 93.4076C53.5267 87.4579 71.2319 87.4579 87.3418 93.4076C87.5906 93.4865 87.8209 93.6151 88.0187 93.7855C88.2165 93.9559 88.3776 94.1646 88.4925 94.3991C88.6074 94.6335 88.6735 94.8888 88.6869 95.1496C88.7004 95.4103 88.6608 95.671 88.5706 95.916C88.4805 96.161 88.3416 96.3852 88.1623 96.5751C87.9831 96.7649 87.7673 96.9164 87.5278 97.0205C87.2884 97.1246 87.0303 97.179 86.7693 97.1806C86.5082 97.1821 86.2495 97.1308 86.0089 97.0295C70.7584 91.4021 54.0002 91.4021 38.7497 97.0295C38.5356 97.1054 38.3103 97.1446 38.0832 97.1454Z" fill="#DFDAFD"/>
<path d="M38.0837 117.622C37.6287 117.623 37.1878 117.465 36.8385 117.173C36.4892 116.882 36.254 116.476 36.1744 116.028C36.0947 115.58 36.1757 115.119 36.4031 114.725C36.6304 114.33 36.9896 114.029 37.4172 113.874C53.5294 107.937 71.2301 107.937 87.3422 113.874C87.5807 113.962 87.7995 114.095 87.9864 114.267C88.1732 114.439 88.3243 114.647 88.431 114.877C88.5377 115.108 88.598 115.357 88.6084 115.611C88.6188 115.865 88.5791 116.118 88.4916 116.356C88.4041 116.595 88.2704 116.814 88.0983 117.001C87.9262 117.187 87.719 117.338 87.4885 117.445C87.258 117.552 87.0087 117.612 86.7549 117.623C86.5011 117.633 86.2478 117.593 86.0093 117.506C70.7588 111.878 54.0006 111.878 38.7501 117.506C38.5361 117.582 38.3108 117.621 38.0837 117.622Z" fill="#DFDAFD"/>
<path d="M160.399 56.879C160.172 56.8781 159.947 56.8389 159.733 56.7631C144.482 51.1356 127.724 51.1356 112.474 56.7631C112.235 56.8506 111.982 56.8903 111.728 56.8799C111.474 56.8695 111.225 56.8092 110.995 56.7025C110.764 56.5957 110.557 56.4447 110.385 56.2578C110.213 56.071 110.079 55.8521 109.991 55.6137C109.904 55.3752 109.864 55.1219 109.875 54.8681C109.885 54.6143 109.945 54.365 110.052 54.1345C110.159 53.904 110.31 53.6968 110.497 53.5247C110.684 53.3526 110.902 53.219 111.141 53.1314C127.253 47.1945 144.954 47.1945 161.066 53.1314C161.493 53.2866 161.853 53.5878 162.08 53.9819C162.307 54.3759 162.388 54.8376 162.309 55.2855C162.229 55.7334 161.994 56.1388 161.645 56.4303C161.295 56.7218 160.854 56.8807 160.399 56.879Z" fill="#4D4C78"/>
<path d="M160.399 77.3553C160.171 77.3559 159.945 77.3133 159.733 77.2297C144.482 71.6022 127.724 71.6022 112.474 77.2297C112.233 77.3309 111.974 77.3823 111.713 77.3808C111.452 77.3792 111.194 77.3248 110.955 77.2207C110.715 77.1166 110.499 76.9651 110.32 76.7753C110.141 76.5854 110.002 76.3612 109.912 76.1162C109.822 75.8712 109.782 75.6105 109.796 75.3498C109.809 75.089 109.875 74.8337 109.99 74.5993C110.105 74.3648 110.266 74.1561 110.464 73.9857C110.662 73.8153 110.892 73.6867 111.141 73.6078C127.251 67.6581 144.956 67.6581 161.066 73.6078C161.493 73.763 161.852 74.0642 162.08 74.4582C162.307 74.8523 162.388 75.3139 162.309 75.7618C162.229 76.2097 161.994 76.6152 161.644 76.9067C161.295 77.1982 160.854 77.357 160.399 77.3553Z" fill="#4D4C78"/>
<path d="M160.399 97.8217C160.172 97.8208 159.947 97.7817 159.733 97.7058C144.482 92.0783 127.724 92.0783 112.474 97.7058C112.233 97.807 111.974 97.8584 111.713 97.8569C111.452 97.8553 111.194 97.8008 110.955 97.6968C110.715 97.5927 110.499 97.4412 110.32 97.2513C110.141 97.0615 110.002 96.8373 109.912 96.5923C109.822 96.3473 109.782 96.0866 109.796 95.8258C109.809 95.5651 109.875 95.3098 109.99 95.0753C110.105 94.8409 110.266 94.6322 110.464 94.4617C110.662 94.2913 110.892 94.1628 111.141 94.0839C127.251 88.1342 144.956 88.1342 161.066 94.0839C161.487 94.2435 161.839 94.5453 162.061 94.937C162.283 95.3287 162.362 95.7858 162.283 96.2292C162.203 96.6725 161.972 97.0743 161.628 97.3651C161.284 97.6559 160.85 97.8174 160.399 97.8217Z" fill="#4D4C78"/>
<path d="M160.399 118.298C160.172 118.297 159.947 118.258 159.733 118.182C144.482 112.555 127.724 112.555 112.474 118.182C112.235 118.27 111.982 118.309 111.728 118.299C111.474 118.288 111.225 118.228 110.995 118.121C110.764 118.015 110.557 117.864 110.385 117.677C110.213 117.49 110.079 117.271 109.991 117.033C109.904 116.794 109.864 116.541 109.875 116.287C109.885 116.033 109.945 115.784 110.052 115.553C110.159 115.323 110.31 115.116 110.497 114.944C110.684 114.772 110.902 114.638 111.141 114.55C127.253 108.613 144.954 108.613 161.066 114.55C161.493 114.706 161.853 115.007 162.08 115.401C162.307 115.795 162.388 116.257 162.309 116.704C162.229 117.152 161.994 117.558 161.645 117.849C161.295 118.141 160.854 118.3 160.399 118.298Z" fill="#4D4C78"/>
<path d="M173.197 45.0183C173.197 42.8419 171.432 41.0776 169.256 41.0776C167.08 41.0776 165.315 42.8419 165.315 45.0183V89.7866C165.315 91.963 167.08 93.7273 169.256 93.7273C171.432 93.7273 173.197 91.963 173.197 89.7866V45.0183Z" fill="#DFDAFD"/>
<path d="M99.0004 49.384C99.0004 47.837 97.7463 46.583 96.1994 46.583C94.6525 46.583 93.3984 47.837 93.3984 49.384V77.8506C93.3984 79.3975 94.6525 80.6516 96.1994 80.6516C97.7463 80.6516 99.0004 79.3975 99.0004 77.8506V49.384Z" fill="#DFDAFD"/>
<path d="M37.6003 56.879C37.1453 56.8807 36.7044 56.7218 36.3551 56.4303C36.0058 56.1388 35.7706 55.7334 35.691 55.2855C35.6113 54.8376 35.6923 54.3759 35.9197 53.9819C36.147 53.5878 36.5062 53.2866 36.9338 53.1314C53.046 47.1945 70.7467 47.1945 86.8588 53.1314C87.0973 53.219 87.3161 53.3526 87.503 53.5247C87.6898 53.6968 87.8409 53.904 87.9476 54.1345C88.0543 54.365 88.1146 54.6143 88.125 54.8681C88.1354 55.1219 88.0957 55.3752 88.0082 55.6137C87.9207 55.8521 87.787 56.071 87.6149 56.2578C87.4428 56.4447 87.2356 56.5957 87.0051 56.7025C86.7746 56.8092 86.5253 56.8695 86.2715 56.8799C86.0177 56.8903 85.7644 56.8506 85.5259 56.7631C70.2754 51.1356 53.5172 51.1356 38.2667 56.7631C38.0527 56.8389 37.8274 56.8781 37.6003 56.879Z" fill="#4D4C78"/>
<path d="M37.6003 77.3553C37.1453 77.357 36.7044 77.1982 36.3551 76.9067C36.0058 76.6152 35.7706 76.2097 35.691 75.7618C35.6113 75.3139 35.6923 74.8523 35.9197 74.4582C36.147 74.0642 36.5062 73.763 36.9338 73.6078C53.0437 67.6581 70.7489 67.6581 86.8588 73.6078C87.1077 73.6867 87.3379 73.8153 87.5357 73.9857C87.7335 74.1561 87.8947 74.3648 88.0096 74.5993C88.1244 74.8337 88.1905 75.089 88.204 75.3498C88.2174 75.6105 88.1778 75.8712 88.0877 76.1162C87.9975 76.3612 87.8586 76.5854 87.6794 76.7753C87.5002 76.9651 87.2843 77.1166 87.0449 77.2207C86.8054 77.3248 86.5474 77.3792 86.2863 77.3808C86.0253 77.3823 85.7666 77.3309 85.5259 77.2297C70.2754 71.6022 53.5172 71.6022 38.2667 77.2297C38.0545 77.3133 37.8284 77.3559 37.6003 77.3553Z" fill="#4D4C78"/>
<path d="M37.6008 97.8217C37.1505 97.8174 36.7158 97.6559 36.3719 97.3651C36.028 97.0743 35.7965 96.6725 35.7175 96.2292C35.6384 95.7858 35.7168 95.3287 35.939 94.937C36.1612 94.5453 36.5133 94.2435 36.9344 94.0839C53.0442 88.1342 70.7495 88.1342 86.8593 94.0839C87.1082 94.1628 87.3385 94.2913 87.5363 94.4617C87.734 94.6322 87.8952 94.8409 88.0101 95.0753C88.1249 95.3098 88.1911 95.5651 88.2045 95.8258C88.2179 96.0866 88.1784 96.3473 88.0882 96.5923C87.998 96.8373 87.8591 97.0615 87.6799 97.2513C87.5007 97.4412 87.2848 97.5927 87.0454 97.6968C86.806 97.8008 86.5479 97.8553 86.2869 97.8569C86.0258 97.8584 85.7671 97.807 85.5265 97.7058C70.276 92.0783 53.5177 92.0783 38.2672 97.7058C38.0532 97.7817 37.8279 97.8208 37.6008 97.8217Z" fill="#4D4C78"/>
<path d="M37.6003 118.298C37.1453 118.3 36.7044 118.141 36.3551 117.849C36.0058 117.558 35.7706 117.152 35.691 116.704C35.6113 116.257 35.6923 115.795 35.9197 115.401C36.147 115.007 36.5062 114.706 36.9338 114.55C53.046 108.613 70.7467 108.613 86.8588 114.55C87.0973 114.638 87.3161 114.772 87.503 114.944C87.6898 115.116 87.8409 115.323 87.9476 115.553C88.0543 115.784 88.1146 116.033 88.125 116.287C88.1354 116.541 88.0957 116.794 88.0082 117.033C87.9207 117.271 87.787 117.49 87.6149 117.677C87.4428 117.864 87.2356 118.015 87.0051 118.121C86.7746 118.228 86.5253 118.288 86.2715 118.299C86.0177 118.309 85.7644 118.27 85.5259 118.182C70.2754 112.555 53.5172 112.555 38.2667 118.182C38.0527 118.258 37.8274 118.297 37.6003 118.298Z" fill="#4D4C78"/>
<path d="M160.235 151.61C160.235 150.554 159.381 149.698 158.327 149.698C157.274 149.698 156.42 150.554 156.42 151.61V157.964C156.42 159.02 157.274 159.876 158.327 159.876C159.381 159.876 160.235 159.02 160.235 157.964V151.61Z" fill="#FAD564"/>
<path d="M183.193 58.0479C183.193 57.0291 182.368 56.2031 181.349 56.2031C180.33 56.2031 179.504 57.0291 179.504 58.0479V97.7986C179.504 98.8174 180.33 99.6434 181.349 99.6434C182.368 99.6434 183.193 98.8174 183.193 97.7986V58.0479Z" fill="#323150"/>
</svg>
