<svg width="40" height="40" viewBox="0 0 40 40" fill="none" xmlns="http://www.w3.org/2000/svg">
<path fill-rule="evenodd" clip-rule="evenodd" d="M20 0.493408C8.95 0.493408 0 9.44341 0 20.4934C0 29.3434 5.725 36.8184 13.675 39.4684C14.675 39.6434 15.05 39.0434 15.05 38.5184C15.05 38.0434 15.025 36.4684 15.025 34.7934C10 35.7184 8.7 33.5684 8.3 32.4434C8.075 31.8684 7.1 30.0934 6.25 29.6184C5.55 29.2434 4.55 28.3184 6.225 28.2934C7.8 28.2684 8.925 29.7434 9.3 30.3434C11.1 33.3684 13.975 32.5184 15.125 31.9934C15.3 30.6934 15.825 29.8184 16.4 29.3184C11.95 28.8184 7.3 27.0934 7.3 19.4434C7.3 17.2684 8.075 15.4684 9.35 14.0684C9.15 13.5684 8.45 11.5184 9.55 8.76841C9.55 8.76841 11.225 8.24341 15.05 10.8184C16.65 10.3684 18.35 10.1434 20.05 10.1434C21.75 10.1434 23.45 10.3684 25.05 10.8184C28.875 8.21841 30.55 8.76841 30.55 8.76841C31.65 11.5184 30.95 13.5684 30.75 14.0684C32.025 15.4684 32.8 17.2434 32.8 19.4434C32.8 27.1184 28.125 28.8184 23.675 29.3184C24.4 29.9434 25.025 31.1434 25.025 33.0184C25.025 35.6934 25 37.8434 25 38.5184C25 39.0434 25.375 39.6684 26.375 39.4684C30.3454 38.1281 33.7954 35.5763 36.2396 32.1725C38.6838 28.7686 39.9989 24.6839 40 20.4934C40 9.44341 31.05 0.493408 20 0.493408Z" fill="#55316E"/>
</svg>
