<svg width="199" height="198" viewBox="0 0 199 198" fill="none" xmlns="http://www.w3.org/2000/svg">
<path d="M171.703 25.1992H27.2969C18.0488 25.1992 10.5518 32.6586 10.5518 41.8602V156.131C10.5518 165.333 18.0488 172.792 27.2969 172.792H171.703C180.951 172.792 188.448 165.333 188.448 156.131V41.8602C188.448 32.6586 180.951 25.1992 171.703 25.1992Z" fill="#C8C2E9"/>
<path d="M188.448 48.0223V41.8699C188.448 32.6653 180.954 25.1992 171.703 25.1992H27.2969C18.0458 25.1992 10.5518 32.6653 10.5518 41.8699V48.0223H188.448Z" fill="#4D4C78"/>
<path d="M24.9571 40.1697C26.8336 40.1697 28.3547 38.6562 28.3547 36.7892C28.3547 34.9222 26.8336 33.4087 24.9571 33.4087C23.0807 33.4087 21.5596 34.9222 21.5596 36.7892C21.5596 38.6562 23.0807 40.1697 24.9571 40.1697Z" fill="white"/>
<path d="M37.0724 40.1697C38.9488 40.1697 40.4699 38.6562 40.4699 36.7892C40.4699 34.9222 38.9488 33.4087 37.0724 33.4087C35.1959 33.4087 33.6748 34.9222 33.6748 36.7892C33.6748 38.6562 35.1959 40.1697 37.0724 40.1697Z" fill="white"/>
<path d="M49.1866 40.1697C51.063 40.1697 52.5842 38.6562 52.5842 36.7892C52.5842 34.9222 51.063 33.4087 49.1866 33.4087C47.3102 33.4087 45.7891 34.9222 45.7891 36.7892C45.7891 38.6562 47.3102 40.1697 49.1866 40.1697Z" fill="white"/>
<path d="M180.061 164.552H35.6549C26.4038 164.552 18.9001 157.086 18.9001 147.891V33.6211C18.899 31.2199 19.4223 28.8471 20.4338 26.667C17.489 27.9835 14.9895 30.119 13.2363 32.8162C11.483 35.5134 10.5507 38.6574 10.5518 41.8695V156.13C10.5518 165.335 18.0458 172.801 27.2969 172.801H171.703C174.909 172.801 178.047 171.885 180.745 170.163C183.443 168.44 185.588 165.983 186.924 163.084C184.768 164.056 182.428 164.557 180.061 164.552Z" fill="#8A87B2"/>
<path d="M18.9001 33.6211C18.899 31.2199 19.4223 28.8471 20.4338 26.667C17.489 27.9835 14.9895 30.119 13.2363 32.8162C11.483 35.5134 10.5507 38.6574 10.5518 41.8695V48.022H18.9001V33.6211Z" fill="#323150"/>
<path d="M167.577 25.1992H137.358C133.203 25.1992 129.835 28.5499 129.835 32.6831C129.835 36.8164 133.203 40.1671 137.358 40.1671H167.577C171.732 40.1671 175.1 36.8164 175.1 32.6831C175.1 28.5499 171.732 25.1992 167.577 25.1992Z" fill="#64639C"/>
<path d="M179.013 64.2002H179.003C173.786 64.2002 169.558 68.4077 169.558 73.5979V117.222C169.558 122.412 173.786 126.619 179.003 126.619H179.013C184.229 126.619 188.458 122.412 188.458 117.222V73.5979C188.458 68.4077 184.229 64.2002 179.013 64.2002Z" fill="#DFDAFD"/>
<path d="M95.5202 68.4113L37.2375 91.2151C35.8688 91.7463 35.8688 93.6683 37.2375 94.1995L98.9081 118.327C99.2875 118.481 99.7129 118.481 100.092 118.327L161.763 94.1995C163.132 93.6683 163.132 91.7463 161.763 91.2151L103.48 68.4113C100.923 67.4072 98.0776 67.4072 95.5202 68.4113Z" fill="#4D4C78"/>
<path d="M78.3868 89.8628L59.0596 102.738L78.0762 110.175L78.3868 89.8628Z" fill="#323150"/>
<path d="M120.613 89.8628L139.941 102.738L120.924 110.175L120.613 89.8628Z" fill="#323150"/>
<path d="M128.438 134.099H70.5625L75.9209 92.5483C76.0037 91.9024 76.285 91.2978 76.7263 90.8172C77.1677 90.3365 77.7476 90.0033 78.3866 89.8632C93.7759 86.457 107.89 86.4344 120.73 89.7956C121.341 89.9561 121.891 90.2946 122.308 90.7679C122.724 91.2411 122.99 91.8275 123.069 92.4517L128.438 134.099Z" fill="#4D4C78"/>
<path d="M85.0458 99.0774C85.1285 98.4316 85.4098 97.827 85.8512 97.3463C86.2926 96.8657 86.8725 96.5325 87.5115 96.3924C100.351 93.5463 112.31 93.0602 123.39 94.9339L123.069 92.4517C122.99 91.8275 122.724 91.2411 122.308 90.7679C121.891 90.2946 121.341 89.9561 120.73 89.7956C107.884 86.4344 93.7695 86.457 78.3866 89.8632C77.7476 90.0033 77.1677 90.3365 76.7263 90.8172C76.285 91.2978 76.0037 91.9024 75.9209 92.5483L70.5625 134.099H80.5222L85.0458 99.0774Z" fill="#323150"/>
<path d="M99.5 137.644C115.482 137.644 128.438 136.057 128.438 134.099C128.438 132.142 115.482 130.555 99.5 130.555C83.5183 130.555 70.5625 132.142 70.5625 134.099C70.5625 136.057 83.5183 137.644 99.5 137.644Z" fill="#323150"/>
<path d="M142.63 127.493C142.44 127.494 142.253 127.458 142.077 127.387C141.902 127.316 141.742 127.21 141.608 127.078C141.473 126.945 141.367 126.787 141.294 126.613C141.221 126.439 141.184 126.252 141.184 126.063V85.2947C141.167 85.0965 141.192 84.897 141.257 84.7089C141.322 84.5208 141.426 84.3481 141.561 84.2018C141.697 84.0555 141.861 83.9388 142.044 83.8589C142.227 83.779 142.425 83.7378 142.625 83.7378C142.825 83.7378 143.023 83.779 143.206 83.8589C143.389 83.9388 143.553 84.0555 143.689 84.2018C143.824 84.3481 143.928 84.5208 143.993 84.7089C144.058 84.897 144.083 85.0965 144.067 85.2947V126.063C144.067 126.443 143.915 126.806 143.646 127.074C143.376 127.342 143.011 127.493 142.63 127.493Z" fill="#323150"/>
<path d="M142.416 141.594C141.761 141.594 141.112 141.466 140.507 141.216C139.902 140.967 139.351 140.601 138.888 140.14C138.425 139.679 138.057 139.132 137.807 138.529C137.556 137.927 137.427 137.282 137.427 136.63V128.642C137.397 127.971 137.504 127.301 137.742 126.672C137.979 126.044 138.342 125.469 138.809 124.984C139.276 124.499 139.836 124.112 140.457 123.849C141.078 123.585 141.746 123.449 142.421 123.449C143.096 123.449 143.764 123.585 144.385 123.849C145.006 124.112 145.566 124.499 146.033 124.984C146.5 125.469 146.863 126.044 147.101 126.672C147.338 127.301 147.445 127.971 147.416 128.642V136.63C147.413 137.947 146.885 139.21 145.948 140.141C145.011 141.071 143.74 141.594 142.416 141.594Z" fill="#4D4C78"/>
<path d="M139.941 139.354V131.366C139.945 130.527 140.161 129.703 140.57 128.969C140.979 128.236 141.568 127.617 142.281 127.17C142.995 126.723 143.81 126.463 144.651 126.413C145.493 126.363 146.333 126.525 147.095 126.884C146.678 125.8 145.894 124.895 144.877 124.326C143.86 123.757 142.675 123.56 141.527 123.769C140.38 123.977 139.342 124.579 138.593 125.469C137.844 126.359 137.431 127.481 137.427 128.642V136.63C137.427 137.568 137.694 138.487 138.197 139.28C138.701 140.073 139.42 140.708 140.271 141.111C140.053 140.551 139.941 139.955 139.941 139.354Z" fill="#323150"/>
<path d="M119.117 100.332L119.107 100.334C116.73 100.674 115.08 102.868 115.423 105.233L118.09 123.65C118.433 126.016 120.638 127.657 123.015 127.316L123.025 127.315C125.402 126.974 127.051 124.78 126.709 122.415L124.041 103.998C123.699 101.632 121.494 99.9913 119.117 100.332Z" fill="#64639C"/>
<path d="M106.982 75.0375L106.978 75.0466C106.161 77.2936 107.329 79.7746 109.587 80.5881L127.172 86.9216C129.43 87.735 131.924 86.5728 132.741 84.3257L132.744 84.3167C133.562 82.0696 132.394 79.5886 130.136 78.7752L112.551 72.4417C110.293 71.6283 107.799 72.7904 106.982 75.0375Z" fill="#64639C"/>
<path d="M145.27 129.453H145.26C144.129 129.453 143.212 130.366 143.212 131.491V135.608C143.212 136.733 144.129 137.645 145.26 137.645H145.27C146.401 137.645 147.318 136.733 147.318 135.608V131.491C147.318 130.366 146.401 129.453 145.27 129.453Z" fill="#64639C"/>
</svg>
