<svg width="232" height="165" viewBox="0 0 232 165" fill="none" xmlns="http://www.w3.org/2000/svg">
<path d="M223.861 101.672V73.7579C229.038 69.3335 232 62.9419 232 56.0968C232 46.4216 225.916 37.6606 216.855 34.2892L133.186 3.15017C121.85 -1.06948 109.228 -1.04754 97.9221 3.20136L15.0869 34.3039C6.06985 37.6898 0 46.4436 0 56.0895C0 65.7208 6.06985 74.4746 15.0869 77.8532L46.0724 89.4956L46.1382 130.851C47.5789 152.717 82.177 164.177 115.605 164.177C149.033 164.177 183.631 152.739 185.079 130.749L185.138 89.7077L212.043 79.6815V101.687C208.057 104.575 205.519 110.206 205.519 116.422C205.519 124.635 205.519 133.125 217.944 133.125C230.362 133.125 230.362 124.635 230.362 116.422C230.384 110.199 227.853 104.561 223.861 101.672ZM64.1942 96.3041L97.9221 108.97C109.221 113.227 121.865 113.241 133.208 109.036L167.045 96.4211V129.484C167.045 135.137 147.022 145.989 115.62 145.989C84.232 145.989 64.2015 135.158 64.2015 129.484L64.1942 96.3041ZM106.954 90.2635L37.794 64.3021C37.1724 64.0681 36.4045 63.8048 35.5415 63.5196C31.5779 62.1959 24.1917 59.7314 24.1917 56.1041C24.1917 52.4037 31.2415 50.0928 35.4465 48.7033C36.346 48.4108 37.1431 48.1402 37.794 47.9062L106.939 21.9228C109.725 20.8697 112.643 20.3505 115.605 20.3505C118.56 20.3505 121.448 20.8624 124.213 21.8936L194.06 47.8989C194.623 48.111 195.318 48.3523 196.093 48.6009C199.896 49.91 207.816 52.5792 207.816 56.1041C207.816 57.5229 205.497 60.0751 194.052 64.3094L124.22 90.3001C118.684 92.3624 112.504 92.3477 106.954 90.2635Z" fill="#11343C"/>
</svg>
