<svg width="98" height="69" viewBox="0 0 98 69" fill="none" xmlns="http://www.w3.org/2000/svg">
<path d="M94.0838 42.7305V30.9989C96.2599 29.1394 97.5047 26.4531 97.5047 23.5763C97.5047 19.51 94.9475 15.8279 91.1394 14.411L55.9751 1.32395C51.2112 -0.449479 45.9062 -0.440258 41.1546 1.34546L6.34069 14.4172C2.55103 15.8402 0 19.5192 0 23.5732C0 27.6211 2.55103 31.3001 6.34069 32.7201L19.3632 37.6131L19.3909 54.9939C19.9964 64.1838 34.5373 69 48.5864 69C62.6355 69 77.1763 64.193 77.7849 54.9509L77.8095 37.7022L89.117 33.4884V42.7367C87.4419 43.9507 86.3754 46.3173 86.3754 48.9298C86.3754 52.3814 86.3754 55.9498 91.5973 55.9498C96.8162 55.9498 96.8162 52.3814 96.8162 48.9298C96.8254 46.3143 95.762 43.9446 94.0838 42.7305ZM26.9794 40.4746L41.1546 45.7979C45.9032 47.5867 51.2173 47.5929 55.9843 45.8256L70.2056 40.5237V54.4192C70.2056 56.795 61.7902 61.3561 48.5925 61.3561C35.4009 61.3561 26.9825 56.8042 26.9825 54.4192L26.9794 40.4746ZM44.9504 37.9358L15.884 27.0248C15.6228 26.9265 15.3 26.8158 14.9374 26.6959C13.2715 26.1396 10.1672 25.1038 10.1672 23.5794C10.1672 22.0242 13.1301 21.0529 14.8974 20.469C15.2754 20.346 15.6105 20.2323 15.884 20.1339L44.9442 9.2137C46.1152 8.77111 47.3416 8.55289 48.5864 8.55289C49.8281 8.55289 51.0421 8.76804 52.2039 9.2014L81.5592 20.1309C81.7958 20.22 82.0878 20.3214 82.4136 20.4259C84.0119 20.9761 87.3405 22.0979 87.3405 23.5794C87.3405 24.1756 86.3662 25.2483 81.5561 27.0279L52.207 37.9512C49.8803 38.8179 47.2832 38.8118 44.9504 37.9358Z" fill="#EDF1F5"/>
</svg>
