<svg width="51" height="51" viewBox="0 0 51 51" fill="none" xmlns="http://www.w3.org/2000/svg">
<path fill-rule="evenodd" clip-rule="evenodd" d="M51 25.5C51 39.5833 39.5833 51 25.5 51C11.4167 51 0 39.5833 0 25.5C0 11.4167 11.4167 0 25.5 0C39.5833 0 51 11.4167 51 25.5ZM11.5 41.5V11H42L40.5 40.5L11.5 41.5Z" fill="#204C75"/>
<path d="M43.25 9.64706V40.3529C43.25 41.055 42.9827 41.7283 42.507 42.2247C42.0313 42.7211 41.386 43 40.7132 43H11.2868C10.614 43 9.96874 42.7211 9.493 42.2247C9.01727 41.7283 8.75 41.055 8.75 40.3529V9.64706C8.75 8.94502 9.01727 8.27173 9.493 7.77531C9.96874 7.27889 10.614 7 11.2868 7H40.7132C41.386 7 42.0313 7.27889 42.507 7.77531C42.9827 8.27173 43.25 8.94502 43.25 9.64706V9.64706ZM18.8971 20.7647H13.8235V37.7059H18.8971V20.7647ZM19.3537 14.9412C19.3564 14.5407 19.2834 14.1436 19.139 13.7726C18.9946 13.4016 18.7816 13.0638 18.5121 12.7787C18.2426 12.4936 17.922 12.2666 17.5684 12.1108C17.2149 11.955 16.8354 11.8734 16.4516 11.8706H16.3603C15.5799 11.8706 14.8314 12.1941 14.2795 12.7699C13.7277 13.3458 13.4176 14.1268 13.4176 14.9412C13.4176 15.7555 13.7277 16.5366 14.2795 17.1124C14.8314 17.6883 15.5799 18.0118 16.3603 18.0118V18.0118C16.7441 18.0216 17.126 17.9525 17.4842 17.8083C17.8423 17.664 18.1698 17.4476 18.4478 17.1713C18.7257 16.895 18.9488 16.5642 19.1043 16.1979C19.2597 15.8316 19.3445 15.437 19.3537 15.0365V14.9412ZM38.1765 27.4141C38.1765 22.3212 35.0715 20.3412 31.9868 20.3412C30.9768 20.2884 29.9712 20.5129 29.0703 20.9922C28.1693 21.4715 27.4046 22.189 26.8524 23.0729H26.7103V20.7647H21.9412V37.7059H27.0147V28.6953C26.9414 27.7725 27.2199 26.8567 27.7899 26.1469C28.3599 25.4372 29.1752 24.9908 30.0588 24.9047H30.2516C31.865 24.9047 33.0624 25.9635 33.0624 28.6318V37.7059H38.1359L38.1765 27.4141Z" fill="#204C75"/>
</svg>
