<svg width="1082" height="559" viewBox="0 0 1082 559" fill="none" xmlns="http://www.w3.org/2000/svg">
<mask id="mask0_377_298" style="mask-type:alpha" maskUnits="userSpaceOnUse" x="27" y="0" width="951" height="498">
<path d="M30.6243 94.2498C15.5086 47.7293 50.1856 0 99.1002 0H323.185C387.54 0 419.568 77.9868 373.789 123.217L241.15 254.269C228.981 266.292 237.495 287.022 254.601 287.022V287.022C259.607 287.022 264.414 285.06 267.991 281.558L534.545 20.5554C548.001 7.37921 566.085 0 584.918 0H904.919C969.483 0 1001.41 78.42 955.214 123.521L835.217 240.664C821.767 253.793 803.717 261.143 784.921 261.143H731.813C711.017 261.143 691.237 270.135 677.564 285.804L516.135 470.797C503.281 485.526 484.382 493.549 464.858 492.563V492.563C410.211 489.803 384.175 424.036 422.124 384.619L507.901 295.522C520.316 282.627 511.178 261.143 493.277 261.143V261.143C487.971 261.143 482.876 263.221 479.083 266.931L264.317 477C226.132 514.349 162.002 498.578 145.495 447.778L30.6243 94.2498Z" fill="#9A7AA8"/>
</mask>
<g mask="url(#mask0_377_298)">
<rect x="-43" y="-45" width="1063.91" height="542.247" fill="#9A7AA8"/>
<circle cx="444.5" cy="221.5" r="221.5" fill="#D9D9D9" fill-opacity="0.46"/>
</g>
</svg>
