<svg width="1018" height="826" viewBox="0 0 1018 826" fill="none" xmlns="http://www.w3.org/2000/svg">
<line x1="525" y1="381" x2="525" y2="185" stroke="#3D4754" stroke-width="10" stroke-linecap="round" stroke-dasharray="19 19"/>
<line x1="561" y1="651" x2="561" y2="455" stroke="#3D4754" stroke-width="10" stroke-linecap="round" stroke-dasharray="19 19"/>
<line x1="149" y1="547" x2="174" y2="547" stroke="#3D4754" stroke-width="10" stroke-linecap="round"/>
<line x1="206" y1="296" x2="238" y2="296" stroke="#3D4754" stroke-width="10" stroke-linecap="round"/>
<line x1="776" y1="250" x2="808" y2="250" stroke="#3D4754" stroke-width="10" stroke-linecap="round"/>
<line x1="828" y1="509" x2="860" y2="509" stroke="#3D4754" stroke-width="10" stroke-linecap="round"/>
<line x1="927" y1="596.016" x2="927" y2="574" stroke="#3D4754" stroke-width="10" stroke-linecap="round"/>
<line x1="449" y1="663" x2="481" y2="663" stroke="#3D4754" stroke-width="10" stroke-linecap="round"/>
<line x1="314" y1="246" x2="314" y2="214" stroke="#3D4754" stroke-width="10" stroke-linecap="round"/>
<line x1="777" y1="646" x2="777" y2="614" stroke="#3D4754" stroke-width="10" stroke-linecap="round"/>
<line x1="880" y1="204" x2="880" y2="172" stroke="#3D4754" stroke-width="10" stroke-linecap="round"/>
<path d="M475 443.5H434.5V329H391.5" stroke="#3D4754" stroke-width="10" stroke-linecap="round" stroke-dasharray="20 20"/>
<path d="M434.5 443.5V509.5H318.5" stroke="#3D4754" stroke-width="10" stroke-linecap="round" stroke-dasharray="20 20"/>
<path d="M622 409.5H733V269" stroke="#3D4754" stroke-width="10" stroke-linecap="round" stroke-dasharray="20 20"/>
<path d="M733 410V475" stroke="#3D4754" stroke-width="10" stroke-linecap="round" stroke-dasharray="20 20"/>
<g filter="url(#filter0_d_381_773)">
<rect x="237" y="236" width="155" height="180" rx="31" fill="#EDF1F5"/>
</g>
<g filter="url(#filter1_d_381_773)">
<rect x="304" y="627" width="155" height="180" rx="31" fill="#EDF1F5"/>
</g>
<g filter="url(#filter2_d_381_773)">
<rect x="1" y="475" width="155" height="180" rx="31" fill="#EDF1F5"/>
</g>
<g filter="url(#filter3_d_381_773)">
<rect x="171" y="436" width="155" height="180" rx="31" fill="#EDF1F5"/>
</g>
<g filter="url(#filter4_d_381_773)">
<rect x="474" y="337" width="155" height="155" rx="31" fill="#EDF1F5"/>
</g>
<g filter="url(#filter5_d_381_773)">
<rect x="474" y="544" width="155" height="180" rx="31" fill="#EDF1F5"/>
</g>
<g filter="url(#filter6_d_381_773)">
<rect x="807" width="155" height="180" rx="31" fill="#EDF1F5"/>
</g>
<g filter="url(#filter7_d_381_773)">
<rect x="807" y="196" width="155" height="180" rx="31" fill="#EDF1F5"/>
</g>
<g filter="url(#filter8_d_381_773)">
<rect x="684" y="638" width="155" height="180" rx="31" fill="#EDF1F5"/>
</g>
<g filter="url(#filter9_d_381_773)">
<rect x="684" y="443" width="155" height="180" rx="31" fill="#EDF1F5"/>
</g>
<g filter="url(#filter10_d_381_773)">
<rect x="854" y="398" width="155" height="180" rx="31" fill="#EDF1F5"/>
</g>
<g filter="url(#filter11_d_381_773)">
<rect x="637" y="125" width="155" height="180" rx="31" fill="#EDF1F5"/>
</g>
<g filter="url(#filter12_d_381_773)">
<rect x="854" y="593" width="155" height="180" rx="31" fill="#EDF1F5"/>
</g>
<g filter="url(#filter13_d_381_773)">
<rect x="237" y="33" width="155" height="180" rx="31" fill="#EDF1F5"/>
</g>
<g filter="url(#filter14_d_381_773)">
<rect x="437" y="77" width="155" height="180" rx="31" fill="#EDF1F5"/>
</g>
<rect x="698" y="152" width="57" height="108" rx="28.5" fill="white"/>
<g filter="url(#filter15_d_381_773)">
<rect x="67" y="187" width="155" height="180" rx="31" fill="#EDF1F5"/>
</g>
<path d="M489.656 396.043C489.656 396.043 486.629 393.852 490.266 390.93L498.734 383.336C498.734 383.336 501.16 380.777 503.723 383.008L581.898 442.336V470.786C581.898 470.786 581.859 475.254 576.141 474.762L489.656 396.043Z" fill="#2489CA"/>
<path d="M509.809 414.379L489.656 432.742C489.656 432.742 487.586 434.285 489.656 437.047L499.012 445.574C499.012 445.574 501.234 447.969 504.52 445.246L525.879 429.008L509.809 414.379Z" fill="#1070B3"/>
<path d="M545.184 414.531L582.137 386.246L581.898 357.949C581.898 357.949 580.32 351.773 575.055 354.99L525.879 399.851L545.184 414.531Z" fill="#0877B9"/>
<path d="M576.14 474.797C578.285 477 580.887 476.277 580.887 476.277L609.684 462.055C613.371 459.535 612.855 456.41 612.855 456.41V371.465C612.855 367.73 609.043 366.441 609.043 366.441L584.082 354.38C578.629 351.001 575.055 354.99 575.055 354.99C575.055 354.99 579.648 351.673 581.898 357.95V470.267C581.898 471.04 581.734 471.797 581.406 472.481C580.75 473.813 579.32 475.051 575.902 474.532L576.14 474.797Z" fill="#3C99D4"/>
<path d="M144.505 222.202C125.705 222.202 113.959 231.598 109.255 250.399C116.303 241.001 124.53 237.478 133.928 239.827C139.293 241.164 143.128 245.055 147.374 249.367C154.286 256.38 162.285 264.5 179.755 264.5C198.554 264.5 210.301 255.103 215.005 236.298C207.956 245.701 199.73 249.225 190.331 246.875C184.966 245.537 181.136 241.647 176.884 237.335C169.977 230.322 161.98 222.202 144.505 222.202V222.202ZM109.255 264.5C90.4556 264.5 78.7086 273.897 74.0049 292.702C81.0527 283.299 89.2791 279.775 98.6777 282.125C104.043 283.463 107.878 287.353 112.124 291.664C119.036 298.678 127.035 306.798 144.505 306.798C163.304 306.798 175.051 297.401 179.755 278.601C172.706 287.998 164.48 291.522 155.081 289.173C149.716 287.835 145.886 283.945 141.634 279.633C134.727 272.62 126.73 264.5 109.255 264.5Z" fill="#38B2AC"/>
<path d="M932 440.685C893.515 440.685 862.314 456.496 862.314 476C862.314 495.503 893.515 511.315 932 511.315C970.484 511.315 1001.69 495.503 1001.69 476C1001.69 456.496 970.484 440.685 932 440.685ZM913.867 482.88C912.204 484.436 910.358 485.078 908.324 485.74C906.29 486.402 903.702 486.266 900.555 486.266H893.423L891.446 497.672H883.118L890.549 458.891H906.564C911.382 458.891 914.896 460.276 917.106 462.805C919.315 465.334 919.979 468.924 919.098 473.455C918.734 475.322 918.122 477.058 917.257 478.605C916.361 480.201 915.217 481.644 913.867 482.88V482.88ZM938.175 486.266L941.461 469.818C941.835 467.892 941.699 466.462 941.05 465.763C940.399 465.062 939.017 464.594 936.903 464.594H930.299L926.043 486.266H917.781L925.212 448.625H933.475L931.499 458.891H938.86C943.492 458.891 946.685 459.82 948.443 461.435C950.201 463.05 950.728 465.263 950.025 468.881L946.568 486.266H938.175ZM984.096 473.516C983.733 475.383 983.119 477.089 982.256 478.635C981.391 480.183 980.262 481.598 978.867 482.88C977.204 484.436 975.356 485.078 973.323 485.74C971.291 486.402 968.701 486.266 965.554 486.266H958.421L956.446 497.672H948.118L955.548 458.891H971.564C976.382 458.891 979.896 460.276 982.104 462.805C984.311 465.334 984.976 468.985 984.096 473.516V473.516ZM968.407 464.594H962.703L959.593 480.562H964.659C968.015 480.562 970.518 480.232 972.16 478.966C973.805 477.702 974.912 475.74 975.488 472.782C976.04 469.941 975.79 467.725 974.736 466.557C973.681 465.389 971.572 464.594 968.407 464.594V464.594ZM903.409 464.594H897.703L894.593 480.562H899.659C903.015 480.562 905.517 480.232 907.16 478.966C908.804 477.702 909.913 475.74 910.488 472.782C911.04 469.941 910.789 467.725 909.735 466.557C908.681 465.389 906.573 464.594 903.409 464.594Z" fill="#6181B6"/>
<path d="M810.771 487.334L766.674 461.729C763.893 460.145 760.272 460.145 757.469 461.729L712.901 487.334C710.031 488.985 708 492.088 708 495.407V546.549C708 549.868 710.084 552.972 712.954 554.632L724.729 561.32C730.357 564.092 732.346 564.092 734.907 564.092C743.24 564.092 748 559.053 748 550.264V499.774C748 499.061 747.629 498 746.929 498H741.306C740.594 498 739 499.061 739 499.773V550.263C739 554.159 735.476 558.036 728.89 554.743L716.723 547.73C716.299 547.5 716 547.037 716 546.549V495.407C716 494.925 716.555 494.441 716.982 494.194L761.406 468.633C761.821 468.398 762.431 468.398 762.845 468.633L806.727 494.188C807.147 494.441 806.999 494.91 806.999 495.407V546.549C806.999 547.037 807.182 547.512 806.767 547.747L762.681 573.323C762.303 573.55 761.834 573.55 761.42 573.323L750.113 566.574C749.772 566.376 749.367 566.305 749.04 566.488C745.894 568.271 745.314 568.508 742.363 569.531C741.637 569.784 740.566 570.223 742.773 571.46L757.571 580.214C758.984 581.03 760.586 581.46 762.218 581.46C763.86 581.46 765.468 581.034 766.885 580.214L810.77 554.632C813.64 552.96 815 549.868 815 546.549V495.407C815 492.088 813.64 488.993 810.771 487.334V487.334ZM775.91 538.445C764.184 538.445 761.601 535.21 760.74 529.379C760.64 528.751 760.107 528 759.468 528H753.737C753.028 528 752.458 528.86 752.458 529.566C752.458 537.032 756.517 546.078 775.911 546.078C789.95 546.078 797.999 540.623 797.999 530.969C797.999 521.397 791.532 518.885 777.917 517.083C764.155 515.264 762.757 514.345 762.757 511.121C762.757 508.463 763.941 504.918 774.131 504.918C783.236 504.918 786.592 506.872 787.973 513.009C788.091 513.586 788.618 514 789.213 514H794.967C795.321 514 795.659 513.857 795.907 513.604C796.147 513.332 796.274 512.991 796.242 512.625C795.351 502.057 788.33 497.132 774.13 497.132C761.499 497.132 753.964 502.466 753.964 511.407C753.964 521.105 761.461 523.785 773.586 524.984C788.091 526.406 789.219 528.526 789.219 531.379C789.219 536.334 785.241 538.445 775.91 538.445Z" fill="#65A912"/>
<path d="M443.477 763.783L440.861 761.246C438.382 757.954 435.193 755.062 431.846 752.661C429.177 750.745 423.185 748.157 422.071 745.052L421.866 744.857C423.759 744.643 425.969 743.959 427.716 743.49C430.65 742.704 433.072 742.907 436.102 742.125C437.468 741.735 439.001 741.344 440.001 740.954V740.174C439.001 738.603 437.574 736.523 435.904 735.101C431.535 731.381 426.863 727.664 421.953 724.564C419.23 722.846 415.912 721.729 413.027 720.272C412.056 719.781 410.375 719.526 409.733 718.71C408.216 716.778 407.405 714.328 406.235 712.077C403.786 707.36 401.386 702.209 399.216 697.246C397.736 693.862 396.773 690.526 394.927 687.49C386.067 672.923 376.532 664.132 361.76 655.49C358.615 653.652 354.831 652.927 350.831 651.977C348.687 651.848 346.54 651.717 344.394 651.586C343.083 651.04 341.72 649.437 340.492 648.659C335.596 645.567 323.043 638.842 319.418 647.684C317.129 653.265 322.838 658.709 324.88 661.538C326.315 663.52 328.15 665.745 329.173 667.976C329.848 669.443 329.963 670.914 330.54 672.465C331.958 676.287 333.191 680.445 335.027 683.976C335.954 685.764 336.976 687.646 338.149 689.244C338.867 690.225 340.099 690.657 340.294 692.171C339.09 693.857 339.021 696.475 338.344 698.611C335.294 708.226 336.446 720.178 340.881 727.294C342.241 729.48 345.447 734.165 349.856 732.367C353.712 730.797 353.082 725.929 354.185 721.635C354.434 720.663 354 719.947 355 719.294V719.489C356.023 721.863 357.118 724.205 358.282 726.513C360.882 730.7 365.171 735.075 369.08 738.027C371.107 739.558 373 742.204 375 743.1V742.999H375.221C374.714 741.999 373.919 741.832 373.271 741.195C371.744 739.699 370.045 737.813 368.784 736.098C365.228 731.271 362.086 725.976 359.223 720.476C357.855 717.85 356.666 714.947 355.514 712.275C355.071 711.245 355.076 709.683 354.15 709.15C352.887 711.108 351.028 712.69 350.051 715.003C348.49 718.699 348.289 723.207 347.71 727.88C347.367 728.002 347.52 727.918 347.319 728.074C344.601 727.419 343.647 724.622 342.636 722.221C340.081 716.151 339.607 706.378 341.855 699.392C342.437 697.583 345.066 691.891 344.001 690.22C343.493 688.555 341.817 687.59 340.88 686.317C339.719 684.743 338.561 682.671 337.757 680.853C335.666 676.122 334.691 670.809 332.489 666.025C331.436 663.738 329.657 661.423 328.196 659.391C326.579 657.138 324.767 655.479 323.512 652.756C323.067 651.788 322.461 650.238 323.122 649.243C323.332 648.572 323.629 648.292 324.293 648.073C325.426 647.2 328.576 648.363 329.756 648.852C332.885 650.152 335.497 651.352 338.148 653.108C339.419 653.952 340.707 654.998 342.245 655.998H344.001C346.748 655.998 349.825 656.23 352.392 657.01C356.927 658.389 360.992 660.552 364.684 662.883C375.93 669.985 385.125 680.103 391.416 692.161C392.428 694.103 392.866 695.96 393.757 698.019C395.555 702.172 397.821 706.447 399.61 710.508C401.396 714.561 403.136 718.65 405.66 722.022C406.987 723.794 412.111 724.746 414.44 725.731C416.073 726.42 418.748 727.14 420.294 728.071C423.247 729.853 426.108 731.975 428.88 733.926C430.264 734.9 434.52 737.04 434.733 738.804C427.87 738.616 422.629 739.256 418.148 741.145C416.875 741.682 414.843 741.697 414.635 743.292C415.335 744.025 415.444 745.121 416 746.023C417.069 747.753 418.876 750.075 420.488 751.291C422.25 752.621 424.064 754.042 425.952 755.193C429.311 757.24 433.059 758.41 436.293 760.461C438.199 761.671 440.251 763.194 442.108 764.558C443.028 765.233 442.999 766.282 444.999 766.705V766.511C444 765.716 444.053 764.618 443.477 763.783V763.783ZM347.514 664.465C346.083 664.438 345 664.622 344 664.854V665H344.198C344.881 666 346.086 667.33 346.929 668.538L348.881 672.646L349.074 672.459C350.283 671.606 350.837 670.248 350.83 668.168C350.347 667.659 350.274 667.022 349.856 666.414C349.298 665.605 348.217 665.146 347.514 664.465V664.465Z" fill="#00618A"/>
<path d="M470.037 204.876L460.032 92.6609H569.968L559.952 204.859L514.933 217.339L470.037 204.876Z" fill="#E44D26"/>
<path d="M515 207.8L551.378 197.714L559.937 101.836H515V207.8Z" fill="#F16529"/>
<path d="M515 143.455H496.788L495.53 129.361H515V115.599H480.489L480.819 119.291L484.201 157.218H515V143.455ZM515 179.198L514.939 179.215L499.612 175.075L498.633 164.1H484.816L486.744 185.709L514.937 193.535L515 193.518V179.198Z" fill="#EBEBEB"/>
<path d="M514.952 143.455V157.218H531.899L530.302 175.067L514.952 179.21V193.529L543.167 185.709L543.374 183.384L546.608 147.151L546.943 143.455H543.235H514.952ZM514.952 115.599V129.361H548.196L548.472 126.269L549.1 119.291L549.429 115.599H514.952Z" fill="white"/>
<path fill-rule="evenodd" clip-rule="evenodd" d="M578.545 597.839C580.451 603.353 581.823 608.982 582.275 614.816C582.835 622.054 582.579 629.24 581.053 636.359C581.011 636.555 580.923 636.739 580.858 636.929C580.379 636.931 579.891 636.871 579.424 636.944C575.47 637.565 571.521 638.208 567.571 638.848C563.488 639.51 559.4 640.145 555.324 640.852C553.88 641.101 552.093 640.803 551.51 642.8C551.494 642.855 551.327 642.865 551.231 642.895L551.428 630.96L551.228 602.161L553.13 601.834C556.241 601.325 559.352 600.808 562.466 600.313C566.182 599.723 569.901 599.149 573.619 598.573C575.259 598.318 576.901 598.084 578.545 597.839V597.839Z" fill="#439934"/>
<path fill-rule="evenodd" clip-rule="evenodd" d="M547.303 677.689C545.296 675.964 543.219 674.314 541.296 672.5C530.944 662.736 523.373 651.245 519.644 637.39C518.617 633.577 517.932 629.702 517.712 625.762C517.558 623.005 517.334 620.223 517.529 617.48C518.048 610.184 519.103 602.958 521.242 595.93L521.36 595.766C521.568 596.043 521.867 596.287 521.973 596.6C524.062 602.751 526.135 608.907 528.198 615.067C534.679 634.423 541.152 653.784 547.644 673.135C547.771 673.513 548.1 673.823 548.336 674.164L547.303 677.689V677.689Z" fill="#45A538"/>
<path fill-rule="evenodd" clip-rule="evenodd" d="M578.545 597.839C576.901 598.084 575.258 598.318 573.618 598.571C569.9 599.147 566.181 599.72 562.465 600.311C559.351 600.806 556.24 601.322 553.129 601.832L551.227 602.158L551.212 600.917C551.149 599.897 551.041 598.878 551.029 597.858C550.947 591.353 550.896 584.848 550.816 578.343C550.766 574.271 550.691 570.2 550.608 566.13C550.557 563.6 550.502 561.07 550.388 558.544C550.326 557.186 550.108 555.836 550.019 554.479C549.969 553.699 550.038 552.913 550.053 552.129C551.023 554.009 551.972 555.903 552.97 557.768C554.546 560.718 557.056 562.891 559.316 565.263C568.249 574.634 574.592 585.531 578.545 597.839V597.839Z" fill="#46A037"/>
<path fill-rule="evenodd" clip-rule="evenodd" d="M551.23 642.894C551.326 642.863 551.494 642.854 551.509 642.799C552.092 640.802 553.88 641.1 555.324 640.85C559.399 640.145 563.488 639.509 567.57 638.847C571.52 638.207 575.469 637.563 579.423 636.942C579.891 636.869 580.379 636.929 580.857 636.928C580.119 639.564 579.537 642.258 578.6 644.821C577.536 647.73 576.248 650.568 574.882 653.35C572.835 657.5 570.303 661.392 567.337 664.944C565.059 667.684 562.519 670.217 559.973 672.719C558.565 674.103 556.906 675.23 555.363 676.473L554.963 676.2L553.521 674.967L552.029 671.698C551.011 667.884 550.455 663.962 550.374 660.015L550.401 659.349L550.604 656.468C550.672 655.485 550.762 654.503 550.804 653.517C550.957 649.976 551.09 646.435 551.23 642.894V642.894Z" fill="#409433"/>
<path fill-rule="evenodd" clip-rule="evenodd" d="M551.23 642.894C551.09 646.435 550.957 649.977 550.806 653.519C550.764 654.504 550.674 655.487 550.607 656.47L549.698 656.813C547.681 650.873 545.662 644.996 543.687 639.104C540.421 629.356 537.195 619.592 533.934 609.841C531.3 601.971 528.648 594.107 525.978 586.249C525.853 585.881 525.494 585.594 525.245 585.268L531.059 574.579C531.259 574.925 531.522 575.25 531.648 575.622C534.341 583.581 537.02 591.545 539.685 599.513C543.148 609.879 546.589 620.255 550.05 630.623C550.187 631.037 550.415 631.419 550.633 631.884L551.428 630.958L551.23 642.894V642.894Z" fill="#4FAA41"/>
<path fill-rule="evenodd" clip-rule="evenodd" d="M525.247 585.27C525.496 585.595 525.854 585.882 525.98 586.25C528.65 594.108 531.302 601.972 533.936 609.842C537.197 619.593 540.423 629.357 543.689 639.105C545.662 644.996 547.681 650.874 549.7 656.814L550.608 656.471L550.405 659.352L550.221 660.016C549.905 663.17 549.639 666.331 549.255 669.478C549.061 671.055 548.65 672.603 548.338 674.165C548.103 673.824 547.773 673.514 547.645 673.136C541.153 653.784 534.68 634.424 528.199 615.067C526.137 608.907 524.062 602.752 521.974 596.601C521.868 596.288 521.57 596.044 521.361 595.767L525.247 585.27V585.27Z" fill="#4AA73C"/>
<path fill-rule="evenodd" clip-rule="evenodd" d="M551.428 630.958L550.632 631.885C550.415 631.42 550.187 631.037 550.049 630.624C546.59 620.256 543.147 609.88 539.685 599.513C537.019 591.545 534.34 583.582 531.648 575.623C531.523 575.25 531.259 574.925 531.059 574.58L538.249 565.121C538.476 565.424 538.799 565.693 538.916 566.034C540.912 571.878 542.891 577.729 544.857 583.583C546.694 589.05 548.504 594.526 550.363 599.986C550.487 600.352 550.921 600.611 551.21 600.919L551.225 602.16C551.294 611.758 551.361 621.359 551.428 630.958V630.958Z" fill="#57AE47"/>
<path fill-rule="evenodd" clip-rule="evenodd" d="M551.213 600.917C550.923 600.608 550.489 600.35 550.365 599.984C548.506 594.524 546.696 589.048 544.859 583.581C542.893 577.726 540.915 571.877 538.918 566.032C538.801 565.691 538.478 565.422 538.251 565.119C540.589 562.829 542.855 560.458 545.287 558.274C547.449 556.334 549.188 554.253 549.267 551.187C549.271 551.06 549.337 550.933 549.44 550.577L550.056 552.128C550.04 552.912 549.97 553.697 550.021 554.478C550.111 555.835 550.329 557.185 550.391 558.542C550.505 561.068 550.559 563.599 550.61 566.128C550.692 570.199 550.767 574.27 550.818 578.342C550.898 584.847 550.95 591.352 551.032 597.857C551.042 598.879 551.148 599.897 551.213 600.917V600.917Z" fill="#60B24F"/>
<path fill-rule="evenodd" clip-rule="evenodd" d="M548.335 674.163C548.647 672.602 549.058 671.052 549.252 669.476C549.638 666.331 549.902 663.168 550.218 660.014L550.297 660.002L550.375 660.015C550.456 663.962 551.012 667.884 552.03 671.698C551.821 671.974 551.526 672.219 551.415 672.531C550.552 674.965 549.739 677.418 548.87 679.853C548.752 680.185 548.422 680.444 548.189 680.736L547.302 677.689L548.335 674.163V674.163Z" fill="#A9AA88"/>
<path fill-rule="evenodd" clip-rule="evenodd" d="M548.19 680.737C548.423 680.445 548.754 680.186 548.872 679.854C549.74 677.419 550.555 674.967 551.417 672.532C551.527 672.221 551.822 671.975 552.032 671.699L553.522 674.97C553.228 675.388 552.822 675.764 552.658 676.23L549.803 684.612C549.685 684.948 549.284 685.186 549.016 685.469L548.19 680.737V680.737Z" fill="#B6B598"/>
<path fill-rule="evenodd" clip-rule="evenodd" d="M549.016 685.469C549.285 685.186 549.685 684.947 549.803 684.611L552.658 676.229C552.82 675.764 553.228 675.387 553.522 674.969L554.965 676.2C554.268 676.889 553.881 677.685 554.114 678.69L553.675 680.125C553.476 680.371 553.187 680.584 553.089 680.866C552.092 683.719 551.141 686.588 550.138 689.442C550.011 689.804 549.658 690.088 549.409 690.406C549.279 688.759 549.147 687.116 549.016 685.469V685.469Z" fill="#C2C1A7"/>
<path fill-rule="evenodd" clip-rule="evenodd" d="M549.41 690.406C549.658 690.086 550.011 689.803 550.139 689.442C551.142 686.589 552.094 683.72 553.09 680.866C553.188 680.585 553.476 680.37 553.676 680.125L553.072 686.709C552.911 686.896 552.677 687.058 552.599 687.276C551.917 689.192 551.273 691.123 550.588 693.04C550.446 693.435 550.176 693.784 549.964 694.154C549.777 693.908 549.441 693.67 549.425 693.414C549.365 692.415 549.406 691.409 549.41 690.406V690.406Z" fill="#CECDB7"/>
<path fill-rule="evenodd" clip-rule="evenodd" d="M549.963 694.154C550.174 693.783 550.445 693.434 550.586 693.04C551.273 691.125 551.915 689.194 552.598 687.276C552.675 687.059 552.91 686.897 553.071 686.709L553.085 691.032L551.638 694.742L549.963 694.154V694.154Z" fill="#DBDAC7"/>
<path fill-rule="evenodd" clip-rule="evenodd" d="M551.639 694.743L553.085 691.033L553.383 695.422L551.639 694.743V694.743Z" fill="#EBE9DC"/>
<path fill-rule="evenodd" clip-rule="evenodd" d="M554.114 678.691C553.881 677.686 554.267 676.889 554.965 676.201L555.365 676.474L554.114 678.691V678.691Z" fill="#CECDB7"/>
<path fill-rule="evenodd" clip-rule="evenodd" d="M550.376 660.017L550.297 660.004L550.219 660.015L550.403 659.352L550.376 660.017V660.017Z" fill="#4FAA41"/>
<path fill-rule="evenodd" clip-rule="evenodd" d="M79.0003 494.103C45.6533 494.103 18.6123 521.138 18.6123 554.491C18.6123 581.173 35.9153 603.808 59.9093 611.794C62.9263 612.354 64.0343 610.484 64.0343 608.889C64.0343 607.449 63.9783 602.692 63.9523 597.646C47.1523 601.299 43.6073 590.521 43.6073 590.521C40.8603 583.541 36.9023 581.685 36.9023 581.685C31.4223 577.937 37.3153 578.015 37.3153 578.015C43.3783 578.44 46.5723 584.238 46.5723 584.238C51.9583 593.468 60.6993 590.8 64.1453 589.258C64.6873 585.355 66.2523 582.69 67.9793 581.182C54.5663 579.657 40.4653 574.478 40.4653 551.339C40.4653 544.746 42.8253 539.359 46.6883 535.129C46.0603 533.609 43.9933 527.467 47.2723 519.149C47.2723 519.149 52.3423 517.526 63.8823 525.339C68.7003 524 73.8673 523.327 79.0003 523.304C84.1303 523.327 89.3003 523.998 94.1273 525.337C105.653 517.524 110.717 519.147 110.717 519.147C114.004 527.464 111.937 533.607 111.31 535.127C115.182 539.357 117.525 544.744 117.525 551.337C117.525 574.531 103.398 579.637 89.9513 581.133C92.1183 583.007 94.0483 586.683 94.0483 592.316C94.0483 600.396 93.9783 606.899 93.9783 608.888C93.9783 610.495 95.0663 612.378 98.1263 611.785C122.106 603.791 139.389 581.163 139.389 554.491C139.388 521.14 112.35 494.104 79.0003 494.104V494.103Z" fill="#2D2633"/>
<path d="M41.4846 580.806C41.3516 581.106 40.8796 581.196 40.4496 580.991C40.0096 580.795 39.7646 580.386 39.9066 580.085C40.0366 579.775 40.5096 579.69 40.9466 579.897C41.3866 580.094 41.6366 580.507 41.4836 580.807L41.4846 580.806ZM43.9306 583.535C43.6436 583.802 43.0806 583.678 42.6986 583.255C42.3026 582.835 42.2286 582.272 42.5216 582.001C42.8196 581.735 43.3656 581.861 43.7616 582.281C44.1556 582.707 44.2336 583.265 43.9316 583.536L43.9306 583.535ZM46.3126 587.012C45.9426 587.27 45.3366 587.029 44.9626 586.492C44.5926 585.954 44.5926 585.309 44.9726 585.052C45.3456 584.794 45.9426 585.027 46.3226 585.559C46.6906 586.104 46.6906 586.749 46.3126 587.011V587.012ZM49.5736 590.373C49.2436 590.738 48.5376 590.64 48.0216 590.143C47.4946 589.656 47.3476 588.963 47.6786 588.599C48.0146 588.233 48.7236 588.335 49.2426 588.829C49.7696 589.315 49.9286 590.009 49.5756 590.372L49.5736 590.373ZM54.0736 592.324C53.9266 592.797 53.2486 593.012 52.5636 592.81C51.8806 592.603 51.4336 592.05 51.5736 591.572C51.7136 591.095 52.3966 590.872 53.0856 591.087C53.7686 591.293 54.2156 591.843 54.0736 592.324ZM59.0166 592.685C59.0336 593.183 58.4536 593.595 57.7366 593.605C57.0136 593.622 56.4286 593.218 56.4216 592.728C56.4216 592.225 56.9896 591.818 57.7116 591.804C58.4286 591.791 59.0176 592.191 59.0176 592.684L59.0166 592.685ZM63.6146 591.903C63.7006 592.388 63.2016 592.887 62.4886 593.02C61.7886 593.15 61.1386 592.848 61.0486 592.367C60.9626 591.869 61.4706 591.37 62.1706 591.241C62.8846 591.118 63.5246 591.411 63.6146 591.904V591.903Z" fill="#2D2633"/>
<path d="M309.737 508.378L254.621 453.264C251.449 450.09 246.301 450.09 243.124 453.264L231.68 464.71L246.198 479.228C249.573 478.089 253.441 478.853 256.13 481.542C258.833 484.248 259.591 488.149 258.424 491.535L272.416 505.528C275.801 504.361 279.708 505.115 282.41 507.823C286.19 511.6 286.19 517.723 282.41 521.502C281.512 522.401 280.445 523.113 279.271 523.6C278.097 524.086 276.839 524.337 275.569 524.337C274.298 524.337 273.04 524.086 271.866 523.6C270.692 523.113 269.625 522.401 268.727 521.502C267.377 520.151 266.457 518.432 266.083 516.56C265.708 514.688 265.896 512.747 266.622 510.981L253.574 497.933L253.572 532.274C254.519 532.74 255.383 533.357 256.131 534.102C259.909 537.879 259.909 544 256.131 547.785C252.352 551.562 246.227 551.562 242.452 547.785C238.674 544.001 238.674 537.88 242.452 534.102C243.357 533.195 244.434 532.478 245.619 531.992V497.333C244.433 496.848 243.356 496.13 242.452 495.222C239.59 492.362 238.901 488.162 240.369 484.646L226.056 470.333L188.264 508.123C186.739 509.648 185.883 511.716 185.883 513.873C185.883 516.029 186.739 518.098 188.264 519.623L243.381 574.737C246.555 577.911 251.701 577.911 254.88 574.737L309.738 519.879C311.262 518.353 312.119 516.285 312.118 514.128C312.118 511.971 311.262 509.903 309.737 508.378V508.378Z" fill="#F34F29"/>
<path d="M296.5 176C308.4 176 318 166.4 318 154.5V133H296.5C284.6 133 275 142.6 275 154.5C275 166.4 284.6 176 296.5 176Z" fill="#0ACF83"/>
<path d="M275 111.5C275 99.6 284.6 90 296.5 90H318V133H296.5C284.6 133 275 123.4 275 111.5Z" fill="#A259FF"/>
<path d="M275 68.5C275 56.6 284.6 47 296.5 47H318V90H296.5C284.6 90 275 80.4 275 68.5Z" fill="#F24E1E"/>
<path d="M318 47H339.5C351.4 47 361 56.6 361 68.5C361 80.4 351.4 90 339.5 90H318V47Z" fill="#FF7262"/>
<path d="M361 111.5C361 123.4 351.4 133 339.5 133C327.6 133 318 123.4 318 111.5C318 99.6 327.6 90 339.5 90C351.4 90 361 99.6 361 111.5Z" fill="#1ABCFE"/>
<path d="M269.814 364.123L259.76 251.352H370.24L360.176 364.106L314.933 376.649L269.814 364.123V364.123Z" fill="#1572B6"/>
<path d="M315.001 367.062L351.56 356.926L360.161 260.572H315.001V367.062Z" fill="#33A9DC"/>
<path d="M315.001 301.429H333.303L334.567 287.266H315.001V273.435H349.683L349.351 277.146L345.951 315.26H315.001V301.429Z" fill="white"/>
<path d="M315.083 337.349L315.022 337.367L299.619 333.208L298.634 322.177H284.752L286.689 343.894L315.02 351.757L315.083 351.739V337.349V337.349Z" fill="#EBEBEB"/>
<path d="M332.127 314.675L330.461 333.197L315.035 337.361V351.751L343.389 343.893L343.597 341.556L346.003 314.675H332.127Z" fill="white"/>
<path d="M315.048 273.435V287.266H281.64L281.363 284.158L280.733 277.146L280.402 273.435H315.048V273.435ZM315.001 301.431V315.262H299.792L299.515 312.154L298.884 305.142L298.554 301.431H315.001V301.431Z" fill="#EBEBEB"/>
<path d="M885.001 284.4C891.297 284.4 896.401 279.296 896.401 273C896.401 266.704 891.297 261.6 885.001 261.6C878.705 261.6 873.601 266.704 873.601 273C873.601 279.296 878.705 284.4 885.001 284.4Z" fill="#00A5D2"/>
<path d="M928.3 254.2C926.1 253.4 923.8 252.6 921.4 251.9C922 249.5 922.5 247.1 922.9 244.8C925 231.6 922.7 222.3 916.3 218.7C914.4 217.6 912.3 217.1 909.9 217.1C902.9 217.1 894 222.3 885 231C876 222.3 867.1 217.1 860.1 217.1C857.7 217.1 855.6 217.6 853.7 218.7C847.3 222.4 845 231.7 847.1 244.8C847.5 247.1 848 249.5 848.6 251.9C846.2 252.6 843.9 253.3 841.7 254.2C829.2 259 822.4 265.6 822.4 273C822.4 280.4 829.3 287 841.7 291.8C843.9 292.6 846.2 293.4 848.6 294.1C848 296.5 847.5 298.9 847.1 301.2C845 314.4 847.3 323.7 853.7 327.3C855.6 328.4 857.7 328.9 860.1 328.9C867.2 328.9 876.1 323.7 885 315C894 323.7 902.9 328.9 909.9 328.9C912.3 328.9 914.4 328.4 916.3 327.3C922.7 323.6 925 314.3 922.9 301.2C922.5 298.9 922 296.5 921.4 294.1C923.8 293.4 926.1 292.7 928.3 291.8C940.8 287 947.6 280.4 947.6 273C947.6 265.6 940.8 259 928.3 254.2V254.2ZM913.5 223.7C917.6 226.1 919 233.5 917.3 244C917 246.1 916.5 248.3 915.9 250.6C910.7 249.4 905.2 248.6 899.4 248.1C896 243.3 892.5 239 889 235.1C896.4 227.8 903.9 222.8 910 222.8C911.3 222.8 912.5 223.1 913.5 223.7V223.7ZM902.3 283C900.5 286.2 898.4 289.4 896.2 292.6C892.5 292.9 888.8 293 885 293C881.1 293 877.4 292.9 873.8 292.6C871.6 289.4 869.6 286.2 867.8 283C865.9 279.7 864.1 276.3 862.5 273C864.1 269.7 865.9 266.3 867.8 263C869.6 259.8 871.7 256.6 873.9 253.4C877.6 253.1 881.3 253 885.1 253C889 253 892.7 253.1 896.3 253.4C898.5 256.6 900.5 259.8 902.3 263C904.2 266.3 906 269.7 907.6 273C905.9 276.3 904.2 279.6 902.3 283ZM910.6 279.7C912.1 283.2 913.3 286.6 914.4 290C911 290.8 907.4 291.4 903.6 291.9C904.8 290 906.1 288 907.2 285.9C908.4 283.8 909.5 281.7 910.6 279.7ZM885 306.8C882.6 304.2 880.3 301.4 878.1 298.5C880.4 298.6 882.7 298.7 885 298.7C887.3 298.7 889.6 298.6 891.9 298.5C889.7 301.4 887.4 304.2 885 306.8ZM866.4 291.8C862.6 291.3 859 290.7 855.6 289.9C856.7 286.6 857.9 283.1 859.4 279.6C860.5 281.6 861.6 283.7 862.8 285.7C864 287.9 865.2 289.8 866.4 291.8V291.8ZM859.4 266.3C857.9 262.8 856.7 259.4 855.6 256C859 255.2 862.6 254.6 866.4 254.1C865.2 256 863.9 258 862.8 260.1C861.6 262.2 860.5 264.3 859.4 266.3V266.3ZM885 239.2C887.4 241.8 889.7 244.6 891.9 247.5C889.6 247.4 887.3 247.3 885 247.3C882.7 247.3 880.4 247.4 878.1 247.5C880.3 244.6 882.6 241.8 885 239.2ZM907.2 260.2L903.6 254.2C907.4 254.7 911 255.3 914.4 256.1C913.3 259.4 912.1 262.9 910.6 266.4C909.5 264.3 908.4 262.2 907.2 260.2ZM852.7 244C851 233.5 852.4 226.1 856.5 223.7C857.5 223.1 858.7 222.8 860 222.8C866 222.8 873.5 227.7 881 235.1C877.5 238.9 874 243.3 870.6 248.1C864.8 248.6 859.3 249.5 854.1 250.6C853.5 248.3 853.1 246.1 852.7 244V244ZM828 273C828 268.3 833.7 263.3 843.7 259.6C845.7 258.8 847.9 258.1 850.1 257.5C851.7 262.5 853.7 267.8 856.1 273.1C853.7 278.4 851.6 283.6 850.1 288.6C836.3 284.6 828 278.6 828 273ZM856.5 322.3C852.4 319.9 851 312.5 852.7 302C853 299.9 853.5 297.7 854.1 295.4C859.3 296.6 864.8 297.4 870.6 297.9C874 302.7 877.5 307 881 310.9C873.6 318.2 866.1 323.2 860 323.2C858.7 323.2 857.5 322.9 856.5 322.3ZM917.3 302C919 312.5 917.6 319.9 913.5 322.3C912.5 322.9 911.3 323.2 910 323.2C904 323.2 896.5 318.3 889 310.9C892.5 307.1 896 302.7 899.4 297.9C905.2 297.4 910.7 296.5 915.9 295.4C916.5 297.7 916.9 299.9 917.3 302V302ZM926.3 286.4C924.3 287.2 922.1 287.9 919.9 288.5C918.3 283.5 916.3 278.2 913.9 272.9C916.3 267.6 918.4 262.4 919.9 257.4C933.7 261.4 942 267.4 942 273C942 277.7 936.2 282.7 926.3 286.4Z" fill="#00A5D2"/>
<path d="M909.69 101.11C900.69 119.51 884.93 131.89 864.08 135.96C860.883 136.743 857.601 137.126 854.31 137.1C842.31 137.1 831.31 132.1 825.97 123.91C818.8 113 816.36 89.87 840 72.76C840.48 75.37 841.46 78.95 842.11 81.07C837.47 84.5177 833.671 88.9727 831 94.1C826.6 102.74 827.09 111.37 832.3 119.35C835.9 124.73 841.6 128 848.93 129C858.086 130.159 867.374 128.41 875.48 124C888.19 117.32 896.66 109.34 902.2 98.43C900.634 96.8111 899.706 94.6797 899.59 92.43C899.506 90.0159 900.384 87.6671 902.03 85.8992C903.676 84.1313 905.956 83.0886 908.37 83H908.71C911.058 82.9882 913.321 83.8795 915.03 85.4895C916.739 87.0994 917.764 89.3048 917.892 91.6493C918.021 93.9937 917.243 96.2979 915.72 98.0849C914.197 99.872 912.045 101.005 909.71 101.25L909.69 101.11ZM938.36 80.91C950.57 94.75 950.9 111.04 946.18 120.49C941.78 129.12 930.18 137.76 914.58 137.76C907.298 137.611 900.134 135.889 893.58 132.71C895.87 131.08 899.12 128.47 900.91 126.84C905.964 129.029 911.403 130.192 916.91 130.26C927.01 130.26 934.66 125.54 939.22 116.91C942.15 111.21 942.32 104.53 939.55 97.69C936.151 89.0838 930.103 81.7818 922.28 76.84C912.017 69.9214 899.918 66.2332 887.54 66.25H884.61C883.927 67.8283 882.815 69.1837 881.402 70.1628C879.988 71.1419 878.328 71.7056 876.61 71.79H876.3C873.924 71.7608 871.653 70.8065 869.97 69.1299C868.286 67.4533 867.323 65.1864 867.284 62.8107C867.245 60.435 868.133 58.1377 869.761 56.4067C871.388 54.6756 873.627 53.6473 876 53.54H876.33C877.984 53.5412 879.606 53.9983 881.017 54.8609C882.429 55.7236 883.575 56.9585 884.33 58.43H886.94C907.74 58.43 926 66.41 938.36 80.91V80.91ZM855.61 103.91C855.439 102.249 855.841 100.58 856.75 99.18C847.63 83.38 842.75 63.35 850.24 42.5C855.61 26.83 869.13 16.24 883.79 16.24C899.43 16.24 915.72 29.93 917.67 56.31C915.23 55.5 911.67 54.31 909.53 53.87C909 45.24 901.71 23.74 884.44 24.06C878.25 24.23 869.13 27.16 864.44 33.18C858.639 40.3662 855.264 49.206 854.8 58.43C853.701 71.0777 856.668 83.7461 863.27 94.59C863.635 94.4568 864.023 94.4023 864.41 94.43H864.73C867.149 94.3862 869.486 95.3051 871.227 96.9845C872.969 98.6639 873.971 100.966 874.015 103.385C874.059 105.804 873.14 108.141 871.461 109.882C869.781 111.623 867.479 112.626 865.06 112.67H864.73C862.37 112.662 860.105 111.743 858.406 110.105C856.707 108.468 855.705 106.238 855.61 103.88V103.91Z" fill="#764ABC"/>
<mask id="path-78-outside-1_381_773" maskUnits="userSpaceOnUse" x="879" y="610" width="115" height="119" fill="black">
<rect fill="white" x="879" y="610" width="115" height="119"/>
<path fill-rule="evenodd" clip-rule="evenodd" d="M992.936 637.468C992.978 637.624 993 637.785 993 637.947V663.061C993 663.383 992.915 663.7 992.755 663.978C992.594 664.257 992.363 664.489 992.085 664.649L971.128 676.785V700.839C971.128 701.493 970.782 702.098 970.217 702.427L926.471 727.756C926.371 727.813 926.261 727.85 926.152 727.889C926.111 727.903 926.073 727.928 926.029 727.939C925.723 728.02 925.402 728.02 925.096 727.939C925.046 727.926 925.001 727.898 924.953 727.88C924.853 727.843 924.748 727.811 924.652 727.756L880.915 702.427C880.637 702.267 880.406 702.035 880.246 701.756C880.085 701.478 880 701.161 880 700.839V625.498C880 625.333 880.023 625.173 880.064 625.017C880.077 624.964 880.109 624.916 880.127 624.864C880.162 624.767 880.193 624.669 880.244 624.58C880.278 624.52 880.328 624.472 880.369 624.417C880.421 624.344 880.469 624.268 880.53 624.204C880.583 624.152 880.651 624.113 880.71 624.067C880.776 624.012 880.835 623.953 880.91 623.909L902.783 611.245C903.059 611.084 903.373 611 903.693 611C904.012 611 904.326 611.084 904.603 611.245L926.473 623.909H926.478C926.55 623.955 926.612 624.012 926.678 624.065C926.737 624.11 926.803 624.152 926.855 624.202C926.919 624.268 926.965 624.344 927.019 624.417C927.058 624.472 927.11 624.52 927.142 624.58C927.194 624.671 927.224 624.767 927.26 624.864C927.279 624.916 927.311 624.964 927.324 625.019C927.366 625.175 927.388 625.336 927.388 625.498V672.555L945.612 662.001V637.945C945.612 637.784 945.635 637.622 945.676 637.468C945.692 637.414 945.721 637.365 945.74 637.313C945.776 637.217 945.808 637.118 945.858 637.029C945.892 636.969 945.942 636.921 945.981 636.866C946.035 636.793 946.081 636.718 946.145 636.654C946.197 636.601 946.263 636.562 946.322 636.516C946.39 636.461 946.45 636.402 946.522 636.358L968.397 623.694C968.674 623.533 968.988 623.449 969.307 623.449C969.627 623.449 969.941 623.533 970.217 623.694L992.087 636.358C992.165 636.404 992.224 636.461 992.292 636.514C992.349 636.56 992.415 636.601 992.467 636.651C992.531 636.718 992.577 636.793 992.631 636.866C992.672 636.921 992.722 636.969 992.754 637.029C992.807 637.118 992.836 637.217 992.873 637.313C992.893 637.365 992.923 637.414 992.936 637.468ZM989.354 662.001V641.117L981.701 645.548L971.128 651.671V672.555L989.357 662.001H989.354ZM967.484 699.779V678.881L957.084 684.855L927.386 701.903V722.998L967.484 699.779ZM883.646 628.668V699.779L923.74 722.995V701.905L902.794 689.983L902.787 689.978L902.778 689.973C902.707 689.932 902.648 689.873 902.582 689.822C902.525 689.777 902.459 689.74 902.409 689.69L902.405 689.683C902.346 689.625 902.305 689.555 902.255 689.49C902.209 689.429 902.154 689.376 902.118 689.312L902.116 689.305C902.075 689.236 902.05 689.154 902.02 689.076C901.991 689.007 901.952 688.943 901.934 688.87C901.911 688.783 901.906 688.689 901.897 688.6C901.888 688.531 901.87 688.463 901.87 688.394V688.389V639.222L891.299 633.097L883.646 628.668ZM903.695 614.948L885.473 625.498L903.691 636.047L921.91 625.495L903.691 614.948H903.695ZM913.171 680.786L923.742 674.665V628.668L916.089 633.099L905.516 639.222V685.219L913.171 680.786ZM969.307 627.397L951.088 637.947L969.307 648.496L987.525 637.945L969.307 627.397ZM967.484 651.671L956.911 645.548L949.258 641.117V662.001L959.829 668.121L967.484 672.555V651.671ZM925.56 698.733L952.285 683.388L965.643 675.72L947.437 665.178L926.475 677.316L907.37 688.378L925.56 698.733Z"/>
</mask>
<path fill-rule="evenodd" clip-rule="evenodd" d="M992.936 637.468C992.978 637.624 993 637.785 993 637.947V663.061C993 663.383 992.915 663.7 992.755 663.978C992.594 664.257 992.363 664.489 992.085 664.649L971.128 676.785V700.839C971.128 701.493 970.782 702.098 970.217 702.427L926.471 727.756C926.371 727.813 926.261 727.85 926.152 727.889C926.111 727.903 926.073 727.928 926.029 727.939C925.723 728.02 925.402 728.02 925.096 727.939C925.046 727.926 925.001 727.898 924.953 727.88C924.853 727.843 924.748 727.811 924.652 727.756L880.915 702.427C880.637 702.267 880.406 702.035 880.246 701.756C880.085 701.478 880 701.161 880 700.839V625.498C880 625.333 880.023 625.173 880.064 625.017C880.077 624.964 880.109 624.916 880.127 624.864C880.162 624.767 880.193 624.669 880.244 624.58C880.278 624.52 880.328 624.472 880.369 624.417C880.421 624.344 880.469 624.268 880.53 624.204C880.583 624.152 880.651 624.113 880.71 624.067C880.776 624.012 880.835 623.953 880.91 623.909L902.783 611.245C903.059 611.084 903.373 611 903.693 611C904.012 611 904.326 611.084 904.603 611.245L926.473 623.909H926.478C926.55 623.955 926.612 624.012 926.678 624.065C926.737 624.11 926.803 624.152 926.855 624.202C926.919 624.268 926.965 624.344 927.019 624.417C927.058 624.472 927.11 624.52 927.142 624.58C927.194 624.671 927.224 624.767 927.26 624.864C927.279 624.916 927.311 624.964 927.324 625.019C927.366 625.175 927.388 625.336 927.388 625.498V672.555L945.612 662.001V637.945C945.612 637.784 945.635 637.622 945.676 637.468C945.692 637.414 945.721 637.365 945.74 637.313C945.776 637.217 945.808 637.118 945.858 637.029C945.892 636.969 945.942 636.921 945.981 636.866C946.035 636.793 946.081 636.718 946.145 636.654C946.197 636.601 946.263 636.562 946.322 636.516C946.39 636.461 946.45 636.402 946.522 636.358L968.397 623.694C968.674 623.533 968.988 623.449 969.307 623.449C969.627 623.449 969.941 623.533 970.217 623.694L992.087 636.358C992.165 636.404 992.224 636.461 992.292 636.514C992.349 636.56 992.415 636.601 992.467 636.651C992.531 636.718 992.577 636.793 992.631 636.866C992.672 636.921 992.722 636.969 992.754 637.029C992.807 637.118 992.836 637.217 992.873 637.313C992.893 637.365 992.923 637.414 992.936 637.468ZM989.354 662.001V641.117L981.701 645.548L971.128 651.671V672.555L989.357 662.001H989.354ZM967.484 699.779V678.881L957.084 684.855L927.386 701.903V722.998L967.484 699.779ZM883.646 628.668V699.779L923.74 722.995V701.905L902.794 689.983L902.787 689.978L902.778 689.973C902.707 689.932 902.648 689.873 902.582 689.822C902.525 689.777 902.459 689.74 902.409 689.69L902.405 689.683C902.346 689.625 902.305 689.555 902.255 689.49C902.209 689.429 902.154 689.376 902.118 689.312L902.116 689.305C902.075 689.236 902.05 689.154 902.02 689.076C901.991 689.007 901.952 688.943 901.934 688.87C901.911 688.783 901.906 688.689 901.897 688.6C901.888 688.531 901.87 688.463 901.87 688.394V688.389V639.222L891.299 633.097L883.646 628.668ZM903.695 614.948L885.473 625.498L903.691 636.047L921.91 625.495L903.691 614.948H903.695ZM913.171 680.786L923.742 674.665V628.668L916.089 633.099L905.516 639.222V685.219L913.171 680.786ZM969.307 627.397L951.088 637.947L969.307 648.496L987.525 637.945L969.307 627.397ZM967.484 651.671L956.911 645.548L949.258 641.117V662.001L959.829 668.121L967.484 672.555V651.671ZM925.56 698.733L952.285 683.388L965.643 675.72L947.437 665.178L926.475 677.316L907.37 688.378L925.56 698.733Z" fill="#AD2119"/>
<path fill-rule="evenodd" clip-rule="evenodd" d="M992.936 637.468C992.978 637.624 993 637.785 993 637.947V663.061C993 663.383 992.915 663.7 992.755 663.978C992.594 664.257 992.363 664.489 992.085 664.649L971.128 676.785V700.839C971.128 701.493 970.782 702.098 970.217 702.427L926.471 727.756C926.371 727.813 926.261 727.85 926.152 727.889C926.111 727.903 926.073 727.928 926.029 727.939C925.723 728.02 925.402 728.02 925.096 727.939C925.046 727.926 925.001 727.898 924.953 727.88C924.853 727.843 924.748 727.811 924.652 727.756L880.915 702.427C880.637 702.267 880.406 702.035 880.246 701.756C880.085 701.478 880 701.161 880 700.839V625.498C880 625.333 880.023 625.173 880.064 625.017C880.077 624.964 880.109 624.916 880.127 624.864C880.162 624.767 880.193 624.669 880.244 624.58C880.278 624.52 880.328 624.472 880.369 624.417C880.421 624.344 880.469 624.268 880.53 624.204C880.583 624.152 880.651 624.113 880.71 624.067C880.776 624.012 880.835 623.953 880.91 623.909L902.783 611.245C903.059 611.084 903.373 611 903.693 611C904.012 611 904.326 611.084 904.603 611.245L926.473 623.909H926.478C926.55 623.955 926.612 624.012 926.678 624.065C926.737 624.11 926.803 624.152 926.855 624.202C926.919 624.268 926.965 624.344 927.019 624.417C927.058 624.472 927.11 624.52 927.142 624.58C927.194 624.671 927.224 624.767 927.26 624.864C927.279 624.916 927.311 624.964 927.324 625.019C927.366 625.175 927.388 625.336 927.388 625.498V672.555L945.612 662.001V637.945C945.612 637.784 945.635 637.622 945.676 637.468C945.692 637.414 945.721 637.365 945.74 637.313C945.776 637.217 945.808 637.118 945.858 637.029C945.892 636.969 945.942 636.921 945.981 636.866C946.035 636.793 946.081 636.718 946.145 636.654C946.197 636.601 946.263 636.562 946.322 636.516C946.39 636.461 946.45 636.402 946.522 636.358L968.397 623.694C968.674 623.533 968.988 623.449 969.307 623.449C969.627 623.449 969.941 623.533 970.217 623.694L992.087 636.358C992.165 636.404 992.224 636.461 992.292 636.514C992.349 636.56 992.415 636.601 992.467 636.651C992.531 636.718 992.577 636.793 992.631 636.866C992.672 636.921 992.722 636.969 992.754 637.029C992.807 637.118 992.836 637.217 992.873 637.313C992.893 637.365 992.923 637.414 992.936 637.468ZM989.354 662.001V641.117L981.701 645.548L971.128 651.671V672.555L989.357 662.001H989.354ZM967.484 699.779V678.881L957.084 684.855L927.386 701.903V722.998L967.484 699.779ZM883.646 628.668V699.779L923.74 722.995V701.905L902.794 689.983L902.787 689.978L902.778 689.973C902.707 689.932 902.648 689.873 902.582 689.822C902.525 689.777 902.459 689.74 902.409 689.69L902.405 689.683C902.346 689.625 902.305 689.555 902.255 689.49C902.209 689.429 902.154 689.376 902.118 689.312L902.116 689.305C902.075 689.236 902.05 689.154 902.02 689.076C901.991 689.007 901.952 688.943 901.934 688.87C901.911 688.783 901.906 688.689 901.897 688.6C901.888 688.531 901.87 688.463 901.87 688.394V688.389V639.222L891.299 633.097L883.646 628.668ZM903.695 614.948L885.473 625.498L903.691 636.047L921.91 625.495L903.691 614.948H903.695ZM913.171 680.786L923.742 674.665V628.668L916.089 633.099L905.516 639.222V685.219L913.171 680.786ZM969.307 627.397L951.088 637.947L969.307 648.496L987.525 637.945L969.307 627.397ZM967.484 651.671L956.911 645.548L949.258 641.117V662.001L959.829 668.121L967.484 672.555V651.671ZM925.56 698.733L952.285 683.388L965.643 675.72L947.437 665.178L926.475 677.316L907.37 688.378L925.56 698.733Z" stroke="#AD2119" stroke-width="2" mask="url(#path-78-outside-1_381_773)"/>
<path d="M825.688 684.501L830 673.311L829.814 672.619L787.154 683.88C791.695 677.287 790.138 672 790.138 672C790.138 672 776.515 680.716 766.211 680.486C755.906 680.257 752.588 677.505 736.789 682.551C720.989 687.597 716.525 703.084 711.947 706.406C707.368 709.728 693 720.57 693 720.57L693.031 720.764L705.983 716.632C705.983 716.632 702.433 719.987 694.885 730.175C694.885 730.175 694.753 730.054 694.533 729.852L694.544 729.922C694.544 729.922 700.613 739.211 706.566 737.491C707.262 737.274 707.937 736.993 708.582 736.652C710.978 737.989 714.108 739.304 717.563 739.666C716.008 737.821 714.575 735.877 713.273 733.845L714.887 732.793L714.635 732.974L719.569 734.788L719.02 730.138L719.069 730.108L723.91 731.886L723.307 727.661C723.92 727.338 724.535 727.036 725.146 726.751L730.207 707.61L751.1 693.331L749.441 697.517C745.203 707.955 737.247 710.414 737.247 710.414L733.927 711.675C731.457 714.6 730.419 715.319 729.57 725.134C731.56 724.632 733.463 724.515 735.186 724.973C744.116 727.382 747.208 738.162 744.803 741.14C744.201 741.887 742.768 743.164 740.959 744.66H737.336L737.289 747.601L736.916 747.892H733.23L733.183 750.761C732.861 751.01 732.538 751.255 732.215 751.492C728.75 751.565 724.364 748.538 724.364 748.538C724.364 751.287 726.654 755.534 726.654 755.534L727.059 755.337L726.712 755.591C726.712 755.591 735.985 761.784 741.822 759.49C747.019 757.461 760.457 746.851 772.059 741.827L807.167 732.563L811.797 720.549L785.043 727.608V716.815L816.427 708.53L821.058 696.51L785.043 706.016V695.229L825.688 684.501ZM761.97 707.373L770.3 705.174L770.412 705.593L767.81 712.338L759.179 714.617L761.97 707.373ZM764.846 721.81L756.211 724.09L759.002 716.845L767.326 714.647L767.437 715.065L764.846 721.81ZM776.096 719.385L767.46 721.665L770.252 714.422L778.583 712.221L778.694 712.64L776.096 719.385Z" fill="black"/>
<path d="M669.422 258.699L659 144L771.281 144.044L760.946 258.612L715.053 271.57L669.422 258.699ZM752.494 252.439L761.209 154.2H715.228L715.578 262.552L752.494 252.439ZM710.936 168.603H699.77L699.638 227.398L677.962 221.488L678.005 234.928L710.936 243.815V168.603Z" fill="#D4B830"/>
<path opacity="0.986" d="M678.005 234.928L677.961 221.488C677.961 221.488 691.799 225.384 699.638 227.398L699.769 168.647H710.936V243.815L678.005 234.928Z" fill="#EBEBEB" fill-opacity="0.9216"/>
<path d="M715.228 154.156H761.208L752.494 252.395L715.228 262.508V154.156ZM750.129 235.935L753.151 199.204L730.817 201.7V182.087L754.64 182L755.603 168.603L719.65 168.778L720.132 217.548L741.853 213.826L741.546 224.684L719.65 230.506L719.869 243.815L750.129 235.935Z" fill="#FDD83C"/>
<circle cx="713.513" cy="602.513" r="9.51282" fill="#132438"/>
<circle cx="737.538" cy="602.513" r="9.51282" fill="#132438"/>
<circle cx="761.564" cy="602.513" r="9.51282" fill="#132438"/>
<circle cx="785.589" cy="602.513" r="9.51282" fill="#132438" fill-opacity="0.3"/>
<circle cx="809.614" cy="602.513" r="9.51282" fill="#132438" fill-opacity="0.3"/>
<circle cx="883.513" cy="556.513" r="9.51282" fill="#132438"/>
<circle cx="907.538" cy="556.513" r="9.51282" fill="#132438"/>
<circle cx="931.564" cy="556.513" r="9.51282" fill="#132438"/>
<circle cx="955.589" cy="556.513" r="9.51282" fill="#132438" fill-opacity="0.3"/>
<circle cx="979.614" cy="556.513" r="9.51282" fill="#132438" fill-opacity="0.3"/>
<circle cx="883.513" cy="750.513" r="9.51282" fill="#132438"/>
<circle cx="907.538" cy="750.513" r="9.51282" fill="#132438"/>
<circle cx="931.564" cy="750.513" r="9.51282" fill="#132438" fill-opacity="0.3"/>
<circle cx="955.589" cy="750.513" r="9.51282" fill="#132438" fill-opacity="0.3"/>
<circle cx="979.614" cy="750.513" r="9.51282" fill="#132438" fill-opacity="0.3"/>
<circle cx="712.513" cy="797.513" r="9.51282" fill="#132438"/>
<circle cx="736.538" cy="797.513" r="9.51282" fill="#132438"/>
<circle cx="760.564" cy="797.513" r="9.51282" fill="#132438" fill-opacity="0.3"/>
<circle cx="784.589" cy="797.513" r="9.51282" fill="#132438" fill-opacity="0.3"/>
<circle cx="808.614" cy="797.513" r="9.51282" fill="#132438" fill-opacity="0.3"/>
<circle cx="501.513" cy="701.513" r="9.51282" fill="#132438"/>
<circle cx="525.538" cy="701.513" r="9.51282" fill="#132438"/>
<circle cx="549.564" cy="701.513" r="9.51282" fill="#132438" fill-opacity="0.3"/>
<circle cx="573.589" cy="701.513" r="9.51282" fill="#132438" fill-opacity="0.3"/>
<circle cx="597.614" cy="701.513" r="9.51282" fill="#132438" fill-opacity="0.3"/>
<circle cx="333.513" cy="786.513" r="9.51282" fill="#132438"/>
<circle cx="357.538" cy="786.513" r="9.51282" fill="#132438"/>
<circle cx="381.564" cy="786.513" r="9.51282" fill="#132438"/>
<circle cx="405.589" cy="786.513" r="9.51282" fill="#132438" fill-opacity="0.3"/>
<circle cx="429.614" cy="786.513" r="9.51282" fill="#132438" fill-opacity="0.3"/>
<circle cx="200.513" cy="596.513" r="9.51282" fill="#132438"/>
<circle cx="224.538" cy="596.513" r="9.51282" fill="#132438"/>
<circle cx="248.564" cy="596.513" r="9.51282" fill="#132438"/>
<circle cx="272.589" cy="596.513" r="9.51282" fill="#132438"/>
<circle cx="296.614" cy="596.513" r="9.51282" fill="#132438" fill-opacity="0.3"/>
<circle cx="30.5128" cy="635.513" r="9.51282" fill="#132438"/>
<circle cx="54.5382" cy="635.513" r="9.51282" fill="#132438"/>
<circle cx="78.5636" cy="635.513" r="9.51282" fill="#132438"/>
<circle cx="102.589" cy="635.513" r="9.51282" fill="#132438"/>
<circle cx="126.614" cy="635.513" r="9.51282" fill="#132438" fill-opacity="0.3"/>
<circle cx="836.513" cy="356.513" r="9.51282" fill="#132438"/>
<circle cx="860.538" cy="356.513" r="9.51282" fill="#132438"/>
<circle cx="884.564" cy="356.513" r="9.51282" fill="#132438"/>
<circle cx="908.589" cy="356.513" r="9.51282" fill="#132438" fill-opacity="0.3"/>
<circle cx="932.614" cy="356.513" r="9.51282" fill="#132438" fill-opacity="0.3"/>
<circle cx="836.513" cy="161.513" r="9.51282" fill="#132438"/>
<circle cx="860.538" cy="161.513" r="9.51282" fill="#132438"/>
<circle cx="884.564" cy="161.513" r="9.51282" fill="#132438"/>
<circle cx="908.589" cy="161.513" r="9.51282" fill="#132438" fill-opacity="0.3"/>
<circle cx="932.614" cy="161.513" r="9.51282" fill="#132438" fill-opacity="0.3"/>
<circle cx="266.513" cy="395.513" r="9.51282" fill="#132438"/>
<circle cx="290.538" cy="395.513" r="9.51282" fill="#132438"/>
<circle cx="314.564" cy="395.513" r="9.51282" fill="#132438"/>
<circle cx="338.589" cy="395.513" r="9.51282" fill="#132438"/>
<circle cx="362.614" cy="395.513" r="9.51282" fill="#132438"/>
<circle cx="266.513" cy="193.513" r="9.51282" fill="#132438"/>
<circle cx="290.538" cy="193.513" r="9.51282" fill="#132438"/>
<circle cx="314.564" cy="193.513" r="9.51282" fill="#132438"/>
<circle cx="338.589" cy="193.513" r="9.51282" fill="#132438"/>
<circle cx="362.614" cy="193.513" r="9.51282" fill="#132438" fill-opacity="0.3"/>
<circle cx="666.513" cy="285.513" r="9.51282" fill="#132438"/>
<circle cx="690.538" cy="285.513" r="9.51282" fill="#132438"/>
<circle cx="714.564" cy="285.513" r="9.51282" fill="#132438"/>
<circle cx="738.589" cy="285.513" r="9.51282" fill="#132438"/>
<circle cx="762.614" cy="285.513" r="9.51282" fill="#132438" fill-opacity="0.3"/>
<circle cx="94.5128" cy="345.513" r="9.51282" fill="#132438"/>
<circle cx="118.538" cy="345.513" r="9.51282" fill="#132438"/>
<circle cx="142.564" cy="345.513" r="9.51282" fill="#132438"/>
<circle cx="166.589" cy="345.513" r="9.51282" fill="#132438"/>
<circle cx="190.614" cy="345.513" r="9.51282" fill="#132438" fill-opacity="0.3"/>
<circle cx="466.513" cy="235.513" r="9.51282" fill="#132438"/>
<circle cx="490.538" cy="235.513" r="9.51282" fill="#132438"/>
<circle cx="514.564" cy="235.513" r="9.51282" fill="#132438"/>
<circle cx="538.589" cy="235.513" r="9.51282" fill="#132438"/>
<circle cx="562.614" cy="235.513" r="9.51282" fill="#132438"/>
<defs>
<filter id="filter0_d_381_773" x="236" y="236" width="163" height="188" filterUnits="userSpaceOnUse" color-interpolation-filters="sRGB">
<feFlood flood-opacity="0" result="BackgroundImageFix"/>
<feColorMatrix in="SourceAlpha" type="matrix" values="0 0 0 0 0 0 0 0 0 0 0 0 0 0 0 0 0 0 127 0" result="hardAlpha"/>
<feOffset dx="3" dy="4"/>
<feGaussianBlur stdDeviation="2"/>
<feComposite in2="hardAlpha" operator="out"/>
<feColorMatrix type="matrix" values="0 0 0 0 0 0 0 0 0 0 0 0 0 0 0 0 0 0 0.25 0"/>
<feBlend mode="normal" in2="BackgroundImageFix" result="effect1_dropShadow_381_773"/>
<feBlend mode="normal" in="SourceGraphic" in2="effect1_dropShadow_381_773" result="shape"/>
</filter>
<filter id="filter1_d_381_773" x="303" y="627" width="163" height="188" filterUnits="userSpaceOnUse" color-interpolation-filters="sRGB">
<feFlood flood-opacity="0" result="BackgroundImageFix"/>
<feColorMatrix in="SourceAlpha" type="matrix" values="0 0 0 0 0 0 0 0 0 0 0 0 0 0 0 0 0 0 127 0" result="hardAlpha"/>
<feOffset dx="3" dy="4"/>
<feGaussianBlur stdDeviation="2"/>
<feComposite in2="hardAlpha" operator="out"/>
<feColorMatrix type="matrix" values="0 0 0 0 0 0 0 0 0 0 0 0 0 0 0 0 0 0 0.25 0"/>
<feBlend mode="normal" in2="BackgroundImageFix" result="effect1_dropShadow_381_773"/>
<feBlend mode="normal" in="SourceGraphic" in2="effect1_dropShadow_381_773" result="shape"/>
</filter>
<filter id="filter2_d_381_773" x="0" y="475" width="163" height="188" filterUnits="userSpaceOnUse" color-interpolation-filters="sRGB">
<feFlood flood-opacity="0" result="BackgroundImageFix"/>
<feColorMatrix in="SourceAlpha" type="matrix" values="0 0 0 0 0 0 0 0 0 0 0 0 0 0 0 0 0 0 127 0" result="hardAlpha"/>
<feOffset dx="3" dy="4"/>
<feGaussianBlur stdDeviation="2"/>
<feComposite in2="hardAlpha" operator="out"/>
<feColorMatrix type="matrix" values="0 0 0 0 0 0 0 0 0 0 0 0 0 0 0 0 0 0 0.25 0"/>
<feBlend mode="normal" in2="BackgroundImageFix" result="effect1_dropShadow_381_773"/>
<feBlend mode="normal" in="SourceGraphic" in2="effect1_dropShadow_381_773" result="shape"/>
</filter>
<filter id="filter3_d_381_773" x="170" y="436" width="163" height="188" filterUnits="userSpaceOnUse" color-interpolation-filters="sRGB">
<feFlood flood-opacity="0" result="BackgroundImageFix"/>
<feColorMatrix in="SourceAlpha" type="matrix" values="0 0 0 0 0 0 0 0 0 0 0 0 0 0 0 0 0 0 127 0" result="hardAlpha"/>
<feOffset dx="3" dy="4"/>
<feGaussianBlur stdDeviation="2"/>
<feComposite in2="hardAlpha" operator="out"/>
<feColorMatrix type="matrix" values="0 0 0 0 0 0 0 0 0 0 0 0 0 0 0 0 0 0 0.25 0"/>
<feBlend mode="normal" in2="BackgroundImageFix" result="effect1_dropShadow_381_773"/>
<feBlend mode="normal" in="SourceGraphic" in2="effect1_dropShadow_381_773" result="shape"/>
</filter>
<filter id="filter4_d_381_773" x="473" y="337" width="163" height="163" filterUnits="userSpaceOnUse" color-interpolation-filters="sRGB">
<feFlood flood-opacity="0" result="BackgroundImageFix"/>
<feColorMatrix in="SourceAlpha" type="matrix" values="0 0 0 0 0 0 0 0 0 0 0 0 0 0 0 0 0 0 127 0" result="hardAlpha"/>
<feOffset dx="3" dy="4"/>
<feGaussianBlur stdDeviation="2"/>
<feComposite in2="hardAlpha" operator="out"/>
<feColorMatrix type="matrix" values="0 0 0 0 0 0 0 0 0 0 0 0 0 0 0 0 0 0 0.25 0"/>
<feBlend mode="normal" in2="BackgroundImageFix" result="effect1_dropShadow_381_773"/>
<feBlend mode="normal" in="SourceGraphic" in2="effect1_dropShadow_381_773" result="shape"/>
</filter>
<filter id="filter5_d_381_773" x="473" y="544" width="163" height="188" filterUnits="userSpaceOnUse" color-interpolation-filters="sRGB">
<feFlood flood-opacity="0" result="BackgroundImageFix"/>
<feColorMatrix in="SourceAlpha" type="matrix" values="0 0 0 0 0 0 0 0 0 0 0 0 0 0 0 0 0 0 127 0" result="hardAlpha"/>
<feOffset dx="3" dy="4"/>
<feGaussianBlur stdDeviation="2"/>
<feComposite in2="hardAlpha" operator="out"/>
<feColorMatrix type="matrix" values="0 0 0 0 0 0 0 0 0 0 0 0 0 0 0 0 0 0 0.25 0"/>
<feBlend mode="normal" in2="BackgroundImageFix" result="effect1_dropShadow_381_773"/>
<feBlend mode="normal" in="SourceGraphic" in2="effect1_dropShadow_381_773" result="shape"/>
</filter>
<filter id="filter6_d_381_773" x="806" y="0" width="163" height="188" filterUnits="userSpaceOnUse" color-interpolation-filters="sRGB">
<feFlood flood-opacity="0" result="BackgroundImageFix"/>
<feColorMatrix in="SourceAlpha" type="matrix" values="0 0 0 0 0 0 0 0 0 0 0 0 0 0 0 0 0 0 127 0" result="hardAlpha"/>
<feOffset dx="3" dy="4"/>
<feGaussianBlur stdDeviation="2"/>
<feComposite in2="hardAlpha" operator="out"/>
<feColorMatrix type="matrix" values="0 0 0 0 0 0 0 0 0 0 0 0 0 0 0 0 0 0 0.25 0"/>
<feBlend mode="normal" in2="BackgroundImageFix" result="effect1_dropShadow_381_773"/>
<feBlend mode="normal" in="SourceGraphic" in2="effect1_dropShadow_381_773" result="shape"/>
</filter>
<filter id="filter7_d_381_773" x="806" y="196" width="163" height="188" filterUnits="userSpaceOnUse" color-interpolation-filters="sRGB">
<feFlood flood-opacity="0" result="BackgroundImageFix"/>
<feColorMatrix in="SourceAlpha" type="matrix" values="0 0 0 0 0 0 0 0 0 0 0 0 0 0 0 0 0 0 127 0" result="hardAlpha"/>
<feOffset dx="3" dy="4"/>
<feGaussianBlur stdDeviation="2"/>
<feComposite in2="hardAlpha" operator="out"/>
<feColorMatrix type="matrix" values="0 0 0 0 0 0 0 0 0 0 0 0 0 0 0 0 0 0 0.25 0"/>
<feBlend mode="normal" in2="BackgroundImageFix" result="effect1_dropShadow_381_773"/>
<feBlend mode="normal" in="SourceGraphic" in2="effect1_dropShadow_381_773" result="shape"/>
</filter>
<filter id="filter8_d_381_773" x="683" y="638" width="163" height="188" filterUnits="userSpaceOnUse" color-interpolation-filters="sRGB">
<feFlood flood-opacity="0" result="BackgroundImageFix"/>
<feColorMatrix in="SourceAlpha" type="matrix" values="0 0 0 0 0 0 0 0 0 0 0 0 0 0 0 0 0 0 127 0" result="hardAlpha"/>
<feOffset dx="3" dy="4"/>
<feGaussianBlur stdDeviation="2"/>
<feComposite in2="hardAlpha" operator="out"/>
<feColorMatrix type="matrix" values="0 0 0 0 0 0 0 0 0 0 0 0 0 0 0 0 0 0 0.25 0"/>
<feBlend mode="normal" in2="BackgroundImageFix" result="effect1_dropShadow_381_773"/>
<feBlend mode="normal" in="SourceGraphic" in2="effect1_dropShadow_381_773" result="shape"/>
</filter>
<filter id="filter9_d_381_773" x="683" y="443" width="163" height="188" filterUnits="userSpaceOnUse" color-interpolation-filters="sRGB">
<feFlood flood-opacity="0" result="BackgroundImageFix"/>
<feColorMatrix in="SourceAlpha" type="matrix" values="0 0 0 0 0 0 0 0 0 0 0 0 0 0 0 0 0 0 127 0" result="hardAlpha"/>
<feOffset dx="3" dy="4"/>
<feGaussianBlur stdDeviation="2"/>
<feComposite in2="hardAlpha" operator="out"/>
<feColorMatrix type="matrix" values="0 0 0 0 0 0 0 0 0 0 0 0 0 0 0 0 0 0 0.25 0"/>
<feBlend mode="normal" in2="BackgroundImageFix" result="effect1_dropShadow_381_773"/>
<feBlend mode="normal" in="SourceGraphic" in2="effect1_dropShadow_381_773" result="shape"/>
</filter>
<filter id="filter10_d_381_773" x="853" y="398" width="163" height="188" filterUnits="userSpaceOnUse" color-interpolation-filters="sRGB">
<feFlood flood-opacity="0" result="BackgroundImageFix"/>
<feColorMatrix in="SourceAlpha" type="matrix" values="0 0 0 0 0 0 0 0 0 0 0 0 0 0 0 0 0 0 127 0" result="hardAlpha"/>
<feOffset dx="3" dy="4"/>
<feGaussianBlur stdDeviation="2"/>
<feComposite in2="hardAlpha" operator="out"/>
<feColorMatrix type="matrix" values="0 0 0 0 0 0 0 0 0 0 0 0 0 0 0 0 0 0 0.25 0"/>
<feBlend mode="normal" in2="BackgroundImageFix" result="effect1_dropShadow_381_773"/>
<feBlend mode="normal" in="SourceGraphic" in2="effect1_dropShadow_381_773" result="shape"/>
</filter>
<filter id="filter11_d_381_773" x="636" y="125" width="163" height="188" filterUnits="userSpaceOnUse" color-interpolation-filters="sRGB">
<feFlood flood-opacity="0" result="BackgroundImageFix"/>
<feColorMatrix in="SourceAlpha" type="matrix" values="0 0 0 0 0 0 0 0 0 0 0 0 0 0 0 0 0 0 127 0" result="hardAlpha"/>
<feOffset dx="3" dy="4"/>
<feGaussianBlur stdDeviation="2"/>
<feComposite in2="hardAlpha" operator="out"/>
<feColorMatrix type="matrix" values="0 0 0 0 0 0 0 0 0 0 0 0 0 0 0 0 0 0 0.25 0"/>
<feBlend mode="normal" in2="BackgroundImageFix" result="effect1_dropShadow_381_773"/>
<feBlend mode="normal" in="SourceGraphic" in2="effect1_dropShadow_381_773" result="shape"/>
</filter>
<filter id="filter12_d_381_773" x="853" y="593" width="163" height="188" filterUnits="userSpaceOnUse" color-interpolation-filters="sRGB">
<feFlood flood-opacity="0" result="BackgroundImageFix"/>
<feColorMatrix in="SourceAlpha" type="matrix" values="0 0 0 0 0 0 0 0 0 0 0 0 0 0 0 0 0 0 127 0" result="hardAlpha"/>
<feOffset dx="3" dy="4"/>
<feGaussianBlur stdDeviation="2"/>
<feComposite in2="hardAlpha" operator="out"/>
<feColorMatrix type="matrix" values="0 0 0 0 0 0 0 0 0 0 0 0 0 0 0 0 0 0 0.25 0"/>
<feBlend mode="normal" in2="BackgroundImageFix" result="effect1_dropShadow_381_773"/>
<feBlend mode="normal" in="SourceGraphic" in2="effect1_dropShadow_381_773" result="shape"/>
</filter>
<filter id="filter13_d_381_773" x="236" y="33" width="163" height="188" filterUnits="userSpaceOnUse" color-interpolation-filters="sRGB">
<feFlood flood-opacity="0" result="BackgroundImageFix"/>
<feColorMatrix in="SourceAlpha" type="matrix" values="0 0 0 0 0 0 0 0 0 0 0 0 0 0 0 0 0 0 127 0" result="hardAlpha"/>
<feOffset dx="3" dy="4"/>
<feGaussianBlur stdDeviation="2"/>
<feComposite in2="hardAlpha" operator="out"/>
<feColorMatrix type="matrix" values="0 0 0 0 0 0 0 0 0 0 0 0 0 0 0 0 0 0 0.25 0"/>
<feBlend mode="normal" in2="BackgroundImageFix" result="effect1_dropShadow_381_773"/>
<feBlend mode="normal" in="SourceGraphic" in2="effect1_dropShadow_381_773" result="shape"/>
</filter>
<filter id="filter14_d_381_773" x="436" y="77" width="163" height="188" filterUnits="userSpaceOnUse" color-interpolation-filters="sRGB">
<feFlood flood-opacity="0" result="BackgroundImageFix"/>
<feColorMatrix in="SourceAlpha" type="matrix" values="0 0 0 0 0 0 0 0 0 0 0 0 0 0 0 0 0 0 127 0" result="hardAlpha"/>
<feOffset dx="3" dy="4"/>
<feGaussianBlur stdDeviation="2"/>
<feComposite in2="hardAlpha" operator="out"/>
<feColorMatrix type="matrix" values="0 0 0 0 0 0 0 0 0 0 0 0 0 0 0 0 0 0 0.25 0"/>
<feBlend mode="normal" in2="BackgroundImageFix" result="effect1_dropShadow_381_773"/>
<feBlend mode="normal" in="SourceGraphic" in2="effect1_dropShadow_381_773" result="shape"/>
</filter>
<filter id="filter15_d_381_773" x="66" y="187" width="163" height="188" filterUnits="userSpaceOnUse" color-interpolation-filters="sRGB">
<feFlood flood-opacity="0" result="BackgroundImageFix"/>
<feColorMatrix in="SourceAlpha" type="matrix" values="0 0 0 0 0 0 0 0 0 0 0 0 0 0 0 0 0 0 127 0" result="hardAlpha"/>
<feOffset dx="3" dy="4"/>
<feGaussianBlur stdDeviation="2"/>
<feComposite in2="hardAlpha" operator="out"/>
<feColorMatrix type="matrix" values="0 0 0 0 0 0 0 0 0 0 0 0 0 0 0 0 0 0 0.25 0"/>
<feBlend mode="normal" in2="BackgroundImageFix" result="effect1_dropShadow_381_773"/>
<feBlend mode="normal" in="SourceGraphic" in2="effect1_dropShadow_381_773" result="shape"/>
</filter>
</defs>
</svg>
